<!--?xml version="1.0" standalone="no"?-->
              <svg id="sw-js-blob-svg" viewBox="0 0 100 100" xmlns="http://www.w3.org/2000/svg" version="1.1">
                    <defs> 
                        <linearGradient id="sw-gradient" x1="0" x2="1" y1="1" y2="0">
                            <stop id="stop1" stop-color="rgba(68, 161, 160, 1)" offset="0%"></stop>
                            <stop id="stop2" stop-color="rgba(13, 92, 99, 1)" offset="100%"></stop>
                        </linearGradient>
                    </defs>
                <path fill="url(#sw-gradient)" d="M15.2,-26.3C19.3,-23.9,22.1,-19.1,26.3,-14.4C30.4,-9.6,35.9,-4.8,35.6,-0.2C35.3,4.4,29.2,8.9,23.2,10.6C17.3,12.2,11.6,11.2,7.7,15.7C3.9,20.3,1.9,30.5,-1.7,33.5C-5.4,36.5,-10.8,32.3,-14.9,27.9C-19,23.5,-21.8,18.8,-25.1,14.1C-28.4,9.4,-32.3,4.7,-33.7,-0.8C-35.1,-6.4,-34.1,-12.7,-28.6,-13.6C-23.1,-14.5,-13.1,-10,-7.6,-11.7C-2.1,-13.3,-1.1,-21.2,2.2,-25C5.5,-28.9,11,-28.7,15.2,-26.3Z" width="100%" height="100%" transform="translate(50 50)" stroke-width="0" style="transition: all 0.3s ease 0s;" stroke="url(#sw-gradient)"></path>
              </svg>