<svg id="Layer_1" data-name="Layer 1" xmlns="http://www.w3.org/2000/svg" viewBox="0 0 1060.52 443.31"><defs><style>.cls-1{fill:#055c67;}.cls-2{fill:#f9b951;}</style></defs><title>logo grande</title><path class="cls-1" d="M560.49,704.09c3.63-1.45,5.42-4.25,5.42-8.49a9.15,9.15,0,0,0-1.34-5.14,8.5,8.5,0,0,0-3.91-2.9,15.88,15.88,0,0,0-5.25-.84H544.8v26.14h4.35V705c4.75,0,7.15,0,7.43-.05l4.8,7.93h5ZM555.41,701h-6.26V690.69h6.26c4.19,0,6.31,1.67,6.31,5.08S559.6,701,555.41,701Z" transform="translate(-442.95 -273.67)"/><path class="cls-1" d="M589.36,686.7v15.2a6.69,6.69,0,0,1-2,5.28,7.21,7.21,0,0,1-4.84,1.69,7.4,7.4,0,0,1-4.91-1.69,6.59,6.59,0,0,1-2-5.28V686.7h-4.39v15.23a12.35,12.35,0,0,0,1.23,5.59,9.24,9.24,0,0,0,3.75,3.89,14.66,14.66,0,0,0,12.59,0,9.32,9.32,0,0,0,3.77-4,12.67,12.67,0,0,0,1.17-5.48V686.7Z" transform="translate(-442.95 -273.67)"/><path class="cls-1" d="M618,688.9a12,12,0,0,0-7.49-2.18H600.14v26.14h4.41V705h6a12.34,12.34,0,0,0,6-1.23,7.3,7.3,0,0,0,3.35-3.4,10.8,10.8,0,0,0,1-4.75C620.85,692.59,619.91,690.35,618,688.9ZM610.36,701h-5.81V690.69h5.81c4.18,0,6.31,1.67,6.31,5.08S614.54,701,610.36,701Z" transform="translate(-442.95 -273.67)"/><polygon class="cls-1" points="179.2 413.03 179.2 416.99 187.45 416.99 187.45 439.16 191.86 439.16 191.86 416.99 200.15 416.99 200.15 413.03 179.2 413.03"/><path class="cls-1" d="M664.44,686.7v15.2q0,3.57-2,5.28a7.21,7.21,0,0,1-4.84,1.69,7.35,7.35,0,0,1-4.9-1.69,6.56,6.56,0,0,1-2-5.28V686.7h-4.38v15.23a12.35,12.35,0,0,0,1.22,5.59,9.24,9.24,0,0,0,3.75,3.89,14.66,14.66,0,0,0,12.59,0,9.2,9.2,0,0,0,3.77-4,12.67,12.67,0,0,0,1.17-5.48V686.7Z" transform="translate(-442.95 -273.67)"/><path class="cls-1" d="M690.93,704.09c3.58-1.45,5.37-4.25,5.37-8.49a8.7,8.7,0,0,0-1.35-5.14,8.54,8.54,0,0,0-3.85-2.9,16.18,16.18,0,0,0-5.3-.84H675.19v26.14h4.41V705c4.69,0,7.15,0,7.37-.05l4.8,7.93h5ZM685.8,701h-6.2V690.69h6.2c4.24,0,6.36,1.67,6.36,5.08S690,701,685.8,701Z" transform="translate(-442.95 -273.67)"/><path class="cls-1" d="M714.83,686.72h-4.52l-11.5,26.14h4.58l2.51-5.92h13.18l2.51,5.92h4.69ZM707.52,703l5-11.62L717.4,703Z" transform="translate(-442.95 -273.67)"/><path class="cls-1" d="M745.84,700.83a15.58,15.58,0,0,0-6.58-3.06,12.71,12.71,0,0,1-4.41-1.76,2.88,2.88,0,0,1-1.33-2.41,2.2,2.2,0,0,1,1.2-2.1,6.53,6.53,0,0,1,3-.62,15,15,0,0,1,7.66,2.57l1.83-4a15.47,15.47,0,0,0-9.16-2.74,11.59,11.59,0,0,0-6.79,1.89,6,6,0,0,0-2.72,5.28,6.7,6.7,0,0,0,.93,3.57,7.43,7.43,0,0,0,2.5,2.13,22,22,0,0,0,4.86,1.78c.89.23,1.65.46,2.27.68a12.54,12.54,0,0,1,1.8.78,3,3,0,0,1,1.76,2.77,2.76,2.76,0,0,1-1.21,2.26,6,6,0,0,1-3.68.92c-2.92,0-5.87-1.22-8.86-3.69l-1.9,3.62a15.66,15.66,0,0,0,15.47,3.42,8.23,8.23,0,0,0,3.73-2.55,6.24,6.24,0,0,0,1.34-4.1A6.77,6.77,0,0,0,745.84,700.83Z" transform="translate(-442.95 -273.67)"/><path class="cls-1" d="M755.31,709.35a2,2,0,0,0-.87-.78,2.5,2.5,0,0,0-1.06-.25,2.24,2.24,0,0,0-1.64.65,2.33,2.33,0,0,0-.68,1.75,2.27,2.27,0,0,0,1.12,2L750.69,717h2.21l2.2-4.47a4.22,4.22,0,0,0,.55-1.79A2.36,2.36,0,0,0,755.31,709.35Z" transform="translate(-442.95 -273.67)"/><path class="cls-1" d="M790.85,705.72a10.7,10.7,0,0,1-7.27,3,9.8,9.8,0,0,1-3.93-.75,8.64,8.64,0,0,1-2.93-2,8.91,8.91,0,0,1-1.83-2.89,9.07,9.07,0,0,1-.64-3.36,8.55,8.55,0,0,1,2.68-6.51,9.34,9.34,0,0,1,6.65-2.52,9.87,9.87,0,0,1,7.27,3.48l2.58-3.06a13.95,13.95,0,0,0-19.7-.62,12.25,12.25,0,0,0-4,9.26,12.48,12.48,0,0,0,4,9.34,13.28,13.28,0,0,0,9.63,3.8,14.29,14.29,0,0,0,10.14-4.35Z" transform="translate(-442.95 -273.67)"/><path class="cls-1" d="M819,690.46a14.86,14.86,0,0,0-19.77-.05,12.37,12.37,0,0,0-4,9.32,12.56,12.56,0,0,0,4,9.33,13.93,13.93,0,0,0,9.88,3.8,13.71,13.71,0,0,0,9.83-3.8,12.83,12.83,0,0,0,.06-18.6Zm-1.34,13.18a8.9,8.9,0,0,1-2.12,2.91,10.17,10.17,0,0,1-6.43,2.34,9.45,9.45,0,0,1-6.53-2.62,8.92,8.92,0,0,1,0-13.07,9.74,9.74,0,0,1,13.12.06,8.41,8.41,0,0,1,2.74,6.47A9.64,9.64,0,0,1,817.64,703.64Z" transform="translate(-442.95 -273.67)"/><polygon class="cls-1" points="403.02 413.03 403.02 431.93 389.03 413.03 384.69 413.03 384.69 439.16 389.1 439.16 389.1 420.35 403.02 439.16 407.36 439.16 407.36 413.03 403.02 413.03"/><polygon class="cls-1" points="411.17 413.03 411.17 416.99 419.42 416.99 419.42 439.16 423.83 439.16 423.83 416.99 432.11 416.99 432.11 413.03 411.17 413.03"/><rect class="cls-1" x="435.88" y="413.03" width="4.41" height="26.13"/><polygon class="cls-1" points="465.48 413.03 465.48 431.93 451.49 413.03 447.15 413.03 447.15 439.16 451.56 439.16 451.56 420.35 465.48 439.16 469.82 439.16 469.82 413.03 465.48 413.03"/><path class="cls-1" d="M937.25,686.7v15.2c0,2.38-.64,4.14-2,5.28a7.15,7.15,0,0,1-4.83,1.69,7.38,7.38,0,0,1-4.91-1.69q-2-1.71-2-5.28V686.7h-4.41v15.23a12.23,12.23,0,0,0,1.24,5.59,9.16,9.16,0,0,0,3.74,3.89,14.66,14.66,0,0,0,12.59,0,9.24,9.24,0,0,0,3.76-4,12.53,12.53,0,0,0,1.18-5.48V686.7Z" transform="translate(-442.95 -273.67)"/><rect class="cls-1" x="505.06" y="413.03" width="4.41" height="26.13"/><path class="cls-1" d="M979.69,690.41a13.32,13.32,0,0,0-9.72-3.69H959.3v26.14h10.61a13.34,13.34,0,0,0,9.78-3.75,13.43,13.43,0,0,0,0-18.7Zm-3.24,16a8.78,8.78,0,0,1-6.31,2.51h-6.48v-18.2h6.25a9,9,0,0,1,6.43,2.45,8.42,8.42,0,0,1,2.73,6.65A8.67,8.67,0,0,1,976.45,706.38Z" transform="translate(-442.95 -273.67)"/><path class="cls-1" d="M1000.18,686.72h-4.47l-11.56,26.14h4.58l2.52-5.92h13.17l2.52,5.92h4.69ZM992.87,703l5-11.62,4.92,11.62Z" transform="translate(-442.95 -273.67)"/><path class="cls-1" d="M1035.53,690.41a13.32,13.32,0,0,0-9.72-3.69h-10.72v26.14h10.61a13.47,13.47,0,0,0,9.83-3.75,13.43,13.43,0,0,0,0-18.7Zm-3.24,16a9,9,0,0,1-6.37,2.51h-6.42v-18.2h6.26a9.1,9.1,0,0,1,6.42,2.45,9.53,9.53,0,0,1,.11,13.24Z" transform="translate(-442.95 -273.67)"/><polygon class="cls-1" points="605.49 435.22 605.49 428.02 618.26 428.02 618.26 424.09 605.49 424.09 605.49 416.99 619.77 416.99 619.77 413.03 601.1 413.03 601.1 439.16 620.22 439.16 620.22 435.22 605.49 435.22"/><path class="cls-1" d="M1084.85,700.83a15.52,15.52,0,0,0-6.58-3.06,13,13,0,0,1-4.42-1.76,2.89,2.89,0,0,1-1.32-2.41,2.19,2.19,0,0,1,1.21-2.1,6.49,6.49,0,0,1,3-.62,15,15,0,0,1,7.66,2.57l1.83-4a15.47,15.47,0,0,0-9.15-2.74,11.52,11.52,0,0,0-6.79,1.89,6,6,0,0,0-2.72,5.28,6.78,6.78,0,0,0,.92,3.57,7.49,7.49,0,0,0,2.51,2.13,21.91,21.91,0,0,0,4.85,1.78c.89.23,1.65.46,2.28.68a12.92,12.92,0,0,1,1.79.78,2.94,2.94,0,0,1,1.74,2.77,2.74,2.74,0,0,1-1.19,2.26,6,6,0,0,1-3.69.92c-2.92,0-5.85-1.22-8.84-3.69l-1.92,3.62a15.66,15.66,0,0,0,15.47,3.42,8.23,8.23,0,0,0,3.75-2.55,6.23,6.23,0,0,0,1.31-4.1A6.71,6.71,0,0,0,1084.85,700.83Z" transform="translate(-442.95 -273.67)"/><polygon class="cls-1" points="675.85 413.03 668.52 425.76 661.05 413.03 656.61 413.03 666.35 430.61 666.35 439.16 670.73 439.16 670.73 430.47 680.33 413.03 675.85 413.03"/><polygon class="cls-1" points="713.33 413.03 713.33 431.93 699.33 413.03 695 413.03 695 439.16 699.4 439.16 699.4 420.35 713.33 439.16 717.66 439.16 717.66 413.03 713.33 413.03"/><path class="cls-1" d="M1185.09,686.7v15.2a6.69,6.69,0,0,1-1.95,5.28,7.21,7.21,0,0,1-4.84,1.69,7.4,7.4,0,0,1-4.91-1.69q-2-1.71-2-5.28V686.7H1167v15.23a12.35,12.35,0,0,0,1.23,5.59,9.24,9.24,0,0,0,3.75,3.89,14.66,14.66,0,0,0,12.59,0,9.26,9.26,0,0,0,3.77-4,12.67,12.67,0,0,0,1.17-5.48V686.7Z" transform="translate(-442.95 -273.67)"/><polygon class="cls-1" points="757.31 435.22 757.31 428.02 770.08 428.02 770.08 424.09 757.31 424.09 757.31 416.99 771.57 416.99 771.57 413.03 752.9 413.03 752.9 439.16 772.01 439.16 772.01 435.22 757.31 435.22"/><polygon class="cls-1" points="795.02 413.03 786.88 434.27 778.81 413.03 774.08 413.03 784.5 439.16 789.05 439.16 799.61 413.03 795.02 413.03"/><path class="cls-1" d="M1267.15,690.46a13.68,13.68,0,0,0-9.82-3.79,13.94,13.94,0,0,0-9.89,3.74,12.15,12.15,0,0,0-4,9.32,12.33,12.33,0,0,0,4,9.33,14.68,14.68,0,0,0,19.71,0,12.4,12.4,0,0,0,4-9.33A12.21,12.21,0,0,0,1267.15,690.46Zm-1.28,13.18a8.9,8.9,0,0,1-2.18,2.91,9.85,9.85,0,0,1-3,1.73,10.16,10.16,0,0,1-3.4.61,9.46,9.46,0,0,1-6.54-2.62,9,9,0,0,1,0-13.07,9.59,9.59,0,0,1,6.59-2.51,9.15,9.15,0,0,1,6.53,2.57,8.49,8.49,0,0,1,2.79,6.47A9.64,9.64,0,0,1,1265.87,703.64Z" transform="translate(-442.95 -273.67)"/><path class="cls-1" d="M1292.18,700.83a15.58,15.58,0,0,0-6.58-3.06,12.71,12.71,0,0,1-4.41-1.76,2.89,2.89,0,0,1-1.34-2.41,2.19,2.19,0,0,1,1.21-2.1,6.52,6.52,0,0,1,3-.62,15,15,0,0,1,7.67,2.57l1.83-4a15.47,15.47,0,0,0-9.16-2.74,11.57,11.57,0,0,0-6.79,1.89,6,6,0,0,0-2.72,5.28,6.78,6.78,0,0,0,.92,3.57,7.59,7.59,0,0,0,2.51,2.13,22.12,22.12,0,0,0,4.85,1.78c.89.23,1.66.46,2.28.68a12.54,12.54,0,0,1,1.8.78,3,3,0,0,1,1.76,2.77,2.76,2.76,0,0,1-1.21,2.26,6,6,0,0,1-3.68.92c-2.92,0-5.87-1.22-8.86-3.69l-1.9,3.62a15.66,15.66,0,0,0,15.47,3.42,8.23,8.23,0,0,0,3.73-2.55,6.24,6.24,0,0,0,1.34-4.1A6.77,6.77,0,0,0,1292.18,700.83Z" transform="translate(-442.95 -273.67)"/><path class="cls-1" d="M1330.7,690.41a13.29,13.29,0,0,0-9.71-3.69h-10.67v26.14h10.55a13.38,13.38,0,0,0,9.83-3.75,13.4,13.4,0,0,0,0-18.7Zm-3.29,16a8.8,8.8,0,0,1-6.31,2.51h-6.42v-18.2h6.25a9.09,9.09,0,0,1,6.42,2.45,8.42,8.42,0,0,1,2.74,6.65A8.54,8.54,0,0,1,1327.41,706.38Z" transform="translate(-442.95 -273.67)"/><polygon class="cls-1" points="900.68 435.22 900.68 428.02 913.45 428.02 913.45 424.09 900.68 424.09 900.68 416.99 914.94 416.99 914.94 413.03 896.27 413.03 896.27 439.16 915.39 439.16 915.39 435.22 900.68 435.22"/><path class="cls-1" d="M1380,700.83a15.54,15.54,0,0,0-6.56-3.06A12.6,12.6,0,0,1,1369,696a2.89,2.89,0,0,1-1.34-2.41,2.19,2.19,0,0,1,1.21-2.1,6.52,6.52,0,0,1,3.06-.62,15,15,0,0,1,7.64,2.57l1.83-4a15.4,15.4,0,0,0-9.13-2.74,11.63,11.63,0,0,0-6.81,1.89,6,6,0,0,0-2.72,5.28,6.79,6.79,0,0,0,.94,3.57,7.18,7.18,0,0,0,2.49,2.13,22.76,22.76,0,0,0,4.85,1.78c.91.23,1.65.46,2.28.68a12,12,0,0,1,1.79.78,2.93,2.93,0,0,1,1.76,2.77,2.76,2.76,0,0,1-1.19,2.26,6,6,0,0,1-3.7.92c-2.91,0-5.86-1.22-8.85-3.69l-1.9,3.62a15.66,15.66,0,0,0,15.47,3.42,8.23,8.23,0,0,0,3.73-2.55,6.24,6.24,0,0,0,1.33-4.1A6.72,6.72,0,0,0,1380,700.83Z" transform="translate(-442.95 -273.67)"/><path class="cls-1" d="M1399.39,686.72h-4.53l-11.56,26.14h4.58l2.52-5.92h13.17l2.52,5.92h4.69ZM1392,703l5-11.62L1401.9,703Z" transform="translate(-442.95 -273.67)"/><polygon class="cls-1" points="988.83 416.99 988.87 413.03 971.32 413.03 971.32 439.16 975.73 439.16 975.73 428.46 987.61 428.46 987.61 424.53 975.73 424.53 975.73 416.99 988.83 416.99"/><path class="cls-1" d="M1435.74,686.72v26.14h4.41V686.72Zm3.68-7.7-3.68,5.13,3.52.39,4.57-3.68Z" transform="translate(-442.95 -273.67)"/><path class="cls-1" d="M1468.57,690.46a13.84,13.84,0,0,0-9.88-3.79,14.13,14.13,0,0,0-9.89,3.74,12.89,12.89,0,0,0,.06,18.65,13.71,13.71,0,0,0,9.83,3.8,13.93,13.93,0,0,0,9.88-3.8,12.52,12.52,0,0,0,4-9.33A12.33,12.33,0,0,0,1468.57,690.46Zm-1.34,13.18a8.12,8.12,0,0,1-2.12,2.91,10.15,10.15,0,0,1-3,1.73,9.87,9.87,0,0,1-3.35.61,9.49,9.49,0,0,1-6.59-2.62,8.94,8.94,0,0,1,0-13.07,9.52,9.52,0,0,1,6.59-2.51,9.18,9.18,0,0,1,6.54,2.57,8.43,8.43,0,0,1,2.73,6.47A8.74,8.74,0,0,1,1467.23,703.64Z" transform="translate(-442.95 -273.67)"/><path class="cls-1" d="M1493.56,700.83a15.54,15.54,0,0,0-6.56-3.06,12.84,12.84,0,0,1-4.43-1.76,2.9,2.9,0,0,1-1.33-2.41,2.18,2.18,0,0,1,1.23-2.1,6.38,6.38,0,0,1,3-.62,14.93,14.93,0,0,1,7.64,2.57l1.83-4a15.36,15.36,0,0,0-9.13-2.74,11.63,11.63,0,0,0-6.81,1.89,6,6,0,0,0-2.72,5.28,6.79,6.79,0,0,0,.94,3.57,7.18,7.18,0,0,0,2.49,2.13,22.54,22.54,0,0,0,4.85,1.78c.91.23,1.65.46,2.28.68a12.42,12.42,0,0,1,1.79.78,2.93,2.93,0,0,1,1.76,2.77,2.79,2.79,0,0,1-1.19,2.26,6,6,0,0,1-3.7.92c-2.91,0-5.86-1.22-8.85-3.69l-1.9,3.62a14.85,14.85,0,0,0,10.68,4.18,14.69,14.69,0,0,0,4.78-.76,8.26,8.26,0,0,0,3.74-2.55,6.24,6.24,0,0,0,1.33-4.1A6.72,6.72,0,0,0,1493.56,700.83Z" transform="translate(-442.95 -273.67)"/><path class="cls-1" d="M1503.11,709a2.29,2.29,0,0,0-.87-.8,2.59,2.59,0,0,0-2.26,0,2.22,2.22,0,0,0-.87.8,2.51,2.51,0,0,0-.36,1.37,2.44,2.44,0,0,0,.68,1.81,2.23,2.23,0,0,0,1.69.68,2.15,2.15,0,0,0,1.65-.68,2.42,2.42,0,0,0,.7-1.81A2.51,2.51,0,0,0,1503.11,709Z" transform="translate(-442.95 -273.67)"/><path class="cls-1" d="M1376.32,663.88l-69.85-169.59-1-2.51h-161c42.27-3.35,70.7-26.75,79.69-62.32a25.73,25.73,0,0,1-16.48-43.55,25.43,25.43,0,0,1,16.48-7.71c-10-38.92-44-61.42-94.26-61.42h-83.2V602.35L970.36,493.57l-1-1.34v-1.68c32.27-8.32,56.28-31,56.28-73.43V316.78H964.39V417.35c0,15.69-10.73,24.68-26.64,24.68-16.19,0-26.86-9-26.86-24.68V316.78H849.63V417.12c0,42.22,23.62,64.89,55.73,73.32v42.89h-94.2v25.46h85.49v42.33H811.16v25.74h94.2v42h60.7V558.12l76.62,109.06,1.28,1.73h50.76V533.77h38.53V668.91h46.07l2-5,2.45-5.86V533.77h51.15l.17-.5.39-.95v1.45h-.56L1183.78,658v10.89h47.08l1-2.51L1243.37,637h70.86l11.56,29.38,1,2.51h49.7v-4.52ZM962.54,490.16v.23a20.83,20.83,0,0,1-.89,3.46V494a4.45,4.45,0,0,1-.22.45v.16l-.34.73-.11.28-.06.17a25.69,25.69,0,0,1-9.32,11.33,25.73,25.73,0,0,1-36.91-9,12.48,12.48,0,0,1-1.23-2.51l-.06-.17,0-.11v-.06a8.73,8.73,0,0,1-.5-1.28v-.06l-.06,0a20.85,20.85,0,0,1-.84-3.46.39.39,0,0,1-.05-.23,24,24,0,0,1-.39-4.46,25.74,25.74,0,1,1,51.48,0A24.09,24.09,0,0,1,962.54,490.16Zm168.59-48.58H1108v-76.5h19.44c23.39,0,38.08,13.46,38.08,39.53C1165.47,431.7,1149.78,441.58,1131.13,441.58Zm128.6,157.25,19.1-49,18.81,49Z" transform="translate(-442.95 -273.67)"/><polygon class="cls-1" points="169.69 43.29 169.64 43.4 169.65 43.29 169.69 43.29"/><polygon class="cls-1" points="214.58 151.89 180.98 151.89 193.51 120.05 197.78 107.74 202.05 120.05 214.58 151.89"/><polygon class="cls-1" points="240.66 218.86 154.65 218.86 162.61 198.68 162.67 198.54 232.65 198.54 240.66 218.86"/><path class="cls-1" d="M834,442.45v48.82H760.35V668.92H713.11V564.66l-57.54,88.68-3.25,5.28-3.52-5.28L592,564.66V668.92H544.79V495a144.51,144.51,0,0,1-14.56.69c-32.11,0-57.52-9.21-78.18-20.66l15.19-45.56c19.93,10.72,43.32,15.94,64.23,15.94,9.21,0,18.92-1,18.92-5.47,0-14-74.5-3.47-88.56-49.41.59.05,1.17.07,1.78.07a25.74,25.74,0,0,0,7-50.53C484.14,323,509.07,315,539.19,315a168.57,168.57,0,0,1,67.47,13.94q-9.74,22.69-19.49,45.37l-.14.32c-7.25-4.21-26.27-13.88-50.58-10.35-3.72.55-16.68,2.42-16.68,5.73,0,9.53,34.26,6.84,61.15,18.38,8.87,3.81,16.94,9.16,22.72,17a44.43,44.43,0,0,1,7.47,16.43,25.22,25.22,0,0,0-6.69-.89,24.17,24.17,0,0,0-4,.34,25.75,25.75,0,0,0-5,49.51c.52.2,1,.37,1.6.53-.12,1.21-.25,2.42-.37,3.63-8.45,8-19.79,13.57-32.89,16.89h31.59l.52.73.74,1,55.78,87.94,56.27-87.94.75-1,.21-.3.3-.43h36.64L697.35,381.2V380l-27.7-62.37,27.7.34H758.6V442.45Z" transform="translate(-442.95 -273.67)"/><path class="cls-2" d="M483,364.86a19.34,19.34,0,0,1-19.34,19.34,18.17,18.17,0,0,1-3.33-.3,19.33,19.33,0,1,1,22.67-19Z" transform="translate(-442.95 -273.67)"/><path class="cls-2" d="M623.75,446.64A19.31,19.31,0,0,1,604.42,466h-.28a19.32,19.32,0,0,1-2.76-38.4A19,19,0,0,1,612.3,429,19.29,19.29,0,0,1,623.75,446.64Z" transform="translate(-442.95 -273.67)"/><path class="cls-2" d="M1245.49,403.83a19.34,19.34,0,0,1-19.33,19.33c-.21,0-.41,0-.62,0a19.32,19.32,0,0,1,0-38.62c.21,0,.41,0,.62,0A19.34,19.34,0,0,1,1245.49,403.83Z" transform="translate(-442.95 -273.67)"/><path class="cls-1" d="M460.81,275.9a11.9,11.9,0,0,0-7.48-2.18H443v26.14h4.41V292h6a13.08,13.08,0,0,0,6-1.22,7.36,7.36,0,0,0,3.35-3.41,10.16,10.16,0,0,0,1.06-4.75C463.72,279.59,462.77,277.35,460.81,275.9ZM453.16,288h-5.8V277.69h5.8c4.19,0,6.31,1.67,6.31,5C459.47,286.23,457.35,288,453.16,288Z" transform="translate(-442.95 -273.67)"/><path class="cls-1" d="M483.77,291.09c3.63-1.45,5.41-4.24,5.41-8.49a8.93,8.93,0,0,0-1.34-5.13,8.53,8.53,0,0,0-3.91-2.91,15.63,15.63,0,0,0-5.25-.84H468.07v26.14h4.42V292c4.69,0,7.14-.05,7.37-.05l4.8,7.93h5ZM478.68,288h-6.19V277.69h6.19c4.19,0,6.31,1.67,6.31,5C485,286.23,482.87,288,478.68,288Z" transform="translate(-442.95 -273.67)"/><rect class="cls-1" x="52.11" y="0.04" width="4.41" height="26.14"/><polygon class="cls-1" points="91.62 26.17 87.55 26.17 87.51 6.57 78.92 23.45 76.12 23.45 67.46 6.57 67.46 26.17 63.39 26.17 63.39 0.04 68.5 0.04 77.54 17.51 86.5 0.04 91.62 0.04 91.62 26.17"/><polygon class="cls-1" points="117.6 26.17 98.48 26.17 98.48 0.04 117.15 0.04 117.15 4 102.89 4 102.89 11.09 115.66 11.09 115.66 15.01 102.89 15.01 102.89 22.21 117.6 22.21 117.6 26.17"/><path class="cls-1" d="M581.65,291.09c3.58-1.45,5.42-4.24,5.42-8.49a8.94,8.94,0,0,0-1.4-5.13,8.63,8.63,0,0,0-3.85-2.91,16,16,0,0,0-5.3-.84H565.91v26.14h4.41V292c4.69,0,7.15-.05,7.37-.05l4.8,7.93h5ZM576.52,288h-6.2V277.69h6.2q6.36,0,6.36,5C582.88,286.23,580.76,288,576.52,288Z" transform="translate(-442.95 -273.67)"/><path class="cls-1" d="M615.54,299.86a13.36,13.36,0,0,1-9.65-3.81,12.5,12.5,0,0,1-3.94-9.33,12.26,12.26,0,0,1,4-9.27,14,14,0,0,1,19.71.62l-2.57,3.06a10,10,0,0,0-7.28-3.48,9.32,9.32,0,0,0-6.65,2.53,8.52,8.52,0,0,0-2.69,6.5,9.19,9.19,0,0,0,2.47,6.25,8.71,8.71,0,0,0,2.94,2,9.77,9.77,0,0,0,3.93.75,10.78,10.78,0,0,0,7.28-3l2.61,2.77A14.21,14.21,0,0,1,615.54,299.86Z" transform="translate(-442.95 -273.67)"/><path class="cls-1" d="M651.12,277.47a13.71,13.71,0,0,0-9.88-3.8,13.88,13.88,0,0,0-9.83,3.74,12.2,12.2,0,0,0-4,9.32,12.39,12.39,0,0,0,4,9.33,14.68,14.68,0,0,0,19.71,0,12.33,12.33,0,0,0,4-9.33A12.11,12.11,0,0,0,651.12,277.47Zm-1.28,13.17a8.59,8.59,0,0,1-2.18,2.85,9,9,0,0,1-3,1.79,10.26,10.26,0,0,1-3.41.61,9.24,9.24,0,0,1-6.53-2.62,8.27,8.27,0,0,1-2.85-6.54,8.41,8.41,0,0,1,2.79-6.53,9.66,9.66,0,0,1,6.59-2.51,9.22,9.22,0,0,1,6.54,2.57,8.4,8.4,0,0,1,2.79,6.47A9.57,9.57,0,0,1,649.84,290.64Z" transform="translate(-442.95 -273.67)"/><polygon class="cls-1" points="239.54 26.17 235.21 26.17 221.28 7.36 221.28 26.17 216.88 26.17 216.88 0.04 221.21 0.04 235.21 18.93 235.21 0.04 239.54 0.04 239.54 26.17"/><path class="cls-1" d="M701,299.86a13.59,13.59,0,0,1-9.79-3.79,12.41,12.41,0,0,1-3.95-9.32,12.14,12.14,0,0,1,4-9.29,14.09,14.09,0,0,1,10-3.75,15.41,15.41,0,0,1,10,3.65l-2.5,3.18a11.42,11.42,0,0,0-7.54-2.91,10.55,10.55,0,0,0-3.57.61,9.29,9.29,0,0,0-3,1.8,8.73,8.73,0,0,0-2.12,2.88,9.07,9.07,0,0,0-.78,3.83,8.59,8.59,0,0,0,1.34,4.83,9.23,9.23,0,0,0,3.52,3.19,10,10,0,0,0,4.7,1.13,12,12,0,0,0,6-1.79l0-5.53h-6.35v-3.84h10.27l0,11.72A17.09,17.09,0,0,1,701,299.86Z" transform="translate(-442.95 -273.67)"/><path class="cls-1" d="M733.09,291.09c3.58-1.45,5.42-4.24,5.42-8.49a8.94,8.94,0,0,0-1.4-5.13,8.5,8.5,0,0,0-3.9-2.91,15.67,15.67,0,0,0-5.25-.84H717.35v26.14h4.41V292c4.69,0,7.15-.05,7.43-.05l4.74,7.93h5ZM728,288h-6.2V277.69H728q6.36,0,6.36,5C734.32,286.23,732.2,288,728,288Z" transform="translate(-442.95 -273.67)"/><polygon class="cls-1" points="320.52 26.17 301.4 26.17 301.4 0.04 320.07 0.04 320.07 4 305.81 4 305.81 11.09 318.58 11.09 318.58 15.01 305.81 15.01 305.81 22.21 320.52 22.21 320.52 26.17"/><path class="cls-1" d="M777.05,299.86a14.84,14.84,0,0,1-10.67-4.18l1.9-3.63q4.49,3.7,8.85,3.7a6.08,6.08,0,0,0,3.7-.92,2.81,2.81,0,0,0,1.19-2.28,3,3,0,0,0-1.75-2.76,13.77,13.77,0,0,0-1.8-.78c-.62-.22-1.38-.44-2.27-.67a23,23,0,0,1-4.86-1.78,7.56,7.56,0,0,1-2.5-2.15,6.7,6.7,0,0,1-.93-3.56,6.06,6.06,0,0,1,2.72-5.29,11.74,11.74,0,0,1,6.8-1.87,15.57,15.57,0,0,1,9.15,2.72l-1.83,4a15,15,0,0,0-7.66-2.58,6.43,6.43,0,0,0-3,.64,2.17,2.17,0,0,0-1.21,2.09,2.92,2.92,0,0,0,1.32,2.42,13.38,13.38,0,0,0,4.43,1.75,15.47,15.47,0,0,1,6.57,3.06,6.77,6.77,0,0,1,1.75,4.62,6.32,6.32,0,0,1-1.32,4.1,8.42,8.42,0,0,1-3.75,2.54A14.75,14.75,0,0,1,777.05,299.86Z" transform="translate(-442.95 -273.67)"/><path class="cls-1" d="M813.62,277.47a13.73,13.73,0,0,0-9.89-3.8,13.9,13.9,0,0,0-9.83,3.74,12.2,12.2,0,0,0-4,9.32,12.39,12.39,0,0,0,4,9.33,14.69,14.69,0,0,0,19.72,0,12.55,12.55,0,0,0,4-9.33A12.11,12.11,0,0,0,813.62,277.47Zm-1.34,13.17a7.75,7.75,0,0,1-2.13,2.85,9.11,9.11,0,0,1-3,1.79,9.66,9.66,0,0,1-3.35.61,9.49,9.49,0,0,1-6.59-2.62,8.92,8.92,0,0,1,0-13.07,9.55,9.55,0,0,1,6.59-2.51,9.2,9.2,0,0,1,6.53,2.57,8.35,8.35,0,0,1,2.74,6.47A8.81,8.81,0,0,1,812.28,290.64Z" transform="translate(-442.95 -273.67)"/><polygon class="cls-1" points="413.22 26.17 408.89 26.17 394.97 7.36 394.97 26.17 390.56 26.17 390.56 0.04 394.89 0.04 408.89 18.93 408.89 0.04 413.22 0.04 413.22 26.17"/><path class="cls-1" d="M875.71,273.72h-4.47l-11.55,26.14h4.57l2.52-5.92H880l2.51,5.92h4.69ZM868.4,290l5-11.62L878.28,290Z" transform="translate(-442.95 -273.67)"/><path class="cls-1" d="M901.39,299.86a13.38,13.38,0,0,1-9.66-3.81,12.53,12.53,0,0,1-3.94-9.33,12.26,12.26,0,0,1,4-9.27,14,14,0,0,1,19.72.62l-2.58,3.06a9.94,9.94,0,0,0-7.28-3.48,9.33,9.33,0,0,0-6.65,2.53,8.51,8.51,0,0,0-2.68,6.5,9.14,9.14,0,0,0,.63,3.35,8.94,8.94,0,0,0,1.84,2.9,8.67,8.67,0,0,0,2.93,2,9.77,9.77,0,0,0,3.93.75,10.78,10.78,0,0,0,7.28-3l2.61,2.77A14.2,14.2,0,0,1,901.39,299.86Z" transform="translate(-442.95 -273.67)"/><rect class="cls-1" x="473.04" y="0.04" width="4.41" height="26.14"/><path class="cls-1" d="M948.81,277.47a13.73,13.73,0,0,0-9.89-3.8,13.9,13.9,0,0,0-9.83,3.74,12.2,12.2,0,0,0-4,9.32,12.39,12.39,0,0,0,4,9.33,14.69,14.69,0,0,0,19.72,0,12.33,12.33,0,0,0,4-9.33A12.11,12.11,0,0,0,948.81,277.47Zm-1.34,13.17a7.75,7.75,0,0,1-2.13,2.85,9.49,9.49,0,0,1-3,1.79,10.26,10.26,0,0,1-3.41.61,9.49,9.49,0,0,1-6.59-2.62,8.92,8.92,0,0,1,0-13.07,9.66,9.66,0,0,1,6.59-2.51,9.2,9.2,0,0,1,6.53,2.57,8.35,8.35,0,0,1,2.74,6.47A8.68,8.68,0,0,1,947.47,290.64Z" transform="translate(-442.95 -273.67)"/><polygon class="cls-1" points="537.22 26.17 532.89 26.17 518.96 7.36 518.96 26.17 514.55 26.17 514.55 0.04 518.89 0.04 532.89 18.93 532.89 0.04 537.22 0.04 537.22 26.17"/><path class="cls-1" d="M999.73,273.72h-4.52l-11.56,26.14h4.58l2.51-5.92h13.18l2.51,5.92h4.75ZM992.42,290l4.91-11.62,4.92,11.62Z" transform="translate(-442.95 -273.67)"/><polygon class="cls-1" points="587.4 26.17 571.68 26.17 571.68 0.04 576.09 0.04 576.09 22.18 587.4 22.18 587.4 26.17"/><path class="cls-1" d="M1066.18,277.41a13.37,13.37,0,0,0-9.71-3.69h-10.72v26.14h10.61a13.37,13.37,0,0,0,9.82-3.74,13.42,13.42,0,0,0,0-18.71Zm-3.29,16a8.74,8.74,0,0,1-6.31,2.51h-6.42v-18.2h6.25a9,9,0,0,1,6.42,2.46,8.37,8.37,0,0,1,2.74,6.64A8.49,8.49,0,0,1,1062.89,293.38Z" transform="translate(-442.95 -273.67)"/><polygon class="cls-1" points="650.87 26.17 631.75 26.17 631.75 0.04 650.42 0.04 650.42 4 636.16 4 636.16 11.09 648.93 11.09 648.93 15.01 636.16 15.01 636.16 22.21 650.87 22.21 650.87 26.17"/><path class="cls-1" d="M1235.1,533.27l-.17.5h.56v-1.45Zm-53.77,130.61-2,5h4.46V658Z" transform="translate(-442.95 -273.67)"/><path class="cls-1" d="M1181.33,663.88l-2,5h4.46V658Zm53.77-130.61-.17.5h.56v-1.45Zm141.39,131.12v4.52h1.79Z" transform="translate(-442.95 -273.67)"/><polygon class="cls-1" points="982.29 353.29 982.29 218.13 933.56 218.13 933.56 395.25 1056.66 395.25 1056.66 353.29 982.29 353.29"/><path class="cls-2" d="M956.57,485.7a17.28,17.28,0,0,1-.34,3.46,13.8,13.8,0,0,1-.67,2.62,5.53,5.53,0,0,1-.39,1.06l-.16.39A19.3,19.3,0,0,1,920.27,495a20.76,20.76,0,0,1-.89-1.9l-.11-.28c-.11-.33-.28-.67-.39-1.06a19,19,0,0,1-.67-2.62,23.18,23.18,0,0,1-.28-3.46,19.32,19.32,0,1,1,38.64,0Z" transform="translate(-442.95 -273.67)"/><path class="cls-2" d="M1420.72,435.44a28,28,0,1,0,8.21,19.77A28,28,0,0,0,1420.72,435.44Zm-19.83,40.65a20.86,20.86,0,1,1,20.89-20.88A20.88,20.88,0,0,1,1400.89,476.09Z" transform="translate(-442.95 -273.67)"/><polygon class="cls-1" points="792.57 258.67 792.57 259.61 792.18 259.61 792.57 258.67"/></svg>