<svg id="Layer_2" data-name="Layer 2" xmlns="http://www.w3.org/2000/svg" viewBox="0 0 634.74 265.31"><defs><style>.cls-1{fill:#192a51;}</style></defs><title>logo congreso completo azul</title><path class="cls-1" d="M136,275.59a5,5,0,0,0,3.23-5.08,5.26,5.26,0,0,0-.82-3.08,4.93,4.93,0,0,0-2.31-1.73,9.21,9.21,0,0,0-3.17-.53h-6.34v15.64h2.63V276.1c2.81,0,4.28,0,4.43,0l2.86,4.73h3ZM133,273.73h-3.71v-6.19H133c2.54,0,3.8,1,3.8,3S135.5,273.73,133,273.73Z" transform="translate(-65.66 -17.98)"/><path class="cls-1" d="M153.3,265.17v9.1a4,4,0,0,1-1.17,3.16,4.32,4.32,0,0,1-2.9,1,4.4,4.4,0,0,1-2.93-1,3.93,3.93,0,0,1-1.2-3.16v-9.1h-2.63v9.12a7.39,7.39,0,0,0,.73,3.34,5.49,5.49,0,0,0,2.25,2.33,8.76,8.76,0,0,0,7.53,0,5.51,5.51,0,0,0,2.26-2.41,7.72,7.72,0,0,0,.7-3.28v-9.12Z" transform="translate(-65.66 -17.98)"/><path class="cls-1" d="M170.45,266.48a7.12,7.12,0,0,0-4.48-1.31h-6.23v15.64h2.64V276.1H166a7.43,7.43,0,0,0,3.57-.73,4.72,4.72,0,0,0,2-2,6.6,6.6,0,0,0,.6-2.84A4.75,4.75,0,0,0,170.45,266.48Zm-4.59,7.25h-3.48v-6.19h3.48c2.52,0,3.77,1,3.77,3S168.38,273.73,165.86,273.73Z" transform="translate(-65.66 -17.98)"/><polygon class="cls-1" points="107.26 247.19 107.26 249.56 112.2 249.56 112.2 262.83 114.84 262.83 114.84 249.56 119.8 249.56 119.8 247.19 107.26 247.19"/><path class="cls-1" d="M198.24,265.17v9.1a4,4,0,0,1-1.17,3.16,4.32,4.32,0,0,1-2.9,1,4.38,4.38,0,0,1-2.93-1,3.93,3.93,0,0,1-1.21-3.16v-9.1H187.4v9.12a7.39,7.39,0,0,0,.74,3.34,5.47,5.47,0,0,0,2.24,2.33,8.79,8.79,0,0,0,7.54,0,5.43,5.43,0,0,0,2.25-2.41,7.57,7.57,0,0,0,.71-3.28v-9.12Z" transform="translate(-65.66 -17.98)"/><path class="cls-1" d="M214.08,275.59a5,5,0,0,0,3.24-5.08,5.26,5.26,0,0,0-.82-3.08,5,5,0,0,0-2.32-1.73,9.15,9.15,0,0,0-3.16-.53h-6.34v15.64h2.63V276.1c2.8,0,4.27,0,4.42,0l2.86,4.73h3ZM211,273.73h-3.71v-6.19H211c2.53,0,3.8,1,3.8,3S213.55,273.73,211,273.73Z" transform="translate(-65.66 -17.98)"/><path class="cls-1" d="M228.4,265.17h-2.7l-6.9,15.64h2.74l1.5-3.52h7.89l1.5,3.52h2.82ZM224,274.94l3-6.95,3,6.95Z" transform="translate(-65.66 -17.98)"/><path class="cls-1" d="M247,273.63A9.22,9.22,0,0,0,243,271.8a7.77,7.77,0,0,1-2.63-1.05,1.73,1.73,0,0,1-.8-1.45,1.32,1.32,0,0,1,.72-1.26,4,4,0,0,1,1.82-.37,9,9,0,0,1,4.59,1.54l1.09-2.41a9.2,9.2,0,0,0-5.48-1.64,6.92,6.92,0,0,0-4.06,1.13,3.59,3.59,0,0,0-1.63,3.16,4.08,4.08,0,0,0,.55,2.14,4.56,4.56,0,0,0,1.5,1.27,13.68,13.68,0,0,0,2.91,1.07c.53.14,1,.27,1.36.4a7.37,7.37,0,0,1,1.07.47,1.75,1.75,0,0,1,1.06,1.66,1.67,1.67,0,0,1-.72,1.35,3.59,3.59,0,0,1-2.21.55,8.36,8.36,0,0,1-5.3-2.21l-1.14,2.17a8.89,8.89,0,0,0,6.39,2.5,8.72,8.72,0,0,0,2.87-.46,4.83,4.83,0,0,0,2.24-1.52,3.74,3.74,0,0,0,.79-2.45A4,4,0,0,0,247,273.63Z" transform="translate(-65.66 -17.98)"/><path class="cls-1" d="M252.62,278.73a1.17,1.17,0,0,0-.52-.47,1.43,1.43,0,0,0-.64-.15,1.37,1.37,0,0,0-1,.39,1.41,1.41,0,0,0-.4,1.05,1.34,1.34,0,0,0,.67,1.2l-.89,2.54h1.32l1.32-2.67a2.58,2.58,0,0,0,.33-1.07A1.45,1.45,0,0,0,252.62,278.73Z" transform="translate(-65.66 -17.98)"/><path class="cls-1" d="M273.89,276.56a6.39,6.39,0,0,1-4.35,1.78,6,6,0,0,1-2.35-.44,5.24,5.24,0,0,1-2.85-2.95,5.35,5.35,0,0,1-.38-2,5.12,5.12,0,0,1,1.6-3.9,5.61,5.61,0,0,1,4-1.51,5.89,5.89,0,0,1,4.35,2.09l1.55-1.83a8.35,8.35,0,0,0-11.79-.38,7.35,7.35,0,0,0-2.38,5.55,7.48,7.48,0,0,0,2.37,5.59,7.94,7.94,0,0,0,5.76,2.27,8.54,8.54,0,0,0,6.07-2.6Z" transform="translate(-65.66 -17.98)"/><path class="cls-1" d="M290.72,267.43a8.87,8.87,0,0,0-11.83,0,7.3,7.3,0,0,0-2.38,5.55,7.4,7.4,0,0,0,2.4,5.58,8.77,8.77,0,0,0,11.8,0,7.45,7.45,0,0,0,2.38-5.58A7.32,7.32,0,0,0,290.72,267.43Zm-.8,7.88a5.07,5.07,0,0,1-1.28,1.72,5.6,5.6,0,0,1-1.8,1.05,5.86,5.86,0,0,1-2,.36,5.61,5.61,0,0,1-3.93-1.57,5.32,5.32,0,0,1,0-7.8,5.72,5.72,0,0,1,3.93-1.52,5.6,5.6,0,0,1,3.92,1.54,5.07,5.07,0,0,1,1.65,3.87A5.6,5.6,0,0,1,289.92,275.31Z" transform="translate(-65.66 -17.98)"/><polygon class="cls-1" points="241.22 247.19 241.22 258.5 232.85 247.19 230.25 247.19 230.25 262.83 232.89 262.83 232.89 251.57 241.22 262.83 243.82 262.83 243.82 247.19 241.22 247.19"/><polygon class="cls-1" points="246.09 247.19 246.09 249.56 251.03 249.56 251.03 262.83 253.67 262.83 253.67 249.56 258.63 249.56 258.63 247.19 246.09 247.19"/><rect class="cls-1" x="260.89" y="247.19" width="2.64" height="15.64"/><polygon class="cls-1" points="278.6 247.19 278.6 258.5 270.23 247.19 267.63 247.19 267.63 262.83 270.27 262.83 270.27 251.57 278.6 262.83 281.2 262.83 281.2 247.19 278.6 247.19"/><path class="cls-1" d="M361.51,265.17v9.1a4,4,0,0,1-1.17,3.16,4.26,4.26,0,0,1-2.89,1,4.43,4.43,0,0,1-2.94-1,3.93,3.93,0,0,1-1.19-3.16v-9.1h-2.64v9.12a7.26,7.26,0,0,0,.75,3.34,5.44,5.44,0,0,0,2.23,2.33,7.49,7.49,0,0,0,3.79.86,7.4,7.4,0,0,0,3.74-.84,5.46,5.46,0,0,0,2.26-2.41,7.57,7.57,0,0,0,.7-3.28v-9.12Z" transform="translate(-65.66 -17.98)"/><rect class="cls-1" x="302.29" y="247.19" width="2.64" height="15.64"/><path class="cls-1" d="M386.93,267.38a8.11,8.11,0,0,0-5.82-2.21h-6.4v15.64h6.34a8.05,8.05,0,0,0,5.86-2.21A7.4,7.4,0,0,0,389.2,273,7.49,7.49,0,0,0,386.93,267.38ZM385,277a5.32,5.32,0,0,1-3.78,1.49h-3.85V267.54h3.73a5.48,5.48,0,0,1,3.85,1.48,5.09,5.09,0,0,1,1.62,4A5.17,5.17,0,0,1,385,277Z" transform="translate(-65.66 -17.98)"/><path class="cls-1" d="M399.19,265.17h-2.7l-6.9,15.64h2.74l1.5-3.52h7.89l1.49,3.52H406Zm-4.38,9.77,2.95-6.95,3,6.95Z" transform="translate(-65.66 -17.98)"/><path class="cls-1" d="M420.34,267.38a8.08,8.08,0,0,0-5.81-2.21h-6.42v15.64h6.34a8.06,8.06,0,0,0,5.87-2.21,7.44,7.44,0,0,0,2.29-5.61A7.53,7.53,0,0,0,420.34,267.38Zm-2,9.58a5.34,5.34,0,0,1-3.79,1.49h-3.84V267.54h3.73a5.55,5.55,0,0,1,3.86,1.48,5.75,5.75,0,0,1,0,7.94Z" transform="translate(-65.66 -17.98)"/><polygon class="cls-1" points="362.4 260.47 362.4 256.16 370.04 256.16 370.04 253.81 362.4 253.81 362.4 249.56 370.95 249.56 370.95 247.19 359.77 247.19 359.77 262.83 371.21 262.83 371.21 260.47 362.4 260.47"/><path class="cls-1" d="M449.86,273.63a9.22,9.22,0,0,0-3.94-1.83,7.91,7.91,0,0,1-2.65-1.05,1.77,1.77,0,0,1-.79-1.45,1.33,1.33,0,0,1,.72-1.26,4,4,0,0,1,1.82-.37,9,9,0,0,1,4.59,1.54l1.1-2.41a9.27,9.27,0,0,0-5.48-1.64,6.93,6.93,0,0,0-4.07,1.13,3.61,3.61,0,0,0-1.63,3.16,4,4,0,0,0,.56,2.14,4.35,4.35,0,0,0,1.5,1.27,13.54,13.54,0,0,0,2.9,1.07c.53.14,1,.27,1.36.4a8,8,0,0,1,1.08.47,1.76,1.76,0,0,1,1,1.66,1.63,1.63,0,0,1-.71,1.35,3.61,3.61,0,0,1-2.22.55,8.3,8.3,0,0,1-5.28-2.21l-1.15,2.17a8.88,8.88,0,0,0,6.39,2.5,8.76,8.76,0,0,0,2.87-.46,4.83,4.83,0,0,0,2.24-1.52,3.74,3.74,0,0,0,.79-2.45A4.08,4.08,0,0,0,449.86,273.63Z" transform="translate(-65.66 -17.98)"/><polygon class="cls-1" points="404.51 247.19 400.12 254.81 395.65 247.19 393 247.19 398.83 257.71 398.83 262.83 401.44 262.83 401.44 257.63 407.19 247.19 404.51 247.19"/><polygon class="cls-1" points="426.94 247.19 426.94 258.5 418.56 247.19 415.97 247.19 415.97 262.83 418.61 262.83 418.61 251.57 426.94 262.83 429.54 262.83 429.54 247.19 426.94 247.19"/><path class="cls-1" d="M509.85,265.17v9.1a4,4,0,0,1-1.17,3.16,4.32,4.32,0,0,1-2.9,1,4.4,4.4,0,0,1-2.93-1,3.93,3.93,0,0,1-1.19-3.16v-9.1H499v9.12a7.39,7.39,0,0,0,.73,3.34A5.49,5.49,0,0,0,502,280a8.76,8.76,0,0,0,7.53,0,5.51,5.51,0,0,0,2.26-2.41,7.72,7.72,0,0,0,.7-3.28v-9.12Z" transform="translate(-65.66 -17.98)"/><polygon class="cls-1" points="453.26 260.47 453.26 256.16 460.91 256.16 460.91 253.81 453.26 253.81 453.26 249.56 461.8 249.56 461.8 247.19 450.63 247.19 450.63 262.83 462.07 262.83 462.07 260.47 453.26 260.47"/><polygon class="cls-1" points="475.84 247.19 470.96 259.91 466.13 247.19 463.3 247.19 469.54 262.83 472.26 262.83 478.58 247.19 475.84 247.19"/><path class="cls-1" d="M559,267.43a8.86,8.86,0,0,0-11.82,0,7.26,7.26,0,0,0-2.38,5.55,7.39,7.39,0,0,0,2.39,5.58,8.77,8.77,0,0,0,11.8,0,7.43,7.43,0,0,0,2.39-5.58A7.33,7.33,0,0,0,559,267.43Zm-.8,7.88A4.94,4.94,0,0,1,556.9,277a5.62,5.62,0,0,1-1.78,1.05,6,6,0,0,1-2,.36,5.61,5.61,0,0,1-3.93-1.57,5.36,5.36,0,0,1,0-7.8,5.76,5.76,0,0,1,3.94-1.52,5.56,5.56,0,0,1,3.91,1.54,5,5,0,0,1,1.66,3.87A5.45,5.45,0,0,1,558.18,275.31Z" transform="translate(-65.66 -17.98)"/><path class="cls-1" d="M573.94,273.63A9.22,9.22,0,0,0,570,271.8a7.93,7.93,0,0,1-2.64-1.05,1.75,1.75,0,0,1-.79-1.45,1.32,1.32,0,0,1,.72-1.26,4,4,0,0,1,1.82-.37,9,9,0,0,1,4.59,1.54l1.09-2.41a9.2,9.2,0,0,0-5.48-1.64,6.89,6.89,0,0,0-4.06,1.13,3.59,3.59,0,0,0-1.63,3.16,4.08,4.08,0,0,0,.55,2.14,4.56,4.56,0,0,0,1.5,1.27,13.47,13.47,0,0,0,2.91,1.07c.53.14,1,.27,1.36.4a7.88,7.88,0,0,1,1.07.47,1.75,1.75,0,0,1,1.06,1.66,1.65,1.65,0,0,1-.73,1.35,3.54,3.54,0,0,1-2.2.55,8.36,8.36,0,0,1-5.3-2.21l-1.14,2.17a8.89,8.89,0,0,0,6.39,2.5,8.76,8.76,0,0,0,2.87-.46,4.88,4.88,0,0,0,2.24-1.52,3.74,3.74,0,0,0,.79-2.45A4,4,0,0,0,573.94,273.63Z" transform="translate(-65.66 -17.98)"/><path class="cls-1" d="M597,267.38a8.06,8.06,0,0,0-5.81-2.21h-6.41v15.64h6.35A8.05,8.05,0,0,0,597,278.6a8.05,8.05,0,0,0,0-11.22ZM595,277a5.3,5.3,0,0,1-3.78,1.49h-3.85V267.54h3.74A5.49,5.49,0,0,1,595,269a5.08,5.08,0,0,1,1.61,4A5.17,5.17,0,0,1,595,277Z" transform="translate(-65.66 -17.98)"/><polygon class="cls-1" points="539.08 260.47 539.08 256.16 546.72 256.16 546.72 253.81 539.08 253.81 539.08 249.56 547.61 249.56 547.61 247.19 536.44 247.19 536.44 262.83 547.88 262.83 547.88 260.47 539.08 260.47"/><path class="cls-1" d="M626.52,273.63a9.23,9.23,0,0,0-3.93-1.83,7.82,7.82,0,0,1-2.65-1.05,1.76,1.76,0,0,1-.8-1.45,1.33,1.33,0,0,1,.73-1.26,4,4,0,0,1,1.83-.37,9,9,0,0,1,4.57,1.54l1.1-2.41a9.19,9.19,0,0,0-5.47-1.64,7,7,0,0,0-4.08,1.13,3.6,3.6,0,0,0-1.62,3.16,4.09,4.09,0,0,0,.56,2.14,4.21,4.21,0,0,0,1.49,1.27,14,14,0,0,0,2.9,1.07c.55.14,1,.27,1.37.4a7.88,7.88,0,0,1,1.07.47,1.76,1.76,0,0,1,1,1.66,1.66,1.66,0,0,1-.71,1.35,3.59,3.59,0,0,1-2.21.55,8.34,8.34,0,0,1-5.3-2.21l-1.14,2.17a8.9,8.9,0,0,0,6.4,2.5,8.75,8.75,0,0,0,2.86-.46,4.8,4.8,0,0,0,2.23-1.52,3.74,3.74,0,0,0,.8-2.45A4,4,0,0,0,626.52,273.63Z" transform="translate(-65.66 -17.98)"/><path class="cls-1" d="M638.1,265.17h-2.71l-6.91,15.64h2.75l1.5-3.52h7.89l1.5,3.52h2.82Zm-4.39,9.77,3-6.95,2.94,6.95Z" transform="translate(-65.66 -17.98)"/><polygon class="cls-1" points="591.83 249.56 591.85 247.19 581.35 247.19 581.35 262.83 583.99 262.83 583.99 256.43 591.1 256.43 591.1 254.08 583.99 254.08 583.99 249.56 591.83 249.56"/><path class="cls-1" d="M659.86,265.17v15.64h2.64V265.17Zm2.21-4.6-2.21,3.09,2.12.22,2.73-2.19Z" transform="translate(-65.66 -17.98)"/><path class="cls-1" d="M679.51,267.43a8.84,8.84,0,0,0-11.81,0,7.24,7.24,0,0,0-2.39,5.55,7.4,7.4,0,0,0,2.4,5.58,8.76,8.76,0,0,0,11.79,0,7.39,7.39,0,0,0,2.39-5.58A7.3,7.3,0,0,0,679.51,267.43Zm-.8,7.88a4.8,4.8,0,0,1-1.27,1.72,5.67,5.67,0,0,1-1.79,1.05,5.9,5.9,0,0,1-2,.36,5.63,5.63,0,0,1-3.94-1.57,5.36,5.36,0,0,1,0-7.8,5.78,5.78,0,0,1,4-1.52,5.58,5.58,0,0,1,3.91,1.54,5.07,5.07,0,0,1,1.65,3.87A5.45,5.45,0,0,1,678.71,275.31Z" transform="translate(-65.66 -17.98)"/><path class="cls-1" d="M694.47,273.63a9.23,9.23,0,0,0-3.93-1.83,7.84,7.84,0,0,1-2.64-1.05,1.73,1.73,0,0,1-.8-1.45,1.31,1.31,0,0,1,.73-1.26,3.93,3.93,0,0,1,1.82-.37,9,9,0,0,1,4.58,1.54l1.09-2.41a9.17,9.17,0,0,0-5.47-1.64,6.93,6.93,0,0,0-4.07,1.13,3.59,3.59,0,0,0-1.63,3.16,4.09,4.09,0,0,0,.56,2.14,4.4,4.4,0,0,0,1.49,1.27,14.14,14.14,0,0,0,2.91,1.07c.54.14,1,.27,1.36.4a7.88,7.88,0,0,1,1.07.47,1.75,1.75,0,0,1,1.06,1.66,1.68,1.68,0,0,1-.71,1.35,3.63,3.63,0,0,1-2.22.55,8.36,8.36,0,0,1-5.3-2.21l-1.14,2.17a8.92,8.92,0,0,0,6.4,2.5,8.66,8.66,0,0,0,2.86-.46,4.83,4.83,0,0,0,2.24-1.52,3.74,3.74,0,0,0,.79-2.45A4,4,0,0,0,694.47,273.63Z" transform="translate(-65.66 -17.98)"/><path class="cls-1" d="M700.19,278.51a1.36,1.36,0,0,0-.53-.48,1.54,1.54,0,0,0-.67-.16,1.62,1.62,0,0,0-.68.16,1.4,1.4,0,0,0-.52.48,1.49,1.49,0,0,0-.21.82,1.52,1.52,0,0,0,.4,1.09,1.35,1.35,0,0,0,1,.4,1.28,1.28,0,0,0,1-.4,1.45,1.45,0,0,0,.42-1.09A1.58,1.58,0,0,0,700.19,278.51Z" transform="translate(-65.66 -17.98)"/><path class="cls-1" d="M624.29,251.53,582.49,150l-.6-1.5H485.54c25.29-2,42.3-16,47.69-37.29a15.41,15.41,0,0,1,0-30.72c-6-23.26-26.31-36.74-56.41-36.74H427V214.68l-45.72-65.11-.57-.8v-1c19.3-5,33.68-18.54,33.68-44v-60H377.76V104c0,9.4-6.41,14.76-15.95,14.76s-16.09-5.36-16.09-14.76V43.77H309.06v60c0,25.28,14.15,38.84,33.39,43.87v25.7h-56.4v15.23h51.16V214H286.05v15.37h56.4v25.19h36.31V188.21l45.86,65.26.76,1.06h30.37V173.64h23.08v80.89H506.4l1.2-3,1.45-3.51V173.64h30.62l.12-.29.24-.56v.85h-.36L509.05,248v6.51h28.18l.59-1.5,6.92-17.59h42.41L594.06,253l.61,1.5h29.74v-2.7Zm-247.62-104s0,.1,0,.14a11.6,11.6,0,0,1-.53,2.07v.06a2.22,2.22,0,0,1-.11.3v.07l-.2.46-.06.16,0,.11a15.58,15.58,0,0,1-5.58,6.77A15.4,15.4,0,0,1,348,152.3a11.48,11.48,0,0,1-.72-1.53l0-.1v0h0v0c-.13-.3-.21-.56-.3-.79v-.06a12.53,12.53,0,0,1-.52-2.07s0-.1,0-.14a13.83,13.83,0,0,1-.25-2.65,15.41,15.41,0,0,1,30.82,0A13.82,13.82,0,0,1,376.67,147.53Zm100.88-29.06H463.69V72.7h11.63c14,0,22.79,8,22.79,23.64C498.11,112.56,488.72,118.47,477.55,118.47Zm77,94.11L566,183.25l11.27,29.33Z" transform="translate(-65.66 -17.98)"/><polygon class="cls-1" points="101.57 25.9 101.54 25.96 101.55 25.9 101.57 25.9"/><polygon class="cls-1" points="128.44 90.89 108.33 90.89 115.83 71.84 118.38 64.47 120.94 71.84 128.44 90.89"/><polygon class="cls-1" points="144.05 130.98 92.57 130.98 97.33 118.9 97.36 118.82 139.25 118.82 144.05 130.98"/><path class="cls-1" d="M299.74,119V148.2H255.63V254.53H227.36v-62.4l-34.43,53.08-2,3.16-2.11-3.16-34-53.08v62.4H126.62V150.45a85.59,85.59,0,0,1-8.71.41A94.27,94.27,0,0,1,71.12,138.5l9.09-27.27a83.34,83.34,0,0,0,38.44,9.54c5.51,0,11.32-.6,11.32-3.28,0-8.37-44.58-2.07-53-29.57.35,0,.7,0,1.07,0a15.41,15.41,0,0,0,4.17-30.24c8.12-10.21,23-15,41.06-15A100.91,100.91,0,0,1,163.65,51Q157.83,64.6,152,78.19l-.08.19c-4.35-2.53-15.73-8.31-30.28-6.2-2.22.33-10,1.45-10,3.43,0,5.7,20.51,4.1,36.6,11,5.31,2.28,10.14,5.48,13.59,10.18a26.3,26.3,0,0,1,4.47,9.83,15.08,15.08,0,0,0-4-.53,14.6,14.6,0,0,0-2.41.2,15.4,15.4,0,0,0-3,29.63,8.82,8.82,0,0,0,1,.32c-.07.73-.15,1.45-.22,2.17-5.05,4.79-11.84,8.12-19.69,10.11h18.91l.31.44.45.62L191,202.21l33.68-52.63.45-.62.12-.18.18-.26h21.94l-29.42-66.2V81.6L201.35,44.27l16.58.2h36.66V119Z" transform="translate(-65.66 -17.98)"/><path class="cls-1" d="M89.61,72.55A11.57,11.57,0,0,1,78,84.12a10.67,10.67,0,0,1-2-.18,11.57,11.57,0,0,1,2-23,11.11,11.11,0,0,1,1.83.15A11.56,11.56,0,0,1,89.61,72.55Z" transform="translate(-65.66 -17.98)"/><path class="cls-1" d="M173.88,121.49a11.56,11.56,0,0,1-11.57,11.57h-.17a11.74,11.74,0,0,1-3.9-.73,11.57,11.57,0,0,1,2.25-22.25,11,11,0,0,1,1.82-.15,11.58,11.58,0,0,1,11.57,11.56Z" transform="translate(-65.66 -17.98)"/><path class="cls-1" d="M546,95.87a11.58,11.58,0,0,1-11.57,11.57h-.37a11.57,11.57,0,0,1,0-23.12h.37A11.58,11.58,0,0,1,546,95.87Z" transform="translate(-65.66 -17.98)"/><path class="cls-1" d="M76.38,19.3A7.12,7.12,0,0,0,71.9,18H65.66V33.63H68.3V28.92h3.6a7.6,7.6,0,0,0,3.56-.73,4.48,4.48,0,0,0,2-2,6.23,6.23,0,0,0,.62-2.83A4.72,4.72,0,0,0,76.38,19.3Zm-4.59,7.25H68.3V20.36h3.49c2.51,0,3.78,1,3.78,3S74.3,26.55,71.79,26.55Z" transform="translate(-65.66 -17.98)"/><path class="cls-1" d="M90.11,28.41a5,5,0,0,0,3.24-5.08,5.35,5.35,0,0,0-.82-3.09,5,5,0,0,0-2.32-1.73A9.39,9.39,0,0,0,87.05,18H80.71V33.63h2.63V28.92c2.81,0,4.27,0,4.42,0l2.86,4.74h3Zm-3.06-1.86H83.34V20.36h3.71q3.8,0,3.8,3T87.05,26.55Z" transform="translate(-65.66 -17.98)"/><rect class="cls-1" x="31.2" y="0.01" width="2.64" height="15.64"/><polygon class="cls-1" points="54.84 15.65 52.41 15.65 52.38 3.92 47.24 14.02 45.57 14.02 40.38 3.92 40.38 15.65 37.95 15.65 37.95 0.01 41.01 0.01 46.42 10.47 51.78 0.01 54.84 0.01 54.84 15.65"/><polygon class="cls-1" points="70.39 15.65 58.95 15.65 58.95 0.01 70.13 0.01 70.13 2.38 61.59 2.38 61.59 6.63 69.23 6.63 69.23 8.97 61.59 8.97 61.59 13.29 70.39 13.29 70.39 15.65"/><path class="cls-1" d="M148.68,28.41a5,5,0,0,0,3.24-5.08,5.35,5.35,0,0,0-.82-3.09,5,5,0,0,0-2.32-1.73,9.39,9.39,0,0,0-3.16-.52h-6.34V33.63h2.62V28.92c2.81,0,4.28,0,4.43,0l2.86,4.74h3Zm-3.06-1.86H141.9V20.36h3.72q3.8,0,3.79,3T145.62,26.55Z" transform="translate(-65.66 -17.98)"/><path class="cls-1" d="M169,33.64a8,8,0,0,1-5.78-2.28,7.47,7.47,0,0,1-2.36-5.58,7.35,7.35,0,0,1,2.37-5.55,8.38,8.38,0,0,1,11.8.37l-1.54,1.83a6,6,0,0,0-4.36-2.08,5.55,5.55,0,0,0-4,1.51,5.09,5.09,0,0,0-1.61,3.9A5.48,5.48,0,0,0,165,29.5a5.08,5.08,0,0,0,1.75,1.21,5.83,5.83,0,0,0,2.35.45,6.4,6.4,0,0,0,4.36-1.79L175,31A8.54,8.54,0,0,1,169,33.64Z" transform="translate(-65.66 -17.98)"/><path class="cls-1" d="M190.28,20.24a8.89,8.89,0,0,0-11.82,0,7.31,7.31,0,0,0-2.39,5.56,7.4,7.4,0,0,0,2.4,5.58,8.77,8.77,0,0,0,11.8,0,7.7,7.7,0,0,0,0-11.12Zm-.8,7.89a4.9,4.9,0,0,1-1.28,1.71,5.47,5.47,0,0,1-1.78,1.06,6.26,6.26,0,0,1-2,.36,5.63,5.63,0,0,1-3.92-1.56,5.1,5.1,0,0,1-1.71-3.92,5,5,0,0,1,1.69-3.88,5.68,5.68,0,0,1,3.94-1.53,5.59,5.59,0,0,1,3.92,1.53A5.07,5.07,0,0,1,190,25.78,5.63,5.63,0,0,1,189.48,28.13Z" transform="translate(-65.66 -17.98)"/><polygon class="cls-1" points="143.37 15.65 140.78 15.65 132.45 4.39 132.45 15.65 129.81 15.65 129.81 0.01 132.4 0.01 140.78 11.32 140.78 0.01 143.37 0.01 143.37 15.65"/><path class="cls-1" d="M220.1,33.64a8.14,8.14,0,0,1-5.86-2.26,7.42,7.42,0,0,1-2.37-5.59,7.3,7.3,0,0,1,2.42-5.56,8.42,8.42,0,0,1,6-2.24,9.19,9.19,0,0,1,6,2.19l-1.49,1.9a6.85,6.85,0,0,0-4.52-1.74,6.16,6.16,0,0,0-2.13.37,5.25,5.25,0,0,0-3.57,5.08,5.16,5.16,0,0,0,.81,2.9,5.51,5.51,0,0,0,2.1,1.91,6,6,0,0,0,2.81.68,7.11,7.11,0,0,0,3.6-1.08l0-3.31h-3.8v-2.3h6.15l0,7A10.18,10.18,0,0,1,220.1,33.64Z" transform="translate(-65.66 -17.98)"/><path class="cls-1" d="M239.31,28.41a5,5,0,0,0,3.25-5.08,5.28,5.28,0,0,0-.83-3.09,5,5,0,0,0-2.32-1.73,9.39,9.39,0,0,0-3.16-.52H229.9V33.63h2.64V28.92c2.8,0,4.28,0,4.43,0l2.85,4.74h3Zm-3.06-1.86h-3.71V20.36h3.71q3.8,0,3.79,3T236.25,26.55Z" transform="translate(-65.66 -17.98)"/><polygon class="cls-1" points="191.84 15.65 180.4 15.65 180.4 0.01 191.57 0.01 191.57 2.38 183.04 2.38 183.04 6.63 190.68 6.63 190.68 8.97 183.04 8.97 183.04 13.29 191.84 13.29 191.84 15.65"/><path class="cls-1" d="M265.64,33.64a8.92,8.92,0,0,1-6.4-2.5L260.38,29a8.38,8.38,0,0,0,5.3,2.22,3.57,3.57,0,0,0,2.21-.56,1.66,1.66,0,0,0,.72-1.36,1.75,1.75,0,0,0-1.05-1.65,8,8,0,0,0-1.08-.47c-.37-.13-.82-.26-1.36-.4a13,13,0,0,1-2.9-1.07,4.47,4.47,0,0,1-1.5-1.28,4,4,0,0,1-.56-2.13,3.61,3.61,0,0,1,1.63-3.17A7,7,0,0,1,265.86,18a9.26,9.26,0,0,1,5.47,1.63L270.24,22a9,9,0,0,0-4.58-1.55,3.93,3.93,0,0,0-1.82.38,1.3,1.3,0,0,0-.73,1.25,1.78,1.78,0,0,0,.79,1.46,8.46,8.46,0,0,0,2.65,1.05,9.28,9.28,0,0,1,3.94,1.82,4.06,4.06,0,0,1,1,2.77,3.75,3.75,0,0,1-.79,2.45,4.93,4.93,0,0,1-2.24,1.52A8.7,8.7,0,0,1,265.64,33.64Z" transform="translate(-65.66 -17.98)"/><path class="cls-1" d="M287.53,20.24a8.89,8.89,0,0,0-11.82,0,7.31,7.31,0,0,0-2.39,5.56,7.43,7.43,0,0,0,2.39,5.58,8.77,8.77,0,0,0,11.8,0,7.68,7.68,0,0,0,0-11.12Zm-.8,7.89a5,5,0,0,1-1.28,1.71,5.45,5.45,0,0,1-1.8,1.06,6.1,6.1,0,0,1-2,.36,5.63,5.63,0,0,1-3.92-1.56A5.07,5.07,0,0,1,276,25.78a5,5,0,0,1,1.69-3.88,5.68,5.68,0,0,1,3.94-1.53,5.59,5.59,0,0,1,3.92,1.53,5.07,5.07,0,0,1,1.65,3.88A5.63,5.63,0,0,1,286.73,28.13Z" transform="translate(-65.66 -17.98)"/><polygon class="cls-1" points="247.33 15.65 244.73 15.65 236.4 4.39 236.4 15.65 233.76 15.65 233.76 0.01 236.35 0.01 244.73 11.32 244.73 0.01 247.33 0.01 247.33 15.65"/><path class="cls-1" d="M324.7,18H322l-6.9,15.64h2.74l1.5-3.53h7.89l1.5,3.53h2.82Zm-4.39,9.77,3-7,3,7Z" transform="translate(-65.66 -17.98)"/><path class="cls-1" d="M340.05,33.64a8,8,0,0,1-5.78-2.28,7.47,7.47,0,0,1-2.36-5.58,7.35,7.35,0,0,1,2.37-5.55,8.38,8.38,0,0,1,11.8.37l-1.54,1.83a6,6,0,0,0-4.36-2.08,5.59,5.59,0,0,0-4,1.51,5.12,5.12,0,0,0-1.6,3.9,5.48,5.48,0,0,0,1.48,3.74,5.08,5.08,0,0,0,1.75,1.21,5.83,5.83,0,0,0,2.35.45,6.4,6.4,0,0,0,4.36-1.79L346.1,31A8.54,8.54,0,0,1,340.05,33.64Z" transform="translate(-65.66 -17.98)"/><rect class="cls-1" x="283.12" y="0.01" width="2.64" height="15.64"/><path class="cls-1" d="M368.44,20.24a8.89,8.89,0,0,0-11.82,0,7.3,7.3,0,0,0-2.38,5.56,7.39,7.39,0,0,0,2.39,5.58,8.77,8.77,0,0,0,11.8,0,7.38,7.38,0,0,0,2.38-5.58A7.34,7.34,0,0,0,368.44,20.24Zm-.8,7.89a5,5,0,0,1-1.27,1.71,5.62,5.62,0,0,1-1.79,1.06,6.19,6.19,0,0,1-2,.36,5.66,5.66,0,0,1-3.94-1.56,5.1,5.1,0,0,1-1.71-3.92,5,5,0,0,1,1.7-3.88,5.66,5.66,0,0,1,3.95-1.53,5.56,5.56,0,0,1,3.9,1.53,5.07,5.07,0,0,1,1.65,3.88A5.48,5.48,0,0,1,367.64,28.13Z" transform="translate(-65.66 -17.98)"/><polygon class="cls-1" points="321.54 15.65 318.95 15.65 310.61 4.39 310.61 15.65 307.97 15.65 307.97 0.01 310.57 0.01 318.95 11.32 318.95 0.01 321.54 0.01 321.54 15.65"/><path class="cls-1" d="M398.91,18H396.2l-6.9,15.64H392l1.5-3.53h7.89l1.5,3.53h2.82Zm-4.38,9.77,3-7,2.95,7Z" transform="translate(-65.66 -17.98)"/><polygon class="cls-1" points="351.57 15.65 342.16 15.65 342.16 0.01 344.8 0.01 344.8 13.26 351.57 13.26 351.57 15.65"/><path class="cls-1" d="M438.68,20.2A8,8,0,0,0,432.87,18h-6.41V33.63h6.35a8.05,8.05,0,0,0,5.86-2.21A7.46,7.46,0,0,0,441,25.81,7.48,7.48,0,0,0,438.68,20.2Zm-2,9.58a5.3,5.3,0,0,1-3.79,1.48h-3.84V20.36h3.74a5.51,5.51,0,0,1,3.85,1.47,5.12,5.12,0,0,1,1.62,4A5.15,5.15,0,0,1,436.72,29.78Z" transform="translate(-65.66 -17.98)"/><polygon class="cls-1" points="389.56 15.65 378.12 15.65 378.12 0.01 389.29 0.01 389.29 2.38 380.75 2.38 380.75 6.63 388.4 6.63 388.4 8.97 380.75 8.97 380.75 13.29 389.56 13.29 389.56 15.65"/><path class="cls-1" d="M539.79,173.35l-.12.29H540v-.85ZM507.6,251.53l-1.2,3h2.65V248Z" transform="translate(-65.66 -17.98)"/><path class="cls-1" d="M507.6,251.53l-1.2,3h2.65V248Zm32.19-78.18-.12.29H540v-.85Zm84.62,78.48v2.7h1.08Z" transform="translate(-65.66 -17.98)"/><polygon class="cls-1" points="587.92 211.44 587.92 130.54 558.75 130.54 558.75 236.55 632.43 236.55 632.43 211.44 587.92 211.44"/><path class="cls-1" d="M373.07,144.88a11.6,11.6,0,0,1-.19,2.06,9.38,9.38,0,0,1-.4,1.58c-.07.21-.15.42-.23.62l-.1.24h0a11.57,11.57,0,0,1-20.79,1.06,8.35,8.35,0,0,1-.53-1.13l-.07-.18a6.62,6.62,0,0,1-.24-.62,9.35,9.35,0,0,1-.39-1.58,10.74,10.74,0,0,1-.19-2.06,11.57,11.57,0,0,1,23.13,0Z" transform="translate(-65.66 -17.98)"/><path class="cls-1" d="M650.86,114.78a16.77,16.77,0,1,0,4.91,11.85A16.75,16.75,0,0,0,650.86,114.78ZM639,139.13a12.5,12.5,0,1,1,12.49-12.5A12.5,12.5,0,0,1,639,139.13Z" transform="translate(-65.66 -17.98)"/><polygon class="cls-1" points="474.37 154.81 474.37 155.37 474.13 155.37 474.37 154.81"/></svg>