<svg id="Layer_1" data-name="Layer 1" xmlns="http://www.w3.org/2000/svg" viewBox="0 0 736.25 301.27"><defs><style>.cls-1{fill:#78cdd7;}.cls-2{fill:#92bcea;}.cls-3{fill:#1b998b;}.cls-4{fill:#fff;}</style></defs><title>logo congreso completo</title><path d="M829,418.19H686.2A43.22,43.22,0,0,0,643,461.39v120.8a43.23,43.23,0,0,0,43.24,43.22H829a43.2,43.2,0,0,0,43.22-43.22V461.39A43.19,43.19,0,0,0,829,418.19ZM722.47,444.34c3.15-9.09,19.55-17.77,28.35-11.85,12.51,8.41,5.52,26.6-6.86,30.85a17.61,17.61,0,0,1-16.83-2.88A15.23,15.23,0,0,1,722.47,444.34Zm-62.74,1.27c7.88-9.11,23-8.15,32.45-3.48,13.88,6.88,10,19.29,24.62,26.36,14.33,6.91,31.77,1.52,33.11,1.12,13.78-4.17,13.42-10.45,36.27-26.41,19-13.27,30-16.35,37.22-17.62,8-1.39,18.41-3.05,24.91,3.36,4.77,4.69,6,12.27,5.17,18a23.62,23.62,0,0,1-4.89,11.14c-5.79,7.39-12.46,7.45-35.26,15.68C801.76,477.91,798,479.86,796,481a73.81,73.81,0,0,0-17.07,12.59c-8.75,8.84-6.52,11.68-12.59,16.24-8.54,6.41-21.45,7.17-31,3.13-4.07-1.74-9-5.14-16.62-14.08-4.73-5.57-9.37-11.45-15.54-15.4-2.55-1.64-8.86-6.2-17.9-8.36-14.51-3.49-20.69,2.56-26.18-1.95C652.89,468.06,652.74,453.7,659.73,445.61ZM820,524.4a21.08,21.08,0,0,1-9.1,10.12c-5.25,3-11.43,4-16.92,1.76-8.77-3.6-13.41-16.52-8.34-25.89,4-7.3,12.59-10.37,19.82-9.28,1.61.24,9.59,1.66,13.59,9.05A17.91,17.91,0,0,1,820,524.4Zm-96.57,4.2c-.2,9.65-11.66,17.23-20.52,15.45a16.29,16.29,0,0,1-12.74-14.18,15.46,15.46,0,0,1,10.69-15.61C709.56,511.81,723.67,518.34,723.46,528.6Zm4.48,85.85c-.86,2.88-5.39,3.84-10.15,4.8-6,1.2-21.34,4.32-32.58-4.61-6-4.73-8.35-10.9-9.52-14-10-26.64-22.22-76.08-25.36-89.06a30.65,30.65,0,0,1,2.06-12.87c2.14-5.24,6.32-9.82,11.7-11.62s11.9-.45,15.53,3.9c5.22,6.26,3.16,15.51,1.82,23.54s-1.67,16.44,1,24.14,8.69,14.56,16.59,16.51c10.76,2.66,21.56-4,29.72-11.54s15.83-16.39,26.42-19.67c6.38-2,14.11-1.32,18.66,3.54,5.28,5.63,4.44,15.08-.15,21.24s-12,9.57-19.35,11.73c-13,3.77-15.18,1.61-22.21,6.15-1.3.85-10.49,7-13.12,18.51a25.26,25.26,0,0,0,0,12.67C721.56,607.22,729.17,610.34,727.94,614.45Zm127.8-94.87c-2.3,5.25-6.9,14.22-8.86,27.52-1,6.88-1.58,11.77.43,17.52,3.44,9.83,10.38,10.46,11.55,18.64.68,4.74-1.4,8.92-5.55,17.3-3.88,7.83-5.8,11.73-10.36,14-6,2.91-14.77,2.23-17.2-1.95-2.91-5,5.14-11.73,1.74-17.51a8,8,0,0,0-7.62-3.74c-3,.48-4.72,3.21-5.32,4.17-3.62,5.78.13,10.14-2.22,15.13-2.47,5.19-10.45,8.91-17.73,6.89-8.19-2.28-13.15-11.11-11.59-16.85,1-3.82,3.79-6.91,6.36-9.93,4.34-5.07,5.49-7,5.85-10.18.34-3-.47-7.09-2.5-7.73-3-.91-8.32,6.7-10.64,10.08-6.09,8.87-4.81,11.23-9.22,16.52-2.19,2.62-8.08,8.76-17.36,10.36-3,.52-13.31,2.3-20.72-5a20.68,20.68,0,0,1-4.47-22.1A18.34,18.34,0,0,1,739,573.1c5.69-2.66,8.88.18,16.39-.32,9.3-.67,15.93-6.09,23.08-11.14,9.87-7,8.13-10.85,16-14.28,7.6-3.31,15-2,21.53-3.91,6.18-1.8,12.91-7,15.16-13.43,3-8.52-4.83-12.71-5.54-27.31-.18-3.49-.49-12.06,4-20.19,6.85-12.41,23.45-21.33,30.4-16.84C868.84,471.4,864.12,500.61,855.74,519.58Z" transform="translate(-642.96 -371.16)"/><path class="cls-1" d="M820,524.4a21.08,21.08,0,0,1-9.1,10.12c-5.25,3-11.43,4-16.92,1.76-8.77-3.6-13.41-16.52-8.34-25.89,4-7.3,12.59-10.37,19.82-9.28,1.61.24,9.59,1.66,13.59,9.05A17.91,17.91,0,0,1,820,524.4Z" transform="translate(-642.96 -371.16)"/><path class="cls-1" d="M858.86,583.26c.68,4.74-1.4,8.92-5.55,17.3-3.88,7.83-5.8,11.73-10.36,14-6,2.91-14.77,2.23-17.2-1.95-2.91-5,5.14-11.73,1.74-17.51a8,8,0,0,0-7.62-3.74c-3,.48-4.72,3.21-5.32,4.17-3.62,5.78.13,10.14-2.22,15.13-2.47,5.19-10.45,8.91-17.73,6.89-8.19-2.28-13.15-11.11-11.59-16.85,1-3.82,3.79-6.91,6.36-9.93,4.34-5.07,5.49-7,5.85-10.18.34-3-.47-7.09-2.5-7.73-3-.91-8.32,6.7-10.64,10.08-6.09,8.87-4.81,11.23-9.22,16.52-2.19,2.62-8.08,8.76-17.36,10.36-3,.52-13.31,2.3-20.72-5a20.68,20.68,0,0,1-4.47-22.1A18.34,18.34,0,0,1,739,573.1c5.69-2.66,8.88.18,16.39-.32,9.3-.67,15.93-6.09,23.08-11.14,9.87-7,8.13-10.85,16-14.28,7.6-3.31,15-2,21.53-3.91,6.18-1.8,12.91-7,15.16-13.43,3-8.52-4.83-12.71-5.54-27.31-.18-3.49-.49-12.06,4-20.19,6.85-12.41,23.45-21.33,30.4-16.84,8.87,5.72,4.15,34.93-4.23,53.9-2.3,5.25-6.9,14.22-8.86,27.52-1,6.88-1.58,11.77.43,17.52C850.75,574.45,857.69,575.08,858.86,583.26Z" transform="translate(-642.96 -371.16)"/><path class="cls-2" d="M773.64,548.74c-4.58,6.17-12,9.57-19.35,11.73-13,3.77-15.18,1.61-22.21,6.15-1.3.85-10.49,7-13.12,18.51a25.26,25.26,0,0,0,0,12.67c2.6,9.42,10.21,12.54,9,16.65-.86,2.88-5.39,3.84-10.15,4.8-6,1.2-21.34,4.32-32.58-4.61-6-4.73-8.35-10.9-9.52-14-10-26.64-22.22-76.08-25.36-89.06a30.65,30.65,0,0,1,2.06-12.87c2.14-5.24,6.32-9.82,11.7-11.62s11.9-.45,15.53,3.9c5.22,6.26,3.16,15.51,1.82,23.54s-1.67,16.44,1,24.14,8.69,14.56,16.59,16.51c10.76,2.66,21.56-4,29.72-11.54s15.83-16.39,26.42-19.67c6.38-2,14.11-1.32,18.66,3.54C779.07,533.13,778.23,542.58,773.64,548.74Z" transform="translate(-642.96 -371.16)"/><path class="cls-2" d="M723.46,528.6c-.2,9.65-11.66,17.23-20.52,15.45a16.29,16.29,0,0,1-12.74-14.18,15.46,15.46,0,0,1,10.69-15.61C709.56,511.81,723.67,518.34,723.46,528.6Z" transform="translate(-642.96 -371.16)"/><path class="cls-3" d="M744,463.34a17.61,17.61,0,0,1-16.83-2.88,15.23,15.23,0,0,1-4.66-16.12c3.15-9.09,19.55-17.77,28.35-11.85C763.33,440.9,756.34,459.09,744,463.34Z" transform="translate(-642.96 -371.16)"/><path class="cls-3" d="M853.48,446.91a23.62,23.62,0,0,1-4.89,11.14c-5.79,7.39-12.46,7.45-35.26,15.68C801.76,477.91,798,479.86,796,481a73.81,73.81,0,0,0-17.07,12.59c-8.75,8.84-6.52,11.68-12.59,16.24-8.54,6.41-21.45,7.17-31,3.13-4.07-1.74-9-5.14-16.62-14.08-4.73-5.57-9.37-11.45-15.54-15.4-2.55-1.64-8.86-6.2-17.9-8.36-14.51-3.49-20.69,2.56-26.18-1.95-6.21-5.11-6.36-19.47.63-27.56,7.88-9.11,23-8.15,32.45-3.48,13.88,6.88,10,19.29,24.62,26.36,14.33,6.91,31.77,1.52,33.11,1.12,13.78-4.17,13.42-10.45,36.27-26.41,19-13.27,30-16.35,37.22-17.62,8-1.39,18.41-3.05,24.91,3.36C853.08,433.63,854.3,441.21,853.48,446.91Z" transform="translate(-642.96 -371.16)"/><path d="M985.66,491.42q0,16.32-11.2,24.62t-31.21,8.3a78.75,78.75,0,0,1-14-1.26,71.88,71.88,0,0,1-11.71-3q-4.81-1.78-8.6-3.49a36.76,36.76,0,0,1-5.7-3l-1.78-1.18,11.12-18.24q1.77,1.2,4.89,2.89a79.47,79.47,0,0,0,11.71,4.53A51.45,51.45,0,0,0,945,504.32q16.9,0,16.91-12.6,0-5-5.93-8.38a61.16,61.16,0,0,0-14.46-5.55q-8.53-2.24-17-5.12a36.44,36.44,0,0,1-14.46-8.9,20.54,20.54,0,0,1-5.93-15q0-15.71,11.79-24.23T944.15,416a66.87,66.87,0,0,1,13.71,1.41,53.91,53.91,0,0,1,11.27,3.48,87.49,87.49,0,0,1,8,4.15q3.48,2.08,5.27,3.41L984,429.9l-10.68,17.2q-1.49-1.2-4.22-3t-11-4.74a46.9,46.9,0,0,0-15.94-3q-7.86,0-11.12,3.78a12.14,12.14,0,0,0-3.26,8.08q0,3,4.3,5.26a45.43,45.43,0,0,0,10.67,3.86q6.38,1.56,13.94,4.15a105.62,105.62,0,0,1,13.93,5.86,28.75,28.75,0,0,1,10.68,9.49A25,25,0,0,1,985.66,491.42Z" transform="translate(-642.96 -371.16)"/><path d="M1029.84,417.89h26.68l39.88,104.52h-24.9l-7-18.83h-42.7l-7,18.83H990Zm13.34,27.87-13.79,37.51H1057Z" transform="translate(-642.96 -371.16)"/><path d="M1103.07,417.89h23V502.1h40.78v20.31h-63.76Z" transform="translate(-642.96 -371.16)"/><path d="M1173.35,417.89h23v52.33q0,14.1,5.93,22.61t16.75,8.53q10.82,0,16.9-8.53t6.08-22.61V417.89h23v52.33q0,25.5-12.9,39.81T1219,524.34q-20.16,0-32.91-14.24t-12.75-39.88Z" transform="translate(-642.96 -371.16)"/><path d="M1276.09,522.41V417.89h35q23,0,38.25,14.45t15.27,37.88q0,23.43-15.27,37.81t-38.25,14.38Zm23-84.21v63.9h12A29.45,29.45,0,0,0,1333,493q8.89-9.12,8.9-22.76t-8.9-22.9a29.45,29.45,0,0,0-21.94-9.12Z" transform="translate(-642.96 -371.16)"/><path d="M903,543h21l27,44.77L978.28,543h21v85.07h-18.7V573.45l-29.56,48-29.32-48v54.66H903Z" transform="translate(-642.96 -371.16)"/><path d="M1008.32,628.11V543h58.88v16.53H1027v17.62h36.2v16.65H1027v17.74h40.18v16.53h-58.88Z" transform="translate(-642.96 -371.16)"/><path d="M1076.13,543h21l37.64,57.32V543h18.83v85.07h-21l-37.76-57.44v57.44h-18.71Z" transform="translate(-642.96 -371.16)"/><path d="M1158.9,543h66.61v16.53h-24v68.54h-18.71V559.57H1158.9Z" transform="translate(-642.96 -371.16)"/><path d="M1251.57,543h21.72l32.45,85.07h-20.27l-5.67-15.33h-34.75l-5.67,15.33h-20.27Zm10.86,22.69-11.22,30.52h22.44Z" transform="translate(-642.96 -371.16)"/><path d="M1311.17,543h18.71v68.54h33.18v16.53h-51.89Z" transform="translate(-642.96 -371.16)"/><path class="cls-4" d="M723.13,569.8" transform="translate(-642.96 -371.16)"/><path class="cls-4" d="M726.78,561.84" transform="translate(-642.96 -371.16)"/><path d="M914.68,396.31V373.62c1-.19,1.91-.33,2.87-.44a29.52,29.52,0,0,1,3.05-.15q4.56,0,6.9,1.9t2.34,6a7.33,7.33,0,0,1-2.33,5.84c-1.55,1.36-4,2-7.27,2-.54,0-1,0-1.52-.05l-1.5-.1v7.7Zm5.61-9.6c2.47,0,4.27-.48,5.38-1.43a5.4,5.4,0,0,0,1.66-4.34,5.56,5.56,0,0,0-1.62-4.46,7.49,7.49,0,0,0-5-1.4c-.66,0-1.28,0-1.86.07s-1.13.12-1.67.21v11.16c.49.06,1,.11,1.47.14S919.71,386.71,920.29,386.71Z" transform="translate(-642.96 -371.16)"/><path d="M933.59,396.31V379.42h2.08l.21,2.26H936a5.59,5.59,0,0,1,2.2-1.81,6.41,6.41,0,0,1,2.74-.62,5.33,5.33,0,0,1,.71,0l.62.07v2.32l-.7-.07-.76,0a6.15,6.15,0,0,0-1.71.25,6.22,6.22,0,0,0-1.69.8,5.25,5.25,0,0,0-1.36,1.34v12.33Z" transform="translate(-642.96 -371.16)"/><path d="M946.18,375.77a1.82,1.82,0,0,1-1.29-.42,1.54,1.54,0,0,1-.44-1.15,1.55,1.55,0,0,1,.44-1.17,1.82,1.82,0,0,1,1.29-.42,1.78,1.78,0,0,1,1.28.42,1.52,1.52,0,0,1,.44,1.17,1.5,1.5,0,0,1-.44,1.15A1.78,1.78,0,0,1,946.18,375.77Zm-1.25,20.54V379.42h2.49v16.89Z" transform="translate(-642.96 -371.16)"/><path d="M952.14,396.31V379.42h2.1l.19,1.92h.15a6.33,6.33,0,0,1,2.23-1.64,6.66,6.66,0,0,1,2.66-.54,5.31,5.31,0,0,1,2.51.58,4,4,0,0,1,1.74,1.87,8.08,8.08,0,0,1,.63,3.48v11.22H961.9V385.26a4.23,4.23,0,0,0-.86-3,3.07,3.07,0,0,0-2.27-.85,4.71,4.71,0,0,0-1.43.24,5.12,5.12,0,0,0-1.47.75,5,5,0,0,0-1.24,1.34v12.61Zm19.37,0V385.26a4.09,4.09,0,0,0-.9-3,3.18,3.18,0,0,0-2.29-.85,5.1,5.1,0,0,0-1.51.26,5,5,0,0,0-1.56.84,5.29,5.29,0,0,0-1.32,1.59l-.6-2a6.74,6.74,0,0,1,2.7-2.26,7.27,7.27,0,0,1,2.88-.64,5.69,5.69,0,0,1,2.63.58,4,4,0,0,1,1.81,1.89,8.08,8.08,0,0,1,.65,3.51v11.17Z" transform="translate(-642.96 -371.16)"/><path d="M985.62,396.6a9.75,9.75,0,0,1-4.4-.89,5.82,5.82,0,0,1-2.69-2.82,12,12,0,0,1-.9-5,12.35,12.35,0,0,1,.83-4.89,6,6,0,0,1,2.37-2.87,6.77,6.77,0,0,1,3.63-.94,6.3,6.3,0,0,1,3.51.94,5.87,5.87,0,0,1,2.22,2.88,13.37,13.37,0,0,1,.77,4.94v.78H979V387h10.16l-.56.37a11.89,11.89,0,0,0-.48-3.76,3.72,3.72,0,0,0-1.42-2,4,4,0,0,0-2.24-.61,4.22,4.22,0,0,0-2.29.6,3.9,3.9,0,0,0-1.48,2,11.05,11.05,0,0,0-.52,3.77v.87a9.08,9.08,0,0,0,.63,3.71,4,4,0,0,0,1.91,2,7.41,7.41,0,0,0,3.23.62,11.81,11.81,0,0,0,2-.18c.69-.13,1.42-.29,2.19-.5v2a19.5,19.5,0,0,1-2.3.5A14.9,14.9,0,0,1,985.62,396.6Z" transform="translate(-642.96 -371.16)"/><path d="M994.54,396.31V379.42h2.09l.2,2.26H997a5.56,5.56,0,0,1,2.19-1.81,6.41,6.41,0,0,1,2.74-.62,5.14,5.14,0,0,1,.71,0l.63.07v2.32l-.71-.07-.76,0a6.15,6.15,0,0,0-1.71.25,6.36,6.36,0,0,0-1.69.8A5.41,5.41,0,0,0,997,384v12.33Z" transform="translate(-642.96 -371.16)"/><path d="M1023.11,396.6a13.71,13.71,0,0,1-4.29-.63,8.22,8.22,0,0,1-3.29-2,8.84,8.84,0,0,1-2.1-3.63,17.76,17.76,0,0,1-.73-5.47,15.65,15.65,0,0,1,1.27-6.78,8.18,8.18,0,0,1,3.67-3.85,12.35,12.35,0,0,1,5.72-1.23,19.08,19.08,0,0,1,2.56.17,19.43,19.43,0,0,1,2.41.5v2.21a17,17,0,0,0-2.41-.53,18,18,0,0,0-2.46-.17,9.47,9.47,0,0,0-4.42.94,6.13,6.13,0,0,0-2.75,3,14,14,0,0,0-.94,5.64,14.16,14.16,0,0,0,.95,5.75,5.89,5.89,0,0,0,2.73,3,9.36,9.36,0,0,0,4.26.9,14.22,14.22,0,0,0,2.48-.21,15,15,0,0,0,2.56-.67v2.2a15.66,15.66,0,0,1-2.45.62A15.3,15.3,0,0,1,1023.11,396.6Z" transform="translate(-642.96 -371.16)"/><path d="M1036.9,396.6a7.67,7.67,0,0,1-3.79-.9,6,6,0,0,1-2.5-2.84,14.27,14.27,0,0,1,0-9.95,6.07,6.07,0,0,1,2.49-2.84,7.57,7.57,0,0,1,3.81-.91,7.76,7.76,0,0,1,3.82.9,5.92,5.92,0,0,1,2.49,2.84,14.4,14.4,0,0,1,0,9.94,6.18,6.18,0,0,1-2.51,2.85A7.54,7.54,0,0,1,1036.9,396.6Zm0-2a4.8,4.8,0,0,0,2.48-.62,4,4,0,0,0,1.61-2.09,11.17,11.17,0,0,0,.56-4,11.39,11.39,0,0,0-.57-4,4,4,0,0,0-1.62-2.1,4.64,4.64,0,0,0-2.46-.63,4.77,4.77,0,0,0-2.47.62,3.92,3.92,0,0,0-1.61,2.08,11.12,11.12,0,0,0-.57,3.95,11.68,11.68,0,0,0,.56,4,4,4,0,0,0,1.61,2.11A4.74,4.74,0,0,0,1036.9,394.58Z" transform="translate(-642.96 -371.16)"/><path d="M1047.9,396.31V379.42h2.1l.19,1.92h.16a7,7,0,0,1,2.39-1.62,7.57,7.57,0,0,1,2.9-.56,6.43,6.43,0,0,1,2.82.59,4.25,4.25,0,0,1,1.92,1.9,7.4,7.4,0,0,1,.7,3.5v11.16h-2.49V385.26a4,4,0,0,0-.95-3,3.7,3.7,0,0,0-2.58-.86,6.18,6.18,0,0,0-1.6.23,6.08,6.08,0,0,0-1.64.72,5.36,5.36,0,0,0-1.43,1.31v12.68Z" transform="translate(-642.96 -371.16)"/><path d="M1070.76,403.47a17.35,17.35,0,0,1-2.5-.2,16.41,16.41,0,0,1-2.48-.55v-2.1a19.14,19.14,0,0,0,2.53.6,14.53,14.53,0,0,0,2.33.19,5.92,5.92,0,0,0,4-1.17c.86-.79,1.3-2.14,1.3-4.07v-1.63h-.14a6.14,6.14,0,0,1-1.95,1.42,6.24,6.24,0,0,1-2.74.57,6.39,6.39,0,0,1-3.2-.83,5.83,5.83,0,0,1-2.35-2.64,11,11,0,0,1-.89-4.84c0-3,.72-5.31,2.18-6.81s3.58-2.25,6.38-2.25a15.76,15.76,0,0,1,1.8.1q.9.11,1.77.27c.57.11,1.12.24,1.63.39v15.86q0,4.13-1.93,5.91C1075.26,402.87,1073.34,403.47,1070.76,403.47Zm1.12-9.07a5.65,5.65,0,0,0,2.26-.49,4.41,4.41,0,0,0,1.84-1.48V381.54q-.57-.14-1.32-.24a11.5,11.5,0,0,0-1.59-.1,5.65,5.65,0,0,0-4.32,1.59q-1.5,1.57-1.5,5.18a10.15,10.15,0,0,0,.6,3.9,3.94,3.94,0,0,0,1.65,2A4.9,4.9,0,0,0,1071.88,394.4Z" transform="translate(-642.96 -371.16)"/><path d="M1083.16,396.31V379.42h2.09l.2,2.26h.16a5.56,5.56,0,0,1,2.19-1.81,6.44,6.44,0,0,1,2.74-.62,5.39,5.39,0,0,1,.72,0l.62.07v2.32l-.71-.07-.75,0a6.28,6.28,0,0,0-1.72.25,6.16,6.16,0,0,0-1.68.8,5.1,5.1,0,0,0-1.36,1.34v12.33Z" transform="translate(-642.96 -371.16)"/><path d="M1101.11,396.6a9.72,9.72,0,0,1-4.4-.89,5.79,5.79,0,0,1-2.7-2.82,12,12,0,0,1-.9-5,12.53,12.53,0,0,1,.83-4.89,6.14,6.14,0,0,1,2.37-2.87,6.77,6.77,0,0,1,3.63-.94,6.3,6.3,0,0,1,3.51.94,6,6,0,0,1,2.23,2.88,13.58,13.58,0,0,1,.77,4.94v.78h-12V387h10.16l-.57.37a11.89,11.89,0,0,0-.48-3.76,3.76,3.76,0,0,0-1.41-2,4,4,0,0,0-2.24-.61,4.24,4.24,0,0,0-2.3.6,3.9,3.9,0,0,0-1.48,2,11.31,11.31,0,0,0-.52,3.77v.87a9.08,9.08,0,0,0,.63,3.71,4,4,0,0,0,1.91,2,7.44,7.44,0,0,0,3.23.62,11.72,11.72,0,0,0,2-.18c.7-.13,1.43-.29,2.2-.5v2a19.64,19.64,0,0,1-2.31.5A14.67,14.67,0,0,1,1101.11,396.6Z" transform="translate(-642.96 -371.16)"/><path d="M1114,396.6a15.81,15.81,0,0,1-2.41-.17,14,14,0,0,1-2.26-.51v-2a18.07,18.07,0,0,0,2.39.55,16.07,16.07,0,0,0,2.3.17,5.24,5.24,0,0,0,3.18-.76,2.8,2.8,0,0,0,.4-3.86,3.92,3.92,0,0,0-2-.92l-2.28-.45A6,6,0,0,1,1110,387a4.32,4.32,0,0,1-1-2.95,4.41,4.41,0,0,1,1.65-3.51,7.78,7.78,0,0,1,5-1.38,17.37,17.37,0,0,1,2.09.13,16.54,16.54,0,0,1,1.91.37v2a14.14,14.14,0,0,0-2-.41,15.68,15.68,0,0,0-2-.12,6.94,6.94,0,0,0-2.56.38,2.74,2.74,0,0,0-1.38,1,2.54,2.54,0,0,0-.42,1.42,2.47,2.47,0,0,0,.56,1.66,3.57,3.57,0,0,0,2,1l2.29.47a6.07,6.07,0,0,1,3.36,1.58,4.23,4.23,0,0,1,1,3,4.37,4.37,0,0,1-1.67,3.61A7.73,7.73,0,0,1,1114,396.6Z" transform="translate(-642.96 -371.16)"/><path d="M1130.35,396.6a7.64,7.64,0,0,1-3.79-.9,6.06,6.06,0,0,1-2.51-2.84,14.35,14.35,0,0,1,0-9.95,6.07,6.07,0,0,1,2.49-2.84,7.57,7.57,0,0,1,3.81-.91,7.72,7.72,0,0,1,3.81.9,5.94,5.94,0,0,1,2.5,2.84,14.32,14.32,0,0,1,0,9.94,6.11,6.11,0,0,1-2.5,2.85A7.57,7.57,0,0,1,1130.35,396.6Zm0-2a4.77,4.77,0,0,0,2.47-.62,4,4,0,0,0,1.61-2.09,11.14,11.14,0,0,0,.57-4,11.39,11.39,0,0,0-.57-4,4.05,4.05,0,0,0-1.62-2.1,4.69,4.69,0,0,0-2.46-.63,4.8,4.8,0,0,0-2.48.62,4,4,0,0,0-1.61,2.08,14.42,14.42,0,0,0,0,8,4,4,0,0,0,1.61,2.11A4.71,4.71,0,0,0,1130.35,394.58Z" transform="translate(-642.96 -371.16)"/><path d="M1149.24,396.31v-23h2.6l13.24,20.15h-.64V373.28h2.42v23h-2.62L1151,376.16h.62v20.15Z" transform="translate(-642.96 -371.16)"/><path d="M1176,396.59a5.36,5.36,0,0,1-3.74-1.24,4.32,4.32,0,0,1-1.37-3.37,4.24,4.24,0,0,1,1.47-3.44A8.41,8.41,0,0,1,1177,387l4.54-.48.22,1.64-4.59.5a5.17,5.17,0,0,0-2.88,1,2.66,2.66,0,0,0-.89,2.12,2.78,2.78,0,0,0,.81,2.16,3.42,3.42,0,0,0,2.4.75,5.81,5.81,0,0,0,2.24-.47,5.22,5.22,0,0,0,2-1.6v-7.45a4.83,4.83,0,0,0-.49-2.4,2.62,2.62,0,0,0-1.45-1.2,7.33,7.33,0,0,0-2.43-.34,16.06,16.06,0,0,0-2.15.17,12.64,12.64,0,0,0-2.41.59v-2a13.54,13.54,0,0,1,2.41-.56,17.2,17.2,0,0,1,2.48-.2,10.08,10.08,0,0,1,3.58.56,4.09,4.09,0,0,1,2.18,1.89,7.7,7.7,0,0,1,.73,3.64v11.06h-2.09l-.2-1.88h-.16a5.41,5.41,0,0,1-2.1,1.6A6.9,6.9,0,0,1,1176,396.59Z" transform="translate(-642.96 -371.16)"/><path d="M1194.43,396.6a8.25,8.25,0,0,1-4-.91,5.86,5.86,0,0,1-2.54-2.84,12.14,12.14,0,0,1-.88-5,11.31,11.31,0,0,1,.94-5,6,6,0,0,1,2.75-2.83,9.92,9.92,0,0,1,4.42-.9,15,15,0,0,1,1.77.11,11.12,11.12,0,0,1,1.7.33v2.1a10.62,10.62,0,0,0-1.63-.31,12.08,12.08,0,0,0-1.58-.1,7.35,7.35,0,0,0-3.23.63,4,4,0,0,0-1.92,2.06,9.71,9.71,0,0,0-.63,3.83,10.61,10.61,0,0,0,.59,3.92,3.93,3.93,0,0,0,1.76,2.12,5.88,5.88,0,0,0,2.89.64,10.61,10.61,0,0,0,1.73-.16,15.05,15.05,0,0,0,2-.54v2.12a13.47,13.47,0,0,1-2,.52A12.23,12.23,0,0,1,1194.43,396.6Z" transform="translate(-642.96 -371.16)"/><path d="M1202.82,375.77a1.82,1.82,0,0,1-1.29-.42,1.54,1.54,0,0,1-.44-1.15,1.55,1.55,0,0,1,.44-1.17,1.82,1.82,0,0,1,1.29-.42,1.8,1.8,0,0,1,1.28.42,1.52,1.52,0,0,1,.44,1.17,1.5,1.5,0,0,1-.44,1.15A1.8,1.8,0,0,1,1202.82,375.77Zm-1.25,20.54V379.42h2.49v16.89Z" transform="translate(-642.96 -371.16)"/><path d="M1215.08,396.6a7.64,7.64,0,0,1-3.79-.9,6.06,6.06,0,0,1-2.51-2.84,14.35,14.35,0,0,1,0-9.95,6.07,6.07,0,0,1,2.49-2.84,7.57,7.57,0,0,1,3.81-.91,7.72,7.72,0,0,1,3.81.9,5.94,5.94,0,0,1,2.5,2.84,14.32,14.32,0,0,1,0,9.94,6.11,6.11,0,0,1-2.5,2.85A7.57,7.57,0,0,1,1215.08,396.6Zm0-2a4.77,4.77,0,0,0,2.47-.62,3.94,3.94,0,0,0,1.61-2.09,11.14,11.14,0,0,0,.57-4,11.39,11.39,0,0,0-.57-4,4.05,4.05,0,0,0-1.62-2.1,4.69,4.69,0,0,0-2.46-.63,4.74,4.74,0,0,0-2.47.62,3.94,3.94,0,0,0-1.62,2.08,14.42,14.42,0,0,0,0,8,4,4,0,0,0,1.61,2.11A4.71,4.71,0,0,0,1215.08,394.58Z" transform="translate(-642.96 -371.16)"/><path d="M1226.08,396.31V379.42h2.1l.19,1.92h.15a7.17,7.17,0,0,1,2.4-1.62,7.57,7.57,0,0,1,2.9-.56,6.46,6.46,0,0,1,2.82.59,4.25,4.25,0,0,1,1.92,1.9,7.4,7.4,0,0,1,.7,3.5v11.16h-2.49V385.26a4,4,0,0,0-1-3,3.7,3.7,0,0,0-2.58-.86,6.18,6.18,0,0,0-1.6.23,6.08,6.08,0,0,0-1.64.72,5.36,5.36,0,0,0-1.43,1.31v12.68Z" transform="translate(-642.96 -371.16)"/><path d="M1248,396.59a5.32,5.32,0,0,1-3.73-1.24,4.29,4.29,0,0,1-1.37-3.37,4.24,4.24,0,0,1,1.46-3.44A8.44,8.44,0,0,1,1249,387l4.55-.48.21,1.64-4.59.5a5.16,5.16,0,0,0-2.87,1,2.63,2.63,0,0,0-.89,2.12,2.78,2.78,0,0,0,.81,2.16,3.39,3.39,0,0,0,2.39.75,5.77,5.77,0,0,0,2.24-.47,5.24,5.24,0,0,0,2-1.6v-7.45a4.94,4.94,0,0,0-.49-2.4,2.68,2.68,0,0,0-1.46-1.2,7.29,7.29,0,0,0-2.43-.34,15.93,15.93,0,0,0-2.14.17,12.46,12.46,0,0,0-2.41.59v-2a13.34,13.34,0,0,1,2.41-.56,17,17,0,0,1,2.47-.2,10.08,10.08,0,0,1,3.58.56,4.06,4.06,0,0,1,2.18,1.89,7.58,7.58,0,0,1,.73,3.64v11.06h-2.08l-.21-1.88h-.15a5.41,5.41,0,0,1-2.1,1.6A6.92,6.92,0,0,1,1248,396.59Z" transform="translate(-642.96 -371.16)"/><path d="M1259.8,396.31V371.16h2.49v25.15Z" transform="translate(-642.96 -371.16)"/><path d="M1280.36,396.59a6.86,6.86,0,0,1-3.36-.83,5.66,5.66,0,0,1-2.4-2.66,13.68,13.68,0,0,1,.09-9.94,6.46,6.46,0,0,1,2.86-3,9.92,9.92,0,0,1,4.69-1,13.69,13.69,0,0,1,1.43.07l1.31.15v-8.22h2.49v25.15h-2.13l-.16-1.84H1285a5.49,5.49,0,0,1-1.93,1.53A6.11,6.11,0,0,1,1280.36,396.59Zm.58-2.13a5.31,5.31,0,0,0,2.22-.5,4.32,4.32,0,0,0,1.82-1.59V381.48c-.37-.07-.81-.14-1.31-.2a14.64,14.64,0,0,0-1.47-.08,5.85,5.85,0,0,0-4.44,1.59q-1.52,1.57-1.51,5.21a10.14,10.14,0,0,0,.6,3.88,3.88,3.88,0,0,0,1.65,2A4.92,4.92,0,0,0,1280.94,394.46Z" transform="translate(-642.96 -371.16)"/><path d="M1299.28,396.6a9.72,9.72,0,0,1-4.4-.89,5.82,5.82,0,0,1-2.69-2.82,12,12,0,0,1-.91-5,12.34,12.34,0,0,1,.84-4.89,6.07,6.07,0,0,1,2.36-2.87,6.78,6.78,0,0,1,3.64-.94,6.27,6.27,0,0,1,3.5.94,5.89,5.89,0,0,1,2.23,2.88,13.58,13.58,0,0,1,.77,4.94v.78h-12V387h10.16l-.56.37a11.89,11.89,0,0,0-.48-3.76,3.77,3.77,0,0,0-1.42-2,4,4,0,0,0-2.24-.61,4.26,4.26,0,0,0-2.3.6,3.89,3.89,0,0,0-1.47,2,11,11,0,0,0-.53,3.77v.87a9.06,9.06,0,0,0,.64,3.71,4,4,0,0,0,1.9,2,7.45,7.45,0,0,0,3.24.62,11.9,11.9,0,0,0,2-.18c.69-.13,1.42-.29,2.19-.5v2a19.94,19.94,0,0,1-2.3.5A14.9,14.9,0,0,1,1299.28,396.6Z" transform="translate(-642.96 -371.16)"/><path d="M900.84,666.83V648.3c.48-.09,1-.18,1.5-.26s1.08-.14,1.66-.19,1.21-.07,1.86-.07a9.29,9.29,0,0,1,5.54,1.35,4.91,4.91,0,0,1,1.82,4.24,5,5,0,0,1-3.48,5,12.25,12.25,0,0,1-4.26.64c-.52,0-1,0-1.37,0l-1.24-.09v7.9Zm4.66-9.45a7.66,7.66,0,0,0,4.39-1,3.46,3.46,0,0,0,1.36-3,4.17,4.17,0,0,0-.55-2.27,3.14,3.14,0,0,0-1.71-1.27,9.28,9.28,0,0,0-3-.4,16.37,16.37,0,0,0-1.67.07c-.47,0-.95.11-1.44.19v7.57l.89.07q.39,0,.81,0Zm6.82,9.45L905.67,658H908l6.7,8.86Z" transform="translate(-642.96 -371.16)"/><path d="M921.12,667.07a5.23,5.23,0,0,1-2.28-.48,3.44,3.44,0,0,1-1.56-1.55,6.13,6.13,0,0,1-.57-2.86V653h2v9.08a3.14,3.14,0,0,0,.79,2.46,3,3,0,0,0,2,.69,5.26,5.26,0,0,0,1.32-.19,4.91,4.91,0,0,0,1.31-.58,4.39,4.39,0,0,0,1.13-1.07V653h2v13.82h-1.71l-.15-1.52h-.13a5.64,5.64,0,0,1-2,1.31A6,6,0,0,1,921.12,667.07Z" transform="translate(-642.96 -371.16)"/><path d="M931.2,672.43V653H933l.13,1.52h.13a4.77,4.77,0,0,1,1.6-1.25,5,5,0,0,1,2.21-.48,5.75,5.75,0,0,1,2.74.66,4.7,4.7,0,0,1,2,2.17,9.23,9.23,0,0,1,.74,4,9.65,9.65,0,0,1-.79,4.13,5.27,5.27,0,0,1-2.34,2.46,8.08,8.08,0,0,1-3.84.82,11.41,11.41,0,0,1-1.16-.06l-1.09-.12v5.54Zm4.32-7a4.76,4.76,0,0,0,3.64-1.3,6.13,6.13,0,0,0,1.22-4.25,8.35,8.35,0,0,0-.49-3.21,3.21,3.21,0,0,0-1.36-1.63,4.07,4.07,0,0,0-2-.47,4.3,4.3,0,0,0-1.81.41,3.69,3.69,0,0,0-1.51,1.31v8.9a10.31,10.31,0,0,0,1.08.17A10.12,10.12,0,0,0,935.52,665.4Z" transform="translate(-642.96 -371.16)"/><path d="M943.44,654.71V653h9v1.7Zm7.06,12.36a4.62,4.62,0,0,1-3.28-1.09,4.55,4.55,0,0,1-1.17-3.48V653l.32-5h1.7v14.2a3.3,3.3,0,0,0,.72,2.43,3,3,0,0,0,2.15.7,5.56,5.56,0,0,0,.79-.06l.89-.15v1.73q-.51.1-1,.18A9.46,9.46,0,0,1,950.5,667.07Z" transform="translate(-642.96 -371.16)"/><path d="M959,667.07a5.15,5.15,0,0,1-2.27-.48,3.41,3.41,0,0,1-1.57-1.55,6.27,6.27,0,0,1-.56-2.86V653h2v9.08a3.14,3.14,0,0,0,.8,2.46,3,3,0,0,0,2,.69,5.25,5.25,0,0,0,1.31-.19,4.83,4.83,0,0,0,1.32-.58,4.35,4.35,0,0,0,1.12-1.07V653h2v13.82h-1.71l-.15-1.52h-.12a5.68,5.68,0,0,1-2,1.31A6,6,0,0,1,959,667.07Z" transform="translate(-642.96 -371.16)"/><path d="M969.11,666.83V653h1.7l.17,1.85h.13a4.51,4.51,0,0,1,1.79-1.48,5.2,5.2,0,0,1,2.24-.51,5.41,5.41,0,0,1,.59,0l.51.06v1.9l-.58-.06-.62,0a5,5,0,0,0-1.4.21,4.84,4.84,0,0,0-1.38.65,4.18,4.18,0,0,0-1.12,1.1v10.09Z" transform="translate(-642.96 -371.16)"/><path d="M981.26,667.06a4.36,4.36,0,0,1-3-1,3.94,3.94,0,0,1,.07-5.57,6.91,6.91,0,0,1,3.81-1.27l3.72-.39.18,1.35-3.76.4a4.23,4.23,0,0,0-2.35.8,2.17,2.17,0,0,0-.73,1.74,2.3,2.3,0,0,0,.66,1.77,2.84,2.84,0,0,0,2,.61,4.68,4.68,0,0,0,1.84-.39,4.21,4.21,0,0,0,1.65-1.31v-6.09a3.93,3.93,0,0,0-.4-2,2.16,2.16,0,0,0-1.19-1,6.2,6.2,0,0,0-2-.28,13.06,13.06,0,0,0-1.76.14,11.22,11.22,0,0,0-2,.49v-1.67a11.07,11.07,0,0,1,2-.46,13.35,13.35,0,0,1,2-.16,8.28,8.28,0,0,1,2.93.45,3.39,3.39,0,0,1,1.78,1.55,6.21,6.21,0,0,1,.6,3v9.06h-1.71l-.16-1.54h-.13a4.41,4.41,0,0,1-1.72,1.31A5.66,5.66,0,0,1,981.26,667.06Z" transform="translate(-642.96 -371.16)"/><path d="M994.24,667.07a14,14,0,0,1-2-.14,11.07,11.07,0,0,1-1.85-.42v-1.64a14.16,14.16,0,0,0,2,.44,11.9,11.9,0,0,0,1.88.14,4.29,4.29,0,0,0,2.61-.62,2.32,2.32,0,0,0,.33-3.15,3.17,3.17,0,0,0-1.65-.76l-1.86-.37a4.83,4.83,0,0,1-2.71-1.34,3.5,3.5,0,0,1-.82-2.42,3.58,3.58,0,0,1,1.35-2.87,6.36,6.36,0,0,1,4.13-1.12,13.33,13.33,0,0,1,1.71.1q.81.12,1.56.3v1.65a10.25,10.25,0,0,0-1.61-.33,12,12,0,0,0-1.61-.11,5.72,5.72,0,0,0-2.1.32,2.24,2.24,0,0,0-1.13.84,2.15,2.15,0,0,0-.34,1.16,2,2,0,0,0,.46,1.36,2.89,2.89,0,0,0,1.61.79l1.87.38a5.13,5.13,0,0,1,2.75,1.3,3.5,3.5,0,0,1,.82,2.46,3.55,3.55,0,0,1-1.37,3A6.31,6.31,0,0,1,994.24,667.07Z" transform="translate(-642.96 -371.16)"/><path d="M1002.34,670.84a21.38,21.38,0,0,0,.7-2.22,8.56,8.56,0,0,0,.25-2.07l.36.44h-.28a1.5,1.5,0,0,1-1.07-.39,1.53,1.53,0,0,1,0-2.06,1.42,1.42,0,0,1,1.05-.39,1.39,1.39,0,0,1,1.1.46,2.17,2.17,0,0,1,.39,1.42,9.13,9.13,0,0,1-.36,2.55,10.7,10.7,0,0,1-.93,2.26Z" transform="translate(-642.96 -371.16)"/><path d="M1019.83,667.07a6.79,6.79,0,0,1-3.32-.75,4.82,4.82,0,0,1-2.07-2.32,9.86,9.86,0,0,1-.72-4.07,9.31,9.31,0,0,1,.76-4.08,4.9,4.9,0,0,1,2.26-2.32,8.07,8.07,0,0,1,3.61-.73,11.64,11.64,0,0,1,1.45.09,9.79,9.79,0,0,1,1.39.26v1.72a9.13,9.13,0,0,0-1.33-.25,11.45,11.45,0,0,0-1.29-.08,5.93,5.93,0,0,0-2.65.52,3.19,3.19,0,0,0-1.57,1.68,7.84,7.84,0,0,0-.52,3.14,8.8,8.8,0,0,0,.48,3.2,3.33,3.33,0,0,0,1.44,1.74,5,5,0,0,0,2.37.52,7.83,7.83,0,0,0,1.41-.14,11.17,11.17,0,0,0,1.66-.44v1.74a10,10,0,0,1-1.65.42A9.71,9.71,0,0,1,1019.83,667.07Z" transform="translate(-642.96 -371.16)"/><path d="M1030.6,667.07a6.26,6.26,0,0,1-3.1-.74,4.94,4.94,0,0,1-2-2.32,9.77,9.77,0,0,1-.73-4.08,9.89,9.89,0,0,1,.72-4.07,5,5,0,0,1,2-2.32,6.21,6.21,0,0,1,3.12-.74,6.31,6.31,0,0,1,3.12.73,4.91,4.91,0,0,1,2,2.32,9.84,9.84,0,0,1,.72,4.06,9.71,9.71,0,0,1-.73,4.08,5,5,0,0,1-2,2.33A6.16,6.16,0,0,1,1030.6,667.07Zm0-1.66a3.84,3.84,0,0,0,2-.51,3.2,3.2,0,0,0,1.32-1.7,9.2,9.2,0,0,0,.47-3.25,9.11,9.11,0,0,0-.48-3.27,3.26,3.26,0,0,0-1.32-1.72,4.24,4.24,0,0,0-4,0,3.22,3.22,0,0,0-1.32,1.69,9.18,9.18,0,0,0-.47,3.24,9.37,9.37,0,0,0,.46,3.28,3.32,3.32,0,0,0,1.32,1.73A3.9,3.9,0,0,0,1030.6,665.41Z" transform="translate(-642.96 -371.16)"/><path d="M1039.6,666.83V653h1.72l.15,1.57h.13a5.92,5.92,0,0,1,2-1.33,6.25,6.25,0,0,1,2.37-.45,5.3,5.3,0,0,1,2.31.48,3.46,3.46,0,0,1,1.57,1.55,6.15,6.15,0,0,1,.57,2.87v9.13h-2v-9a3.24,3.24,0,0,0-.78-2.48,3,3,0,0,0-2.11-.71,5.18,5.18,0,0,0-1.31.19,5,5,0,0,0-1.35.59,4.34,4.34,0,0,0-1.16,1.07v10.38Z" transform="translate(-642.96 -371.16)"/><path d="M1052.29,654.71V653h9v1.7Zm7.07,12.36a4.61,4.61,0,0,1-3.28-1.09,4.52,4.52,0,0,1-1.18-3.48V653l.32-5h1.71v14.2a3.3,3.3,0,0,0,.72,2.43,2.94,2.94,0,0,0,2.14.7,5.35,5.35,0,0,0,.79-.06l.89-.15v1.73c-.34.07-.68.13-1,.18A9.59,9.59,0,0,1,1059.36,667.07Z" transform="translate(-642.96 -371.16)"/><path d="M1064.67,650a1.46,1.46,0,0,1-1.05-.34,1.43,1.43,0,0,1,0-1.9,1.79,1.79,0,0,1,2.1,0,1.43,1.43,0,0,1,0,1.9A1.46,1.46,0,0,1,1064.67,650Zm-1,16.81V653h2v13.82Z" transform="translate(-642.96 -371.16)"/><path d="M1069.55,666.83V653h1.72l.15,1.57h.13a5.82,5.82,0,0,1,2-1.33,6.2,6.2,0,0,1,2.36-.45,5.24,5.24,0,0,1,2.31.48,3.48,3.48,0,0,1,1.58,1.55,6.15,6.15,0,0,1,.57,2.87v9.13h-2v-9a3.28,3.28,0,0,0-.77-2.48,3.05,3.05,0,0,0-2.12-.71,5.25,5.25,0,0,0-1.31.19,4.94,4.94,0,0,0-1.34.59,4.38,4.38,0,0,0-1.17,1.07v10.38Z" transform="translate(-642.96 -371.16)"/><path d="M1088.29,667.07a5.23,5.23,0,0,1-2.28-.48,3.44,3.44,0,0,1-1.56-1.55,6.13,6.13,0,0,1-.57-2.86V653h2v9.08a3.14,3.14,0,0,0,.79,2.46,3,3,0,0,0,2,.69,5.12,5.12,0,0,0,1.31-.19,4.83,4.83,0,0,0,1.32-.58,4.39,4.39,0,0,0,1.13-1.07V653h2v13.82h-1.71l-.15-1.52h-.13a5.58,5.58,0,0,1-2,1.31A6,6,0,0,1,1088.29,667.07Z" transform="translate(-642.96 -371.16)"/><path d="M1099.39,650a1.46,1.46,0,0,1-1.05-.34,1.43,1.43,0,0,1,0-1.9,1.79,1.79,0,0,1,2.1,0,1.43,1.43,0,0,1,0,1.9A1.46,1.46,0,0,1,1099.39,650Zm-1,16.81V653h2v13.82Z" transform="translate(-642.96 -371.16)"/><path d="M1109,667.06a5.63,5.63,0,0,1-2.75-.68,4.67,4.67,0,0,1-2-2.18,9.24,9.24,0,0,1-.73-4,9.42,9.42,0,0,1,.8-4.12,5.32,5.32,0,0,1,2.34-2.46,8.21,8.21,0,0,1,3.84-.81c.39,0,.78,0,1.16.05l1.08.12v-6.72h2v20.58h-1.75l-.13-1.5h-.13a4.59,4.59,0,0,1-1.58,1.24A4.91,4.91,0,0,1,1109,667.06Zm.47-1.75a4.2,4.2,0,0,0,1.82-.41,3.6,3.6,0,0,0,1.49-1.29v-8.92c-.31-.06-.66-.11-1.07-.16s-.81-.07-1.21-.07a4.8,4.8,0,0,0-3.63,1.3,6.1,6.1,0,0,0-1.23,4.27,8.28,8.28,0,0,0,.49,3.18,3.12,3.12,0,0,0,1.35,1.62A4,4,0,0,0,1109.45,665.31Z" transform="translate(-642.96 -371.16)"/><path d="M1122.07,667.06a4.38,4.38,0,0,1-3.06-1,3.92,3.92,0,0,1,.08-5.57,6.84,6.84,0,0,1,3.8-1.27l3.72-.39.18,1.35-3.76.4a4.23,4.23,0,0,0-2.35.8,2.17,2.17,0,0,0-.73,1.74,2.3,2.3,0,0,0,.66,1.77,2.87,2.87,0,0,0,2,.61,4.63,4.63,0,0,0,1.83-.39,4.21,4.21,0,0,0,1.65-1.31v-6.09a3.93,3.93,0,0,0-.4-2,2.13,2.13,0,0,0-1.19-1,6.12,6.12,0,0,0-2-.28,13.06,13.06,0,0,0-1.76.14,11.12,11.12,0,0,0-2,.49v-1.67a10.75,10.75,0,0,1,2-.46,13.45,13.45,0,0,1,2-.16,8.28,8.28,0,0,1,2.93.45,3.41,3.41,0,0,1,1.79,1.55,6.34,6.34,0,0,1,.59,3v9.06h-1.7l-.17-1.54h-.13a4.38,4.38,0,0,1-1.71,1.31A5.73,5.73,0,0,1,1122.07,667.06Z" transform="translate(-642.96 -371.16)"/><path d="M1136.47,667.06a5.63,5.63,0,0,1-2.75-.68,4.67,4.67,0,0,1-2-2.18,9.24,9.24,0,0,1-.73-4,9.42,9.42,0,0,1,.8-4.12,5.32,5.32,0,0,1,2.34-2.46,8.21,8.21,0,0,1,3.84-.81c.39,0,.78,0,1.16.05l1.08.12v-6.72h2v20.58h-1.75l-.13-1.5h-.14a4.46,4.46,0,0,1-1.57,1.24A4.91,4.91,0,0,1,1136.47,667.06Zm.47-1.75a4.23,4.23,0,0,0,1.82-.41,3.6,3.6,0,0,0,1.49-1.29v-8.92c-.31-.06-.66-.11-1.07-.16s-.81-.07-1.21-.07a4.8,4.8,0,0,0-3.63,1.3,6.1,6.1,0,0,0-1.23,4.27,8.28,8.28,0,0,0,.49,3.18,3.12,3.12,0,0,0,1.35,1.62A4,4,0,0,0,1136.94,665.31Z" transform="translate(-642.96 -371.16)"/><path d="M1152,667.07a7.94,7.94,0,0,1-3.6-.73,4.78,4.78,0,0,1-2.21-2.31,9.87,9.87,0,0,1-.73-4.12,10,10,0,0,1,.68-4,4.91,4.91,0,0,1,1.93-2.35,5.52,5.52,0,0,1,3-.77,5.16,5.16,0,0,1,2.88.77,4.83,4.83,0,0,1,1.82,2.35,11.11,11.11,0,0,1,.63,4.05v.63h-9.81v-1.4h8.32l-.46.31a9.61,9.61,0,0,0-.4-3.09,3.08,3.08,0,0,0-1.15-1.64,3.23,3.23,0,0,0-1.84-.51,3.47,3.47,0,0,0-1.88.5,3.2,3.2,0,0,0-1.21,1.65,9.27,9.27,0,0,0-.42,3.09v.71a7.57,7.57,0,0,0,.51,3,3.25,3.25,0,0,0,1.56,1.64,6,6,0,0,0,2.65.51,9.55,9.55,0,0,0,1.65-.15c.56-.1,1.16-.24,1.79-.41v1.67a14.27,14.27,0,0,1-1.88.42A13.74,13.74,0,0,1,1152,667.07Z" transform="translate(-642.96 -371.16)"/><path d="M1162.53,667.07a14,14,0,0,1-2-.14,11.3,11.3,0,0,1-1.85-.42v-1.64a14,14,0,0,0,2,.44,11.77,11.77,0,0,0,1.87.14,4.29,4.29,0,0,0,2.61-.62,2,2,0,0,0,.81-1.71,2,2,0,0,0-.48-1.44,3.17,3.17,0,0,0-1.65-.76l-1.86-.37a4.86,4.86,0,0,1-2.71-1.34,3.83,3.83,0,0,1,.53-5.29,6.36,6.36,0,0,1,4.13-1.12,13.33,13.33,0,0,1,1.71.1q.81.12,1.56.3v1.65a10.25,10.25,0,0,0-1.61-.33,11.86,11.86,0,0,0-1.61-.11,5.7,5.7,0,0,0-2.09.32,2.2,2.2,0,0,0-1.13.84,2.07,2.07,0,0,0-.34,1.16,2,2,0,0,0,.45,1.36,2.89,2.89,0,0,0,1.61.79l1.87.38a5.09,5.09,0,0,1,2.75,1.3,3.5,3.5,0,0,1,.83,2.46,3.58,3.58,0,0,1-1.37,3A6.32,6.32,0,0,1,1162.53,667.07Z" transform="translate(-642.96 -371.16)"/><path d="M1180.44,666.83,1175.21,653h2.18l5,13.82Zm-1.54,5.6,2.13-5.6.65-1.47,4.54-12.35h2.07l-7.35,19.42Z" transform="translate(-642.96 -371.16)"/><path d="M1196.64,666.83V653h1.72l.15,1.57h.13a5.92,5.92,0,0,1,2-1.33,6.25,6.25,0,0,1,2.37-.45,5.3,5.3,0,0,1,2.31.48,3.46,3.46,0,0,1,1.57,1.55,6.15,6.15,0,0,1,.57,2.87v9.13h-2v-9a3.24,3.24,0,0,0-.78-2.48,3,3,0,0,0-2.11-.71,5.12,5.12,0,0,0-1.31.19,5,5,0,0,0-1.35.59,4.34,4.34,0,0,0-1.16,1.07v10.38Z" transform="translate(-642.96 -371.16)"/><path d="M1215.38,667.07a5.18,5.18,0,0,1-2.27-.48,3.41,3.41,0,0,1-1.57-1.55,6.14,6.14,0,0,1-.56-2.86V653h2v9.08a3.11,3.11,0,0,0,.8,2.46,3,3,0,0,0,2,.69,5.25,5.25,0,0,0,1.31-.19,4.83,4.83,0,0,0,1.32-.58,4.52,4.52,0,0,0,1.12-1.07V653h2v13.82h-1.71l-.15-1.52h-.13a5.64,5.64,0,0,1-2,1.31A6,6,0,0,1,1215.38,667.07Z" transform="translate(-642.96 -371.16)"/><path d="M1231.28,667.07a8,8,0,0,1-3.6-.73,4.72,4.72,0,0,1-2.2-2.31,9.86,9.86,0,0,1-.74-4.12,10.18,10.18,0,0,1,.68-4,4.87,4.87,0,0,1,1.94-2.35,5.48,5.48,0,0,1,3-.77,5.11,5.11,0,0,1,2.87.77,4.83,4.83,0,0,1,1.82,2.35,11.11,11.11,0,0,1,.63,4.05v.63h-9.8v-1.4h8.31l-.46.31a9.94,9.94,0,0,0-.39-3.09,3,3,0,0,0-1.16-1.64,3.22,3.22,0,0,0-1.83-.51,3.45,3.45,0,0,0-1.88.5,3.14,3.14,0,0,0-1.21,1.65,9,9,0,0,0-.43,3.09v.71a7.39,7.39,0,0,0,.52,3,3.17,3.17,0,0,0,1.56,1.64,6,6,0,0,0,2.65.51,9.52,9.52,0,0,0,1.64-.15c.57-.1,1.17-.24,1.79-.41v1.67a14.27,14.27,0,0,1-1.88.42A13.62,13.62,0,0,1,1231.28,667.07Z" transform="translate(-642.96 -371.16)"/><path d="M1242,666.83,1236.77,653H1239l4.55,12.35h-.26l4.54-12.35h2.07l-5.23,13.82Z" transform="translate(-642.96 -371.16)"/><path d="M1257.05,667.07a6.29,6.29,0,0,1-3.1-.74,5,5,0,0,1-2-2.32,9.93,9.93,0,0,1-.73-4.08,9.72,9.72,0,0,1,.73-4.07,5,5,0,0,1,2-2.32,6.21,6.21,0,0,1,3.12-.74,6.31,6.31,0,0,1,3.12.73,4.88,4.88,0,0,1,2,2.32,11.79,11.79,0,0,1,0,8.14,5,5,0,0,1-2.06,2.33A6.13,6.13,0,0,1,1257.05,667.07Zm0-1.66a3.87,3.87,0,0,0,2-.51,3.2,3.2,0,0,0,1.32-1.7,9.23,9.23,0,0,0,.46-3.25,9.36,9.36,0,0,0-.47-3.27,3.31,3.31,0,0,0-1.32-1.72,4.26,4.26,0,0,0-4,0,3.22,3.22,0,0,0-1.32,1.69,9.2,9.2,0,0,0-.46,3.24,9.37,9.37,0,0,0,.46,3.28,3.26,3.26,0,0,0,1.31,1.73A3.92,3.92,0,0,0,1257.05,665.41Z" transform="translate(-642.96 -371.16)"/><path d="M1269.34,667.07a14,14,0,0,1-2-.14,11.3,11.3,0,0,1-1.85-.42v-1.64a14,14,0,0,0,2,.44,11.77,11.77,0,0,0,1.87.14,4.29,4.29,0,0,0,2.61-.62,2,2,0,0,0,.81-1.71,2,2,0,0,0-.48-1.44,3.17,3.17,0,0,0-1.65-.76l-1.86-.37a4.86,4.86,0,0,1-2.71-1.34,3.83,3.83,0,0,1,.53-5.29,6.36,6.36,0,0,1,4.13-1.12,13.33,13.33,0,0,1,1.71.1q.81.12,1.56.3v1.65a10.25,10.25,0,0,0-1.61-.33,11.86,11.86,0,0,0-1.61-.11,5.7,5.7,0,0,0-2.09.32,2.2,2.2,0,0,0-1.13.84,2.07,2.07,0,0,0-.34,1.16,2,2,0,0,0,.45,1.36,2.89,2.89,0,0,0,1.61.79l1.87.38a5.09,5.09,0,0,1,2.75,1.3,3.5,3.5,0,0,1,.83,2.46,3.58,3.58,0,0,1-1.37,3A6.32,6.32,0,0,1,1269.34,667.07Z" transform="translate(-642.96 -371.16)"/><path d="M1288.46,667.06a5.59,5.59,0,0,1-2.74-.68,4.74,4.74,0,0,1-2-2.18,11.33,11.33,0,0,1,.07-8.13,5.29,5.29,0,0,1,2.35-2.46,8.19,8.19,0,0,1,3.83-.81c.39,0,.78,0,1.17.05l1.08.12v-6.72h2v20.58h-1.74l-.13-1.5h-.14a4.5,4.5,0,0,1-1.58,1.24A4.85,4.85,0,0,1,1288.46,667.06Zm.48-1.75a4.23,4.23,0,0,0,1.82-.41,3.6,3.6,0,0,0,1.49-1.29v-8.92c-.31-.06-.67-.11-1.07-.16s-.81-.07-1.21-.07a4.79,4.79,0,0,0-3.63,1.3,6.05,6.05,0,0,0-1.24,4.27,8.48,8.48,0,0,0,.49,3.18,3.21,3.21,0,0,0,1.35,1.62A4.05,4.05,0,0,0,1288.94,665.31Z" transform="translate(-642.96 -371.16)"/><path d="M1304,667.07a8,8,0,0,1-3.61-.73,4.76,4.76,0,0,1-2.2-2.31,9.86,9.86,0,0,1-.74-4.12,10.18,10.18,0,0,1,.68-4,4.92,4.92,0,0,1,1.94-2.35,5.5,5.5,0,0,1,3-.77,5.11,5.11,0,0,1,2.87.77,4.77,4.77,0,0,1,1.82,2.35,11.11,11.11,0,0,1,.63,4.05v.63h-9.8v-1.4h8.31l-.45.31a9.9,9.9,0,0,0-.4-3.09,3,3,0,0,0-1.16-1.64,3.22,3.22,0,0,0-1.83-.51,3.45,3.45,0,0,0-1.88.5,3.2,3.2,0,0,0-1.21,1.65,9.24,9.24,0,0,0-.43,3.09v.71a7.56,7.56,0,0,0,.52,3,3.21,3.21,0,0,0,1.56,1.64,6,6,0,0,0,2.65.51,9.44,9.44,0,0,0,1.64-.15c.57-.1,1.17-.24,1.8-.41v1.67a14.77,14.77,0,0,1-1.89.42A13.59,13.59,0,0,1,1304,667.07Z" transform="translate(-642.96 -371.16)"/><path d="M1314.53,667.07a14.2,14.2,0,0,1-2-.14,11.18,11.18,0,0,1-1.84-.42v-1.64a14.16,14.16,0,0,0,2,.44,11.9,11.9,0,0,0,1.88.14,4.23,4.23,0,0,0,2.6-.62,2.3,2.3,0,0,0,.34-3.15,3.17,3.17,0,0,0-1.65-.76l-1.86-.37a4.83,4.83,0,0,1-2.71-1.34,3.5,3.5,0,0,1-.82-2.42,3.58,3.58,0,0,1,1.35-2.87,6.36,6.36,0,0,1,4.13-1.12,13.33,13.33,0,0,1,1.71.1q.81.12,1.56.3v1.65a10.25,10.25,0,0,0-1.61-.33,12,12,0,0,0-1.61-.11,5.72,5.72,0,0,0-2.1.32,2.21,2.21,0,0,0-1.12.84,2.08,2.08,0,0,0-.35,1.16,2,2,0,0,0,.46,1.36,2.89,2.89,0,0,0,1.6.79l1.88.38a5.13,5.13,0,0,1,2.75,1.3,3.5,3.5,0,0,1,.82,2.46,3.57,3.57,0,0,1-1.36,3A6.36,6.36,0,0,1,1314.53,667.07Z" transform="translate(-642.96 -371.16)"/><path d="M1326.14,667.06a4.38,4.38,0,0,1-3.06-1,3.53,3.53,0,0,1-1.12-2.75,3.48,3.48,0,0,1,1.2-2.82,6.91,6.91,0,0,1,3.81-1.27l3.71-.39.18,1.35-3.75.4a4.27,4.27,0,0,0-2.36.8,2.19,2.19,0,0,0-.72,1.74,2.3,2.3,0,0,0,.66,1.77,2.82,2.82,0,0,0,2,.61,4.63,4.63,0,0,0,1.83-.39,4.31,4.31,0,0,0,1.66-1.31v-6.09a4,4,0,0,0-.4-2,2.19,2.19,0,0,0-1.2-1,6.12,6.12,0,0,0-2-.28,13.18,13.18,0,0,0-1.76.14,11.12,11.12,0,0,0-2,.49v-1.67a10.75,10.75,0,0,1,2-.46,13.47,13.47,0,0,1,2-.16,8.22,8.22,0,0,1,2.92.45,3.41,3.41,0,0,1,1.79,1.55,6.21,6.21,0,0,1,.6,3v9.06h-1.71l-.16-1.54h-.13a4.49,4.49,0,0,1-1.72,1.31A5.73,5.73,0,0,1,1326.14,667.06Z" transform="translate(-642.96 -371.16)"/><path d="M1334.15,654.71V653h9v1.7Zm2.61,12.12V650.92a5.91,5.91,0,0,1,.56-2.69,3.79,3.79,0,0,1,1.69-1.67,6.12,6.12,0,0,1,2.75-.56c.32,0,.63,0,1,0s.63.06.94.11v1.71a8,8,0,0,0-.84-.11c-.28,0-.57,0-.86,0a3.45,3.45,0,0,0-2.39.72,3.11,3.11,0,0,0-.79,2.4v16Z" transform="translate(-642.96 -371.16)"/><path d="M1345.28,666.83V653h2v13.82Zm.07-16,2.73-4.62h2.21l-3,4.62Z" transform="translate(-642.96 -371.16)"/><path d="M1356.33,667.07a6.26,6.26,0,0,1-3.1-.74,4.94,4.94,0,0,1-2-2.32,9.77,9.77,0,0,1-.73-4.08,9.89,9.89,0,0,1,.72-4.07,5,5,0,0,1,2-2.32,6.16,6.16,0,0,1,3.12-.74,6.31,6.31,0,0,1,3.12.73,4.91,4.91,0,0,1,2,2.32,9.84,9.84,0,0,1,.72,4.06,9.71,9.71,0,0,1-.73,4.08,5,5,0,0,1-2,2.33A6.16,6.16,0,0,1,1356.33,667.07Zm0-1.66a3.84,3.84,0,0,0,2-.51,3.2,3.2,0,0,0,1.32-1.7,9.2,9.2,0,0,0,.47-3.25,9.11,9.11,0,0,0-.48-3.27,3.26,3.26,0,0,0-1.32-1.72,3.85,3.85,0,0,0-2-.51,3.9,3.9,0,0,0-2,.51,3.25,3.25,0,0,0-1.31,1.69,9.18,9.18,0,0,0-.47,3.24,9.61,9.61,0,0,0,.46,3.28,3.32,3.32,0,0,0,1.32,1.73A3.9,3.9,0,0,0,1356.33,665.41Z" transform="translate(-642.96 -371.16)"/><path d="M1368.62,667.07a14.2,14.2,0,0,1-2-.14,11.18,11.18,0,0,1-1.84-.42v-1.64a14.16,14.16,0,0,0,2,.44,11.9,11.9,0,0,0,1.88.14,4.25,4.25,0,0,0,2.6-.62,2,2,0,0,0,.81-1.71,2,2,0,0,0-.48-1.44,3.1,3.1,0,0,0-1.64-.76l-1.86-.37a4.9,4.9,0,0,1-2.72-1.34,3.54,3.54,0,0,1-.81-2.42,3.58,3.58,0,0,1,1.35-2.87,6.33,6.33,0,0,1,4.12-1.12,13.38,13.38,0,0,1,1.72.1q.81.12,1.56.3v1.65a10.25,10.25,0,0,0-1.61-.33,12,12,0,0,0-1.61-.11,5.72,5.72,0,0,0-2.1.32,2.24,2.24,0,0,0-1.13.84,2.15,2.15,0,0,0-.34,1.16,2,2,0,0,0,.46,1.36,2.89,2.89,0,0,0,1.6.79l1.87.38a5.12,5.12,0,0,1,2.76,1.3A3.5,3.5,0,0,1,1374,663a3.55,3.55,0,0,1-1.37,3A6.31,6.31,0,0,1,1368.62,667.07Z" transform="translate(-642.96 -371.16)"/><path d="M1377.75,667a1.46,1.46,0,0,1-1.07-.38,1.31,1.31,0,0,1-.41-1,1.38,1.38,0,0,1,.4-1,1.46,1.46,0,0,1,1.06-.39,1.49,1.49,0,0,1,1.08.39,1.38,1.38,0,0,1,.4,1,1.33,1.33,0,0,1-.4,1A1.46,1.46,0,0,1,1377.75,667Z" transform="translate(-642.96 -371.16)"/></svg>