<svg id="Layer_1" data-name="Layer 1" xmlns="http://www.w3.org/2000/svg" viewBox="0 0 342.98 310.01"><defs><style>.cls-1{fill:#fff;}</style></defs><title>logo congreso</title><path class="cls-1" d="M937.36,301H723.71A64.66,64.66,0,0,0,659,365.63V546.34A64.66,64.66,0,0,0,723.71,611H937.36A64.64,64.64,0,0,0,1002,546.34V365.63A64.64,64.64,0,0,0,937.36,301ZM778,340.13c4.7-13.61,29.25-26.61,42.4-17.74,18.72,12.58,8.26,39.79-10.27,46.16-8.41,2.91-18.34,1.44-25.16-4.32S775.06,348.54,778,340.13ZM684.12,342c11.78-13.64,34.48-12.2,48.54-5.23,20.76,10.31,14.93,28.88,36.83,39.45,21.45,10.34,47.52,2.27,49.53,1.67,20.61-6.22,20.08-15.62,54.26-39.49,28.5-19.86,44.79-24.48,55.67-26.37,12-2.09,27.55-4.55,37.29,5,7.12,7,8.94,18.34,7.73,26.86a35.64,35.64,0,0,1-7.32,16.68C958,371.69,948,371.77,913.9,384.08c-17.31,6.25-22.88,9.17-26,10.88a110.29,110.29,0,0,0-25.54,18.83c-13.08,13.23-9.74,17.47-18.84,24.29-12.77,9.59-32.09,10.72-46.3,4.7-6.1-2.62-13.53-7.69-24.86-21.07-7.09-8.34-14-17.13-23.27-23-3.79-2.46-13.22-9.28-26.75-12.5-21.71-5.23-31,3.82-39.18-2.92C673.88,375.59,673.66,354.11,684.12,342ZM923.91,459.87A31.39,31.39,0,0,1,910.3,475c-7.84,4.47-17.09,6-25.31,2.61-13.11-5.38-20-24.7-12.47-38.73,5.92-10.91,18.84-15.49,29.64-13.86,2.42.34,14.36,2.46,20.35,13.52A26.81,26.81,0,0,1,923.91,459.87Zm-144.45,6.29c-.31,14.44-17.43,25.77-30.7,23.12-10-2-18.26-11.07-19.06-21.22s6.22-20.54,16-23.35C758.65,441,779.76,450.81,779.46,466.16Zm6.7,128.42c-1.28,4.32-8.07,5.76-15.19,7.2-8.91,1.78-31.91,6.44-48.73-6.89-9-7.09-12.51-16.34-14.25-21C693.1,534.07,674.76,460.1,670.06,440.7a45.44,45.44,0,0,1,3.07-19.25c3.22-7.85,9.47-14.71,17.5-17.4s17.81-.68,23.23,5.84c7.81,9.36,4.74,23.19,2.73,35.2s-2.5,24.59,1.44,36.11,13,21.79,24.82,24.71c16.11,4,32.25-6.06,44.45-17.28s23.68-24.52,39.52-29.4c9.55-2.92,21.11-2,27.93,5.3,7.88,8.41,6.63,22.55-.23,31.76s-17.92,14.32-28.95,17.54c-19.4,5.65-22.7,2.43-33.23,9.21-1.93,1.29-15.69,10.42-19.63,27.7a38.08,38.08,0,0,0,0,19C776.61,583.78,788,588.44,786.16,594.58ZM977.34,452.67c-3.45,7.84-10.31,21.26-13.26,41.15-1.52,10.31-2.35,17.62.64,26.23,5.15,14.7,15.54,15.65,17.28,27.89,1,7.08-2.08,13.33-8.3,25.88-5.8,11.71-8.68,17.54-15.5,20.88-8.9,4.35-22.09,3.33-25.73-2.92-4.36-7.47,7.69-17.55,2.62-26.19-2.2-3.75-7.17-6.32-11.41-5.6-4.47.72-7,4.81-8,6.25-5.42,8.64.19,15.16-3.33,22.62-3.68,7.77-15.61,13.34-26.53,10.31-12.24-3.41-19.66-16.64-17.31-25.2,1.55-5.72,5.64-10.35,9.51-14.86,6.48-7.57,8.22-10.49,8.75-15.23.49-4.47-.72-10.61-3.75-11.56-4.51-1.36-12.43,10-15.92,15.08-9.09,13.27-7.2,16.79-13.79,24.71-3.26,3.9-12.09,13.11-26,15.5-4.43.76-19.93,3.45-31-7.54a31,31,0,0,1-6.7-33.08c1.1-2.65,4.81-10.38,13-14.25,8.52-4,13.3.26,24.51-.49,13.91-1,23.84-9.1,34.52-16.68,14.78-10.45,12.17-16.21,23.88-21.33,11.37-5,22.39-3,32.21-5.87,9.24-2.69,19.32-10.42,22.7-20.09,4.43-12.73-7.24-19-8.3-40.85-.27-5.23-.72-18,6-30.2,10.24-18.57,35.09-31.91,45.48-25.2C996.93,380.6,989.88,424.29,977.34,452.67Z" transform="translate(-659.03 -300.98)"/></svg>