<svg id="Layer_1" data-name="Layer 1" xmlns="http://www.w3.org/2000/svg" viewBox="0 0 1174.6 490.99"><defs><style>.cls-1{fill:#055c67;}.cls-2{fill:#f9b951;}</style></defs><title>nuevo logo congreso</title><path class="cls-1" d="M490.7,727.45c4-1.61,6-4.7,6-9.4a10.11,10.11,0,0,0-1.48-5.69,9.44,9.44,0,0,0-4.33-3.21,17.57,17.57,0,0,0-5.81-.93H473.32v28.94h4.83v-8.72c5.26,0,7.91,0,8.22-.06l5.32,8.78h5.51Zm-5.62-3.4h-6.93V712.61h6.93c4.63,0,7,1.86,7,5.63S489.71,724.05,485.08,724.05Z" transform="translate(-360.51 -250.73)"/><path class="cls-1" d="M522.68,708.19V725c0,2.64-.73,4.59-2.17,5.85a8,8,0,0,1-5.35,1.87,8.19,8.19,0,0,1-5.44-1.87c-1.47-1.26-2.22-3.21-2.22-5.85V708.19h-4.87v16.88a13.73,13.73,0,0,0,1.36,6.18,10.22,10.22,0,0,0,4.16,4.31,16.16,16.16,0,0,0,13.94,0,10.18,10.18,0,0,0,4.17-4.47,14,14,0,0,0,1.3-6.06V708.19Z" transform="translate(-360.51 -250.73)"/><path class="cls-1" d="M554.41,710.63a13.33,13.33,0,0,0-8.29-2.41h-11.5v28.94h4.88v-8.72h6.62a13.66,13.66,0,0,0,6.62-1.36,8.1,8.1,0,0,0,3.71-3.77,12,12,0,0,0,1.11-5.26Q557.56,713,554.41,710.63Zm-8.48,13.42H539.5V712.61h6.43c4.64,0,7,1.86,7,5.63S550.57,724.05,545.93,724.05Z" transform="translate(-360.51 -250.73)"/><polygon class="cls-1" points="198.48 457.46 198.48 461.85 207.62 461.85 207.62 486.41 212.5 486.41 212.5 461.85 221.68 461.85 221.68 457.46 198.48 457.46"/><path class="cls-1" d="M605.84,708.19V725c0,2.64-.73,4.59-2.17,5.85a8,8,0,0,1-5.35,1.87,8.19,8.19,0,0,1-5.44-1.87c-1.47-1.26-2.22-3.21-2.22-5.85V708.19h-4.87v16.88a13.73,13.73,0,0,0,1.36,6.18,10.22,10.22,0,0,0,4.16,4.31,16.16,16.16,0,0,0,13.94,0,10.18,10.18,0,0,0,4.17-4.47,14,14,0,0,0,1.3-6.06V708.19Z" transform="translate(-360.51 -250.73)"/><path class="cls-1" d="M635.18,727.45c4-1.61,5.94-4.7,5.94-9.4a9.66,9.66,0,0,0-1.49-5.69,9.53,9.53,0,0,0-4.27-3.21,17.93,17.93,0,0,0-5.87-.93H617.74v28.94h4.88v-8.72c5.2,0,7.92,0,8.17-.06l5.32,8.78h5.56Zm-5.69-3.4h-6.87V712.61h6.87c4.7,0,7,1.86,7,5.63S634.19,724.05,629.49,724.05Z" transform="translate(-360.51 -250.73)"/><path class="cls-1" d="M661.65,708.22h-5L643.9,737.16H649l2.78-6.55h14.6l2.78,6.55h5.2Zm-8.1,18.06,5.5-12.87,5.45,12.87Z" transform="translate(-360.51 -250.73)"/><path class="cls-1" d="M696,723.85c-1.52-1.4-3.94-2.52-7.29-3.39a14.15,14.15,0,0,1-4.88-2,3.19,3.19,0,0,1-1.48-2.68,2.44,2.44,0,0,1,1.34-2.32,7.28,7.28,0,0,1,3.37-.69,16.53,16.53,0,0,1,8.49,2.86l2-4.48a17.14,17.14,0,0,0-10.14-3,12.87,12.87,0,0,0-7.52,2.09,6.68,6.68,0,0,0-3,5.85,7.54,7.54,0,0,0,1,4,8.42,8.42,0,0,0,2.78,2.36,24.57,24.57,0,0,0,5.37,2c1,.25,1.84.51,2.52.75a13.57,13.57,0,0,1,2,.86,3.27,3.27,0,0,1,1.95,3.07,3.06,3.06,0,0,1-1.34,2.51,6.6,6.6,0,0,1-4.07,1q-4.85,0-9.81-4.1l-2.11,4a17.31,17.31,0,0,0,17.14,3.78,9.12,9.12,0,0,0,4.13-2.81,7,7,0,0,0,1.48-4.55A7.44,7.44,0,0,0,696,723.85Z" transform="translate(-360.51 -250.73)"/><path class="cls-1" d="M706.48,733.28a2.43,2.43,0,0,0-1-.87,2.9,2.9,0,0,0-1.18-.27,2.43,2.43,0,0,0-1.81.73A2.71,2.71,0,0,0,703,737l-1.66,4.71h2.45l2.44-5a4.63,4.63,0,0,0,.61-2A2.68,2.68,0,0,0,706.48,733.28Z" transform="translate(-360.51 -250.73)"/><path class="cls-1" d="M745.85,729.26a11.84,11.84,0,0,1-8.06,3.31,10.89,10.89,0,0,1-4.35-.83,9.67,9.67,0,0,1-3.25-2.24,10.09,10.09,0,0,1-2.73-6.93,9.44,9.44,0,0,1,3-7.21,10.35,10.35,0,0,1,7.36-2.8,11,11,0,0,1,8.06,3.86L748.7,713a15.44,15.44,0,0,0-21.82-.69,13.57,13.57,0,0,0-4.39,10.26,13.79,13.79,0,0,0,4.38,10.33,14.69,14.69,0,0,0,10.67,4.22,15.78,15.78,0,0,0,11.22-4.83Z" transform="translate(-360.51 -250.73)"/><path class="cls-1" d="M777,712.36a16.46,16.46,0,0,0-21.9-.06,13.7,13.7,0,0,0-4.39,10.33A13.92,13.92,0,0,0,755.1,733a15.45,15.45,0,0,0,10.95,4.2,15.16,15.16,0,0,0,10.88-4.2,14.2,14.2,0,0,0,.07-20.6ZM775.51,727a9.55,9.55,0,0,1-2.35,3.21,11,11,0,0,1-3.34,1.92,11.36,11.36,0,0,1-3.77.68,10.51,10.51,0,0,1-7.24-2.9,9.9,9.9,0,0,1,0-14.48,10.81,10.81,0,0,1,14.54.06,9.36,9.36,0,0,1,3,7.18A10.55,10.55,0,0,1,775.51,727Z" transform="translate(-360.51 -250.73)"/><polygon class="cls-1" points="446.38 457.46 446.38 478.39 430.88 457.46 426.07 457.46 426.07 486.41 430.96 486.41 430.96 465.57 446.38 486.41 451.18 486.41 451.18 457.46 446.38 457.46"/><polygon class="cls-1" points="455.4 457.46 455.4 461.85 464.54 461.85 464.54 486.41 469.42 486.41 469.42 461.85 478.6 461.85 478.6 457.46 455.4 457.46"/><rect class="cls-1" x="482.77" y="457.46" width="4.88" height="28.95"/><polygon class="cls-1" points="515.55 457.46 515.55 478.39 500.06 457.46 495.25 457.46 495.25 486.41 500.14 486.41 500.14 465.57 515.55 486.41 520.36 486.41 520.36 457.46 515.55 457.46"/><path class="cls-1" d="M908,708.19V725c0,2.64-.71,4.59-2.17,5.85a7.91,7.91,0,0,1-5.35,1.87,8.19,8.19,0,0,1-5.44-1.87q-2.21-1.89-2.2-5.85V708.19h-4.89v16.88a13.48,13.48,0,0,0,1.38,6.18,10.17,10.17,0,0,0,4.14,4.31,16.16,16.16,0,0,0,13.94,0,10.18,10.18,0,0,0,4.17-4.47,14,14,0,0,0,1.3-6.06V708.19Z" transform="translate(-360.51 -250.73)"/><rect class="cls-1" x="559.39" y="457.46" width="4.88" height="28.95"/><path class="cls-1" d="M955,712.3a14.74,14.74,0,0,0-10.76-4.08H932.42v28.94h11.75A14.78,14.78,0,0,0,955,733a14.85,14.85,0,0,0,0-20.72ZM951.41,730a9.74,9.74,0,0,1-7,2.78h-7.18V712.61h6.93a10,10,0,0,1,7.11,2.72,9.3,9.3,0,0,1,3,7.36A9.61,9.61,0,0,1,951.41,730Z" transform="translate(-360.51 -250.73)"/><path class="cls-1" d="M977.69,708.22h-5l-12.8,28.94H965l2.79-6.55h14.59l2.78,6.55h5.2Zm-8.1,18.06,5.5-12.87,5.45,12.87Z" transform="translate(-360.51 -250.73)"/><path class="cls-1" d="M1016.84,712.3a14.74,14.74,0,0,0-10.76-4.08H994.2v28.94H1006a14.92,14.92,0,0,0,10.88-4.14,14.85,14.85,0,0,0,0-20.72ZM1013.25,730a10,10,0,0,1-7,2.78h-7.11V712.61H1006a10.07,10.07,0,0,1,7.11,2.72,10.53,10.53,0,0,1,.12,14.66Z" transform="translate(-360.51 -250.73)"/><polygon class="cls-1" points="670.63 482.04 670.63 474.06 684.77 474.06 684.77 469.71 670.63 469.71 670.63 461.85 686.44 461.85 686.44 457.46 665.76 457.46 665.76 486.41 686.93 486.41 686.93 482.04 670.63 482.04"/><path class="cls-1" d="M1071.47,723.85c-1.52-1.4-3.94-2.52-7.28-3.39a14.53,14.53,0,0,1-4.91-2,3.25,3.25,0,0,1-1.46-2.68,2.44,2.44,0,0,1,1.34-2.32,7.28,7.28,0,0,1,3.37-.69,16.55,16.55,0,0,1,8.49,2.86l2-4.48a17.21,17.21,0,0,0-10.14-3,12.84,12.84,0,0,0-7.53,2.09,6.68,6.68,0,0,0-3,5.85,7.63,7.63,0,0,0,1,4,8.53,8.53,0,0,0,2.78,2.36,24.93,24.93,0,0,0,5.38,2c1,.25,1.83.51,2.52.75a14.57,14.57,0,0,1,2,.86,3.28,3.28,0,0,1,1.93,3.07,3.06,3.06,0,0,1-1.32,2.51,6.72,6.72,0,0,1-4.1,1c-3.23,0-6.48-1.36-9.79-4.1l-2.12,4a16.45,16.45,0,0,0,11.83,4.63,16.18,16.18,0,0,0,5.3-.85,9.08,9.08,0,0,0,4.15-2.81,6.92,6.92,0,0,0,1.46-4.55A7.43,7.43,0,0,0,1071.47,723.85Z" transform="translate(-360.51 -250.73)"/><polygon class="cls-1" points="748.55 457.46 740.44 471.56 732.16 457.46 727.24 457.46 738.03 476.94 738.03 486.41 742.88 486.41 742.88 476.78 753.51 457.46 748.55 457.46"/><polygon class="cls-1" points="790.06 457.46 790.06 478.39 774.56 457.46 769.76 457.46 769.76 486.41 774.64 486.41 774.64 465.57 790.06 486.41 794.87 486.41 794.87 457.46 790.06 457.46"/><path class="cls-1" d="M1182.49,708.19V725q0,4-2.16,5.85a8,8,0,0,1-5.36,1.87,8.16,8.16,0,0,1-5.43-1.87c-1.48-1.26-2.21-3.21-2.21-5.85V708.19h-4.88v16.88a13.6,13.6,0,0,0,1.36,6.18,10.14,10.14,0,0,0,4.15,4.31,16.16,16.16,0,0,0,13.94,0,10.26,10.26,0,0,0,4.18-4.47,14.11,14.11,0,0,0,1.3-6.06V708.19Z" transform="translate(-360.51 -250.73)"/><polygon class="cls-1" points="838.78 482.04 838.78 474.06 852.92 474.06 852.92 469.71 838.78 469.71 838.78 461.85 854.57 461.85 854.57 457.46 833.89 457.46 833.89 486.41 855.06 486.41 855.06 482.04 838.78 482.04"/><polygon class="cls-1" points="880.54 457.46 871.52 480.99 862.59 457.46 857.35 457.46 868.89 486.41 873.93 486.41 885.63 457.46 880.54 457.46"/><path class="cls-1" d="M1273.39,712.36a15.2,15.2,0,0,0-10.89-4.2,15.46,15.46,0,0,0-11,4.14,13.46,13.46,0,0,0-4.39,10.33,13.67,13.67,0,0,0,4.39,10.33,16.3,16.3,0,0,0,21.84,0,13.76,13.76,0,0,0,4.45-10.33A13.54,13.54,0,0,0,1273.39,712.36ZM1272,727a9.69,9.69,0,0,1-2.41,3.21,10.68,10.68,0,0,1-3.28,1.92,11.31,11.31,0,0,1-3.77.68,10.51,10.51,0,0,1-7.24-2.9,10,10,0,0,1-.06-14.48,10.69,10.69,0,0,1,7.3-2.78,10.24,10.24,0,0,1,7.24,2.84,9.42,9.42,0,0,1,3.09,7.18A10.55,10.55,0,0,1,1272,727Z" transform="translate(-360.51 -250.73)"/><path class="cls-1" d="M1301.1,723.85c-1.52-1.4-3.94-2.52-7.29-3.39a14.15,14.15,0,0,1-4.88-2,3.19,3.19,0,0,1-1.48-2.68,2.42,2.42,0,0,1,1.34-2.32,7.28,7.28,0,0,1,3.37-.69,16.53,16.53,0,0,1,8.49,2.86l2-4.48a17.14,17.14,0,0,0-10.14-3,12.87,12.87,0,0,0-7.52,2.09,6.68,6.68,0,0,0-3,5.85,7.54,7.54,0,0,0,1,4,8.42,8.42,0,0,0,2.78,2.36,24.57,24.57,0,0,0,5.37,2c1,.25,1.84.51,2.52.75a13.57,13.57,0,0,1,2,.86,3.27,3.27,0,0,1,2,3.07,3.06,3.06,0,0,1-1.34,2.51,6.6,6.6,0,0,1-4.07,1q-4.85,0-9.81-4.1l-2.11,4a17.31,17.31,0,0,0,17.14,3.78,9.12,9.12,0,0,0,4.13-2.81,7,7,0,0,0,1.48-4.55A7.44,7.44,0,0,0,1301.1,723.85Z" transform="translate(-360.51 -250.73)"/><path class="cls-1" d="M1343.77,712.3a14.76,14.76,0,0,0-10.76-4.08h-11.82v28.94h11.69a14.85,14.85,0,0,0,10.89-4.14,14.88,14.88,0,0,0,0-20.72ZM1340.12,730a9.74,9.74,0,0,1-7,2.78H1326V712.61h6.92a10.08,10.08,0,0,1,7.12,2.72,9.3,9.3,0,0,1,3,7.36A9.42,9.42,0,0,1,1340.12,730Z" transform="translate(-360.51 -250.73)"/><polygon class="cls-1" points="997.57 482.04 997.57 474.06 1011.71 474.06 1011.71 469.71 997.57 469.71 997.57 461.85 1013.36 461.85 1013.36 457.46 992.69 457.46 992.69 486.41 1013.86 486.41 1013.86 482.04 997.57 482.04"/><path class="cls-1" d="M1398.39,723.85c-1.51-1.4-3.93-2.52-7.26-3.39a14,14,0,0,1-4.9-2,3.19,3.19,0,0,1-1.48-2.68,2.42,2.42,0,0,1,1.34-2.32,7.27,7.27,0,0,1,3.38-.69,16.49,16.49,0,0,1,8.47,2.86l2-4.48a17.12,17.12,0,0,0-10.12-3,12.93,12.93,0,0,0-7.54,2.09,6.69,6.69,0,0,0-3,5.85,7.55,7.55,0,0,0,1,4,8.1,8.1,0,0,0,2.76,2.36,25.44,25.44,0,0,0,5.37,2c1,.25,1.83.51,2.52.75a13.57,13.57,0,0,1,2,.86,3.27,3.27,0,0,1,2,3.07,3.09,3.09,0,0,1-1.32,2.51,6.7,6.7,0,0,1-4.1,1q-4.83,0-9.8-4.1l-2.11,4a16.47,16.47,0,0,0,11.84,4.63,16.2,16.2,0,0,0,5.29-.85,9.1,9.1,0,0,0,4.14-2.81,7,7,0,0,0,1.47-4.55A7.35,7.35,0,0,0,1398.39,723.85Z" transform="translate(-360.51 -250.73)"/><path class="cls-1" d="M1419.84,708.22h-5L1402,737.16h5.07l2.78-6.55h14.6l2.78,6.55h5.2Zm-8.16,18.06,5.5-12.87,5.44,12.87Z" transform="translate(-360.51 -250.73)"/><polygon class="cls-1" points="1095.2 461.85 1095.24 457.46 1075.81 457.46 1075.81 486.41 1080.69 486.41 1080.69 474.55 1093.85 474.55 1093.85 470.2 1080.69 470.2 1080.69 461.85 1095.2 461.85"/><path class="cls-1" d="M1460.1,708.22v28.94H1465V708.22Zm4.08-8.54-4.08,5.69,3.9.44,5.07-4.09Z" transform="translate(-360.51 -250.73)"/><path class="cls-1" d="M1496.47,712.36a15.35,15.35,0,0,0-11-4.2,15.62,15.62,0,0,0-10.94,4.14,14.26,14.26,0,0,0,.06,20.66,15.16,15.16,0,0,0,10.88,4.2,15.45,15.45,0,0,0,11-4.2,13.88,13.88,0,0,0,4.39-10.33A13.66,13.66,0,0,0,1496.47,712.36ZM1495,727a8.78,8.78,0,0,1-2.34,3.21,11.25,11.25,0,0,1-7.06,2.6,10.51,10.51,0,0,1-7.29-2.9,9.87,9.87,0,0,1,0-14.48,10.56,10.56,0,0,1,7.29-2.78,10.21,10.21,0,0,1,7.24,2.84,9.36,9.36,0,0,1,3,7.18A9.66,9.66,0,0,1,1495,727Z" transform="translate(-360.51 -250.73)"/><path class="cls-1" d="M1524.15,723.85c-1.52-1.4-3.94-2.52-7.27-3.39a14.28,14.28,0,0,1-4.9-2,3.19,3.19,0,0,1-1.48-2.68,2.41,2.41,0,0,1,1.36-2.32,7.17,7.17,0,0,1,3.37-.69,16.41,16.41,0,0,1,8.46,2.86l2-4.48a17.08,17.08,0,0,0-10.12-3,12.93,12.93,0,0,0-7.54,2.09,6.68,6.68,0,0,0-3,5.85,7.55,7.55,0,0,0,1,4,8.1,8.1,0,0,0,2.76,2.36,25.44,25.44,0,0,0,5.37,2c1,.25,1.83.51,2.52.75a13.57,13.57,0,0,1,2,.86,3.27,3.27,0,0,1,2,3.07,3.09,3.09,0,0,1-1.32,2.51,6.67,6.67,0,0,1-4.09,1q-4.85,0-9.81-4.1l-2.11,4a16.47,16.47,0,0,0,11.84,4.63,16.12,16.12,0,0,0,5.29-.85,9.1,9.1,0,0,0,4.14-2.81,6.93,6.93,0,0,0,1.48-4.55A7.44,7.44,0,0,0,1524.15,723.85Z" transform="translate(-360.51 -250.73)"/><path class="cls-1" d="M1534.72,732.89a2.41,2.41,0,0,0-1-.89,2.73,2.73,0,0,0-1.24-.3,2.76,2.76,0,0,0-1.27.3,2.47,2.47,0,0,0-1,.89,2.77,2.77,0,0,0-.39,1.51,2.72,2.72,0,0,0,.75,2,2.51,2.51,0,0,0,1.87.75,2.44,2.44,0,0,0,1.83-.75,3,3,0,0,0,.37-3.52Z" transform="translate(-360.51 -250.73)"/><path class="cls-1" d="M1394.3,682.92l-77.37-187.83-1.12-2.78h-178.3c46.81-3.71,78.3-29.63,88.25-69a28.49,28.49,0,0,1-18.24-48.24,28.14,28.14,0,0,1,18.24-8.54c-11.07-43.11-48.67-68-104.4-68h-92.15V614.77L944.66,494.29l-1.11-1.49V491c35.75-9.22,62.34-34.33,62.34-81.33V298.48H938.05V409.87c0,17.37-11.88,27.33-29.5,27.33-17.94,0-29.75-10-29.75-27.33V298.48H811V409.62c0,46.75,26.16,71.87,61.72,81.2v47.5H768.34v28.21H863v46.88H768.34v28.51H872.67v46.57H939.9V565.78l84.86,120.79,1.42,1.92h56.22V538.82h42.67V688.49h51l2.23-5.57,2.72-6.49V538.82h56.65l.18-.56.44-1v1.61h-.62l-56.65,137.61v12.06h52.13l1.06-2.78,12.8-32.54h78.48l12.81,32.54,1.11,2.78h55v-5ZM936,490.51v.25a23.94,23.94,0,0,1-1,3.84v.12c-.07.12-.13.31-.25.5v.18l-.37.8-.13.31-.06.19a28.42,28.42,0,0,1-10.33,12.55A28,28,0,0,1,908,514.08,28.37,28.37,0,0,1,893.27,510,28,28,0,0,1,883,499.3a14.79,14.79,0,0,1-1.36-2.79l-.06-.18-.06-.13v-.06a11.43,11.43,0,0,1-.56-1.42v-.06l-.06-.06a24,24,0,0,1-.93-3.84.37.37,0,0,1-.06-.25,26.6,26.6,0,0,1-.43-4.94,28.51,28.51,0,1,1,57,0A26.69,26.69,0,0,1,936,490.51Zm186.71-53.8h-25.66V352h21.52c25.91,0,42.18,14.9,42.18,43.78C1160.76,425.76,1143.38,436.71,1122.72,436.71Zm142.44,174.16,21.15-54.24,20.84,54.24Z" transform="translate(-360.51 -250.73)"/><polygon class="cls-1" points="187.94 47.95 187.88 48.07 187.9 47.95 187.94 47.95"/><polygon class="cls-1" points="237.66 168.23 200.45 168.23 214.33 132.96 219.06 119.33 223.78 132.96 237.66 168.23"/><polygon class="cls-1" points="266.55 242.41 171.28 242.41 180.11 220.06 180.16 219.9 257.67 219.9 266.55 242.41"/><path class="cls-1" d="M793.68,437.67v54.07H712.06V688.5H659.74V573L596,671.25l-3.6,5.85-3.9-5.85L525.61,573V688.5h-52.3V495.89a157.56,157.56,0,0,1-16.12.77c-35.57,0-63.71-10.2-86.59-22.88l16.82-50.47c22.07,11.87,48,17.66,71.14,17.66,10.2,0,21-1.1,21-6.06,0-15.5-82.51-3.84-98.09-54.72.65.05,1.3.07,2,.07a28.51,28.51,0,0,0,7.72-56c15-18.9,42.63-27.82,76-27.82a186.76,186.76,0,0,1,74.73,15.43q-10.79,25.14-21.58,50.26l-.16.35c-8-4.67-29.1-15.38-56-11.46-4.12.61-18.47,2.68-18.47,6.34,0,10.56,37.94,7.58,67.72,20.36,9.82,4.22,18.76,10.14,25.16,18.83a49.09,49.09,0,0,1,8.27,18.19,27.93,27.93,0,0,0-7.4-1,28.53,28.53,0,0,0-10,55.22c.57.21,1.16.41,1.77.59-.14,1.33-.28,2.67-.41,4-9.36,8.86-21.92,15-36.43,18.71h35l.57.81.83,1.14,61.77,97.4,62.32-97.4.83-1.14.24-.34.33-.47h40.59l-54.43-122.5v-1.34l-30.68-69.08q15.33.18,30.68.37h67.84V437.67Z" transform="translate(-360.51 -250.73)"/><path class="cls-2" d="M404.82,351.73a21.42,21.42,0,0,1-21.42,21.43,20.15,20.15,0,0,1-3.68-.34,21.4,21.4,0,0,1,3.68-42.49,21.05,21.05,0,0,1,3.39.27A21.4,21.4,0,0,1,404.82,351.73Z" transform="translate(-360.51 -250.73)"/><path class="cls-2" d="M560.76,442.31a21.39,21.39,0,0,1-21.4,21.41H539a21.4,21.4,0,0,1-3-42.54,21.9,21.9,0,0,1,3.37-.27,21.44,21.44,0,0,1,21.4,21.4Z" transform="translate(-360.51 -250.73)"/><path class="cls-2" d="M1249.39,394.9A21.41,21.41,0,0,1,1228,416.3c-.23,0-.45,0-.69,0a21.4,21.4,0,0,1,0-42.77c.24,0,.46,0,.69,0A21.42,21.42,0,0,1,1249.39,394.9Z" transform="translate(-360.51 -250.73)"/><path class="cls-1" d="M380.31,253.21a13.22,13.22,0,0,0-8.29-2.42H360.51v29h4.89V271H372a14.52,14.52,0,0,0,6.62-1.36,8.17,8.17,0,0,0,3.71-3.78,11.15,11.15,0,0,0,1.17-5.25C383.52,257.29,382.47,254.81,380.31,253.21Zm-8.48,13.42H365.4V255.18h6.43c4.64,0,7,1.86,7,5.57C378.82,264.65,376.47,266.63,371.83,266.63Z" transform="translate(-360.51 -250.73)"/><path class="cls-1" d="M405.72,270c4-1.61,6-4.7,6-9.4a10,10,0,0,0-1.48-5.69,9.39,9.39,0,0,0-4.33-3.22,17.31,17.31,0,0,0-5.81-.93H388.35v29h4.88V271c5.2,0,7.92-.06,8.17-.06l5.31,8.78h5.51Zm-5.62-3.4h-6.87V255.18h6.87c4.64,0,7,1.86,7,5.57C407.09,264.65,404.74,266.63,400.1,266.63Z" transform="translate(-360.51 -250.73)"/><rect class="cls-1" x="57.72" y="0.04" width="4.88" height="28.95"/><polygon class="cls-1" points="101.47 28.99 96.96 28.99 96.92 7.28 87.41 25.97 84.31 25.97 74.72 7.28 74.72 28.99 70.21 28.99 70.21 0.04 75.87 0.04 85.88 19.39 95.81 0.04 101.47 0.04 101.47 28.99"/><polygon class="cls-1" points="130.25 28.99 109.08 28.99 109.08 0.04 129.75 0.04 129.75 4.42 113.96 4.42 113.96 12.28 128.1 12.28 128.1 16.62 113.96 16.62 113.96 24.61 130.25 24.61 130.25 28.99"/><path class="cls-1" d="M514.14,270c4-1.61,6-4.7,6-9.4a10,10,0,0,0-1.54-5.69,9.59,9.59,0,0,0-4.27-3.22,17.69,17.69,0,0,0-5.88-.93H496.7v29h4.89V271c5.19,0,7.92-.06,8.16-.06l5.32,8.78h5.57Zm-5.69-3.4h-6.86V255.18h6.86q7.05,0,7.05,5.57C515.5,264.65,513.15,266.63,508.45,266.63Z" transform="translate(-360.51 -250.73)"/><path class="cls-1" d="M551.68,279.74A14.79,14.79,0,0,1,541,275.52a13.83,13.83,0,0,1-4.37-10.33A13.61,13.61,0,0,1,541,254.92a15.48,15.48,0,0,1,21.83.68L560,259c-2.46-2.57-5.14-3.85-8.06-3.85a10.34,10.34,0,0,0-7.37,2.8,9.46,9.46,0,0,0-3,7.2,10,10,0,0,0,2.74,6.93,9.61,9.61,0,0,0,3.24,2.25,10.94,10.94,0,0,0,4.36.83,11.9,11.9,0,0,0,8.06-3.31l2.89,3.08A15.78,15.78,0,0,1,551.68,279.74Z" transform="translate(-360.51 -250.73)"/><path class="cls-1" d="M591.08,254.94a15.18,15.18,0,0,0-11-4.21,15.37,15.37,0,0,0-10.88,4.15,13.5,13.5,0,0,0-4.45,10.32,13.69,13.69,0,0,0,4.45,10.33,16.25,16.25,0,0,0,21.83,0,13.64,13.64,0,0,0,4.39-10.33A13.41,13.41,0,0,0,591.08,254.94Zm-1.42,14.59a9.59,9.59,0,0,1-2.41,3.16,10.1,10.1,0,0,1-3.28,2,11.36,11.36,0,0,1-3.77.68,10.23,10.23,0,0,1-7.24-2.91,9.19,9.19,0,0,1-3.15-7.24A9.32,9.32,0,0,1,572.9,258a10.63,10.63,0,0,1,7.3-2.79,10.17,10.17,0,0,1,7.23,2.85,9.31,9.31,0,0,1,3.1,7.17A10.52,10.52,0,0,1,589.66,269.53Z" transform="translate(-360.51 -250.73)"/><polygon class="cls-1" points="265.31 28.99 260.51 28.99 245.09 8.15 245.09 28.99 240.21 28.99 240.21 0.04 245 0.04 260.51 20.97 260.51 0.04 265.31 0.04 265.31 28.99"/><path class="cls-1" d="M646.29,279.74a15.08,15.08,0,0,1-10.83-4.19,13.72,13.72,0,0,1-4.39-10.33,13.47,13.47,0,0,1,4.47-10.29,15.61,15.61,0,0,1,11-4.16,17,17,0,0,1,11.12,4.06l-2.77,3.51a12.62,12.62,0,0,0-8.35-3.22,11.52,11.52,0,0,0-4,.68,10.17,10.17,0,0,0-3.38,2A9.62,9.62,0,0,0,636.9,261a10,10,0,0,0-.87,4.24,9.58,9.58,0,0,0,1.49,5.35,10.29,10.29,0,0,0,3.9,3.54,11.18,11.18,0,0,0,5.2,1.25,13.24,13.24,0,0,0,6.66-2l0-6.12h-7V263h11.37l0,13A18.94,18.94,0,0,1,646.29,279.74Z" transform="translate(-360.51 -250.73)"/><path class="cls-1" d="M681.87,270c4-1.61,6-4.7,6-9.4a10,10,0,0,0-1.54-5.69,9.44,9.44,0,0,0-4.33-3.22,17.33,17.33,0,0,0-5.82-.93H664.43v29h4.89V271c5.19,0,7.92-.06,8.22-.06l5.26,8.78h5.57Zm-5.69-3.4h-6.86V255.18h6.86q7.05,0,7.05,5.57C683.23,264.65,680.88,266.63,676.18,266.63Z" transform="translate(-360.51 -250.73)"/><polygon class="cls-1" points="355 28.99 333.82 28.99 333.82 0.04 354.5 0.04 354.5 4.42 338.71 4.42 338.71 12.28 352.85 12.28 352.85 16.62 338.71 16.62 338.71 24.61 355 24.61 355 28.99"/><path class="cls-1" d="M730.56,279.74a16.42,16.42,0,0,1-11.82-4.63l2.11-4q4.95,4.11,9.8,4.1a6.69,6.69,0,0,0,4.09-1,3.1,3.1,0,0,0,1.32-2.52,3.25,3.25,0,0,0-1.94-3.06,14.78,14.78,0,0,0-2-.87c-.68-.24-1.52-.49-2.52-.74a25,25,0,0,1-5.37-2,8.27,8.27,0,0,1-2.77-2.38,7.41,7.41,0,0,1-1-3.95,6.69,6.69,0,0,1,3-5.85,12.93,12.93,0,0,1,7.53-2.08,17.2,17.2,0,0,1,10.13,3l-2,4.47a16.65,16.65,0,0,0-8.47-2.86,7.23,7.23,0,0,0-3.38.71,2.42,2.42,0,0,0-1.34,2.31,3.22,3.22,0,0,0,1.47,2.69,14.61,14.61,0,0,0,4.9,1.94c3.34.86,5.76,2,7.28,3.39a7.48,7.48,0,0,1,1.94,5.11,7,7,0,0,1-1.47,4.55,9.34,9.34,0,0,1-4.14,2.81A16.24,16.24,0,0,1,730.56,279.74Z" transform="translate(-360.51 -250.73)"/><path class="cls-1" d="M771.06,254.94a16.34,16.34,0,0,0-21.83-.06,13.51,13.51,0,0,0-4.46,10.32,13.7,13.7,0,0,0,4.46,10.33,15.24,15.24,0,0,0,10.88,4.21,15.41,15.41,0,0,0,10.95-4.21,13.85,13.85,0,0,0,4.39-10.33A13.41,13.41,0,0,0,771.06,254.94Zm-1.49,14.59a8.59,8.59,0,0,1-2.35,3.16,10.37,10.37,0,0,1-3.34,2,10.71,10.71,0,0,1-3.71.68,10.47,10.47,0,0,1-7.29-2.91,9.86,9.86,0,0,1,0-14.47,10.52,10.52,0,0,1,7.29-2.79,10.18,10.18,0,0,1,7.24,2.85,9.25,9.25,0,0,1,3,7.17A9.63,9.63,0,0,1,769.57,269.53Z" transform="translate(-360.51 -250.73)"/><polygon class="cls-1" points="457.67 28.99 452.88 28.99 437.45 8.15 437.45 28.99 432.57 28.99 432.57 0.04 437.37 0.04 452.88 20.97 452.88 0.04 457.67 0.04 457.67 28.99"/><path class="cls-1" d="M839.83,250.79h-4.94l-12.81,29h5.07l2.79-6.56h14.59l2.79,6.56h5.19Zm-8.1,18.06L837.24,256l5.44,12.86Z" transform="translate(-360.51 -250.73)"/><path class="cls-1" d="M868.27,279.74a14.81,14.81,0,0,1-10.69-4.22,13.83,13.83,0,0,1-4.36-10.33,13.6,13.6,0,0,1,4.38-10.27,15.48,15.48,0,0,1,21.83.68L876.58,259a11,11,0,0,0-8.06-3.85,10.3,10.3,0,0,0-7.36,2.8,9.44,9.44,0,0,0-3,7.2,10,10,0,0,0,2.74,6.93,9.61,9.61,0,0,0,3.24,2.25,10.94,10.94,0,0,0,4.36.83,11.9,11.9,0,0,0,8.06-3.31l2.9,3.08A15.82,15.82,0,0,1,868.27,279.74Z" transform="translate(-360.51 -250.73)"/><rect class="cls-1" x="523.92" y="0.04" width="4.88" height="28.95"/><path class="cls-1" d="M920.79,254.94a15.2,15.2,0,0,0-10.95-4.21A15.37,15.37,0,0,0,899,254.88a13.5,13.5,0,0,0-4.45,10.32A13.69,13.69,0,0,0,899,275.53a16.25,16.25,0,0,0,21.83,0,13.64,13.64,0,0,0,4.39-10.33A13.41,13.41,0,0,0,920.79,254.94Zm-1.48,14.59a8.7,8.7,0,0,1-2.35,3.16,10.89,10.89,0,0,1-3.28,2,11.36,11.36,0,0,1-3.77.68,10.48,10.48,0,0,1-7.3-2.91,9.86,9.86,0,0,1,0-14.47,10.63,10.63,0,0,1,7.3-2.79,10.17,10.17,0,0,1,7.23,2.85,9.25,9.25,0,0,1,3,7.17A9.63,9.63,0,0,1,919.31,269.53Z" transform="translate(-360.51 -250.73)"/><polygon class="cls-1" points="595.01 28.99 590.21 28.99 574.79 8.15 574.79 28.99 569.91 28.99 569.91 0.04 574.7 0.04 590.21 20.97 590.21 0.04 595.01 0.04 595.01 28.99"/><path class="cls-1" d="M977.2,250.79h-5l-12.81,29h5.08l2.78-6.56h14.6l2.78,6.56h5.26Zm-8.11,18.06L974.54,256,980,268.85Z" transform="translate(-360.51 -250.73)"/><polygon class="cls-1" points="650.59 28.99 633.18 28.99 633.18 0.04 638.06 0.04 638.06 24.56 650.59 24.56 650.59 28.99"/><path class="cls-1" d="M1050.8,254.88a14.83,14.83,0,0,0-10.77-4.09h-11.87v29h11.75a14.83,14.83,0,0,0,10.89-4.15,13.57,13.57,0,0,0,4.2-10.32A13.71,13.71,0,0,0,1050.8,254.88Zm-3.65,17.68a9.71,9.71,0,0,1-7,2.79h-7.11V255.18H1040a10,10,0,0,1,7.11,2.73,9.26,9.26,0,0,1,3,7.36A9.39,9.39,0,0,1,1047.15,272.56Z" transform="translate(-360.51 -250.73)"/><polygon class="cls-1" points="720.88 28.99 699.71 28.99 699.71 0.04 720.39 0.04 720.39 4.42 704.59 4.42 704.59 12.28 718.73 12.28 718.73 16.62 704.59 16.62 704.59 24.61 720.88 24.61 720.88 28.99"/><path class="cls-1" d="M1237.88,538.26l-.18.56h.62v-1.61Zm-59.55,144.66-2.23,5.57h5V676.43Z" transform="translate(-360.51 -250.73)"/><path class="cls-1" d="M1178.33,682.92l-2.23,5.57h5V676.43Zm59.55-144.66-.18.56h.62v-1.61Zm156.6,145.22v5h2Z" transform="translate(-360.51 -250.73)"/><polygon class="cls-1" points="1087.96 391.3 1087.96 241.6 1033.98 241.6 1033.98 437.77 1170.33 437.77 1170.33 391.3 1087.96 391.3"/><path class="cls-2" d="M929.39,485.57a20.22,20.22,0,0,1-.37,3.83,16.77,16.77,0,0,1-.74,2.91,6.75,6.75,0,0,1-.44,1.17l-.18.44a21.52,21.52,0,0,1-7.73,9.46,21.41,21.41,0,0,1-30.74-7.48,22.7,22.7,0,0,1-1-2.11l-.13-.31c-.12-.37-.31-.74-.43-1.17a21.37,21.37,0,0,1-.74-2.91,25.38,25.38,0,0,1-.31-3.83,21.4,21.4,0,0,1,42.8,0Z" transform="translate(-360.51 -250.73)"/><path class="cls-2" d="M1443.47,429.9a31,31,0,1,0,9.09,21.9A31.05,31.05,0,0,0,1443.47,429.9Zm-22,45a23.1,23.1,0,1,1,23.13-23.13A23.14,23.14,0,0,1,1421.51,474.93Z" transform="translate(-360.51 -250.73)"/><polygon class="cls-1" points="877.83 286.5 877.83 287.54 877.39 287.54 877.83 286.5"/></svg>