<svg xmlns="http://www.w3.org/2000/svg" viewBox="0 0 669.69 875.23"><defs><style>.cls-1{fill:none;stroke:#499896;stroke-miterlimit:10;stroke-width:0.93px;}</style></defs><g id="Capa_2" data-name="Capa 2"><g id="Capa_1-2" data-name="Capa 1"><path class="cls-1" d="M.18,874.8c31.56-13,78.5-37.1,88.86-73.81,4.84-17.15.89-32.62-1.05-51-2-19.19,1.33-35.54,9.67-51.35,9.85-18.67,29.35-29.78,44-44.69,18.2-18.57,32.52-41.44,43.14-65.5,10.72-24.31,22.38-54.62.48-75.44-14.47-13.75-23.79-25.32-16.81-48.09,7.77-25.34,27.4-42.37,46-57.85,18.24-15.21,41.28-32.76,36.16-62.39-2.77-16.06-11.1-29.09-19.26-42.18-11.59-18.59-19.9-35.93-24.48-58.07-5.76-27.86-3.9-58.23,10.71-82.65,19.15-32,52.69-51.59,74.06-78.42,11-13.74,14.85-22.28,9.44-40.85C296.81,28.05,289.55,15,285.59.12M16.25,874c30.27-13.32,78.46-36.77,86.16-74.09,3.48-16.9-1.28-32.29-3.47-50a85.84,85.84,0,0,1,9-51.28c9.45-18.44,26.24-32.88,40.05-48.55a263.49,263.49,0,0,0,42.79-65.6c10.62-23.61,23.67-55.86,1.79-76.94-13.06-12.58-23.78-21.74-16.78-43.73,7.78-24.46,26.16-41.55,43.81-56.75,18.34-15.81,41.25-34,34.62-64-3.45-15.63-11.88-28.21-19.56-41.4-10.55-18.14-18.16-36.14-22.59-57.22-6-28.48-4.16-58.25,11.19-83,19.49-31.4,52.88-50.6,73.15-78.13,10.42-14.17,13.11-22.65,7.19-40.81C298.88,28,291.76,15.27,287.74.12m-253,872c28.4-13.08,74.43-34.78,80.48-72.89,2.69-16.95-3.29-32.42-5.5-49.2-2.44-18.57,1.12-35,8-51.21,18.43-43.39,59.38-74.65,79.23-117.72,10.66-23.15,24.38-56.89,2.95-78.45-11.75-11.82-23.34-19-16.7-39.8,7.49-23.47,25-41.06,42-55.81,18.58-16.15,40.93-35.66,32.79-65.74-4.14-15.33-12.89-27.38-20.13-40.83a202.25,202.25,0,0,1-20.34-55.89c-6.15-29.43-4.39-58.33,11.8-83.49,19.74-30.7,53-49.6,72-77.77,9.83-14.57,11.35-23,4.94-40.77C300.94,27.91,294,15.53,289.88.12M54.71,869.33c26.28-12.39,69.67-33.73,72.47-70.52,1.28-16.85-5-32.38-7.22-49-2.48-18.17.46-35.24,6.1-51.73,15.49-45.28,57.15-77.49,77.09-119.85,11.17-23.72,24.19-56.69,3.93-79.84-10.09-11.52-22.86-16.79-16.52-36.5,7.44-23.16,24.22-40.47,40.85-55.32,18.62-16.63,39.94-37.33,30.28-67.19-4.84-15-13.92-26.83-20.95-40.43-8.89-17.21-14.71-35.5-18.57-54.78-5.95-29.82-3.32-58.58,13.33-83.61,19.9-29.91,53-48.61,70.59-77.32,17.17-28.1-5.93-52.15-14.07-83.1M75.41,866.25c23.89-11.63,63.53-32.16,62.41-67.35-.55-17.08-6.84-32.89-9.28-49.75-2.64-18.22-.14-35.81,4.83-52.67,13.82-46.86,55.73-78.11,76.1-120.37,11.37-23.59,24.2-57.32,4.74-81.28C205.4,484,192.09,479.22,197.9,461.1c7.51-23.43,23.93-40.16,40.45-55.58,18.56-17.32,38.22-38.69,27.08-68.13-5.57-14.74-15-26.39-21.93-40.22-8.41-16.82-13.32-35.14-16.75-53.78-5.53-30-1.78-58.62,15.06-83.41,19.83-29.2,53.06-47.67,69.06-76.82,8.41-15.33,7.73-23.8.46-40.69C305.05,27.88,298.31,16,294.16.12M96,863.24c22.35-11.59,55.06-30.4,50.68-64-2.24-17.27-8.39-33.67-11-51-2.82-18.58-.48-36.62,4.26-54,13.29-48.65,55.38-75.66,76-119.4,11.42-24.2,23.66-58,5.35-82.83-7.51-10.2-21.35-14.9-16-31.5,7.67-24,24.06-40.17,40.61-56.51,18.4-18.16,35.87-39.83,23.35-68.69-6.29-14.48-16.34-26-23.12-40.1-7.86-16.35-12-35-14.84-53-4.84-30.2,0-58.5,17.13-82.94,19.8-28.26,53-46.77,67.27-76.24,13.59-28-11.55-53-19.32-83M115.53,860.72c22.25-12,44.95-29.34,38.59-61.11-7.82-39.07-18.72-68.9-8.18-108,13.29-49.2,55.29-74.12,76.7-116.78,12.23-24.37,22.36-58.1,5.52-84.36-6.22-9.71-20.36-15.55-15.65-30.24,13.59-42.34,86-75,60.42-127-7-14.21-17.76-25.74-24.45-40.11-7.42-15.93-10.63-34.83-12.88-52.25-3.93-30.3,2.09-58.2,19.42-82.2,19.67-27.26,52.78-46,65.3-75.64C332.14,55,306.07,29.79,298.45.12m-165.2,859c23.59-13.35,32.32-30.37,27.39-59-6.92-40.23-20.5-70-8.87-111.27,6.58-23.39,18.32-44.76,34.71-61.7C202.1,611,219.72,596.81,230,576c13.07-26.43,20-57.18,4.57-85.36-5.11-9.37-18.66-17.72-14.8-30.35,13.18-43.2,86.67-77.14,56.92-129.17-7.65-13.39-19.52-25.79-26-40.22-7-15.7-9.2-34.64-10.8-51.68C237.06,209,244.32,181.5,261.78,158,281.23,131.8,314.3,112.67,325,83,335,54.94,308.09,29.67,300.59.12M148.29,858.89c21.63-13.14,23.47-33.9,18.38-58.22-8.53-40.72-21.54-72.69-9-114.58,7-23.31,18.76-44.93,36-61,16.08-15,34.2-26.33,44.22-47.19,13.2-27.44,18.13-57.37,3.21-86.22-4.73-9.14-17.7-19.66-13.89-31.43,14.08-43.5,86.14-78.9,53.23-131.28-8.24-13.13-21.05-25.79-27.54-40.44-6.83-15.4-7.92-34.53-8.77-51.2-1.56-30.18,6.89-57.12,24.55-80.09,19.19-25,52.08-44.83,60.85-74.31,8.37-28.15-19.4-53.24-26.81-82.83m-142.28,860c19.39-13.31,16.81-37.73,12.18-58.86-9.24-42.14-22.55-74.62-8.73-117.6,7.32-22.76,19.24-45.12,37.44-59.52,17.23-13.63,34.93-21.73,44.93-43.62,13-28.45,16-57.81,1.82-87.35-4.83-10.05-16.72-21.6-12-34,16.22-42.42,83.51-80.63,48.11-132.32-8.84-12.92-22.57-25.83-29.16-40.74-6.73-15.21-6.68-34.47-6.73-50.82-.11-30,9.55-56.32,27.25-78.79,18.83-23.9,51.57-44.35,58.47-73.61,6.69-28.35-21.83-53-29.17-82.78M170.48,862.36c17.39-14.08,12.73-41.21,8.49-60.61-9.47-43.3-23.34-76.29-8.21-120.07,7.7-22.27,19.82-45.28,39.38-57.08,18.5-11.15,35.4-18.59,44.89-41,12.58-29.71,13.37-58.18.4-88.68-5.08-11.94-14.75-23.67-9.12-37.43C263.64,415.12,326.1,375.3,288,324.75c-9.57-12.69-24.07-25.91-30.82-41.11s-5.48-34.42-4.7-50.54c1.45-29.61,12.29-55.37,30-77.34,18.43-22.86,50.92-44,56-72.91,5-28.63-24.17-52.53-31.46-82.73M179.25,865.25c15.84-15.67,11-43.55,6.87-63-4.19-19.86-11.73-40.21-15.31-60.84-3.86-22.21.23-40.64,7.71-60.88,8.59-23.27,20.71-43.38,42-53.73,18.91-9.18,35-17.18,43.56-39.59,11.94-31.13,10.35-58.58-1-90.2-5.07-14.1-12-26.6-5.44-41.66,18.81-43.39,74.13-83.09,34.08-132.61-10.14-12.54-25.52-26-32.48-41.55-6.79-15.14-4.35-34.38-2.68-50.34,3.06-29.08,15.1-54.32,32.75-75.8,18-22,50.15-43.61,53.49-72.19,3.39-28.95-26.39-51.95-33.65-82.69M187.6,868.36c15.05-17.34,11-45.29,6.92-65.83-4-20.2-11.59-40.89-15.21-61.82-3.84-22.23.35-40.25,8.15-60.46,9-23.26,23.35-40.76,44.61-50,18.84-8.21,33.68-16.72,41.35-39.16,11.15-32.66,7.19-58.7-2.41-91.72-4.82-16.6-8.42-30.27-1.12-46.64,10.65-23.86,26.92-44,38.11-67.68,12.06-25.53,3.46-44.8-12.54-64.34-10.23-12.5-26.91-26.11-34.12-42-6.93-15.31-3.3-34.37-.69-50.22,4.7-28.52,17.85-53.1,35.52-74.19s49.2-43.32,50.87-71.5C348.78,53.42,318.52,31.52,311.3.12M196.38,871.25c15-18.75,12.23-46.59,8.23-68.56-8-43.58-24.91-79.8-5.31-121,10.29-21.64,24-37.86,45.24-46.92,18.25-7.81,31.91-17.53,38.36-39.55,10-34,3.69-59.44-3.81-93.45-4.17-18.94-4.31-34.37,3.75-51.95,10.48-22.89,25.8-44,34.65-68,9.6-26.06-2.43-44.9-18.29-63-10.9-12.44-28.26-26.22-35.71-42.51-7.13-15.59-2.34-34.39,1.25-50.17,6.32-27.85,20.53-51.78,38.23-72.52,17.3-20.27,48.1-43.05,48.2-70.83C351.28,53,320.61,32.26,313.44.12m-107,873.39c15.4-19.64,13.74-46.74,10.11-70.2-3-19.62-9.21-39.53-12.52-59.59-3.71-22.47.44-39,9.94-58.09,10.4-21,23.53-36,43.74-45.54,17.56-8.32,29.47-18.89,34.77-40.63,4.7-19.24,7-38.83,3.28-59.12-2.24-12.24-6.57-23.74-8.46-36.1-3.24-21.22.2-38.72,9-57.57,10.15-21.78,24.66-44,30.67-68.1,6.58-26.44-8.2-44.63-24-61.64-11.45-12.32-29.64-26.2-37.1-43.05-7.2-16.24-1.69-34.08,3-50.17,7.94-27.15,23.11-50.38,40.86-70.85,17-19.59,46.86-42.8,45.5-70.17-1.5-30.15-32.52-49.64-39.61-82.57m-97,874.59c15.12-18.42,13.95-46.7,11.54-69.28-2-18.61-6.8-37.5-9.47-56.42-3.13-22.17.95-37.93,10-57.38,9.56-20.55,22.07-35.39,40.68-45.63,16.59-9.13,26.54-21.14,30.72-42.25,3.68-18.6,5.32-37.38,2-56.66-2.35-13.72-7.44-26.35-8.66-40.37-2-23.4,5.06-43.12,14.55-63.3,9.83-20.89,23.19-43.88,26.3-68,3.41-26.42-13.87-44.18-29.66-60.24-12-12.24-30.87-26.3-38.51-43.56-7.41-16.74-1-34.3,4.83-50.23,9.56-26.28,25.41-48.79,43.37-69.2,16.34-18.57,45.76-42.67,42.77-69.57C355.66,51.83,324.7,33.84,317.72.12M233,874.78c12.55-18.47,13-44.49,12.07-66.08-1.63-39.38-12-73,3.83-109.59,8.54-19.75,19.18-35.17,36.37-46.88,15.36-10.46,23.29-23.81,26.37-44.26,2.86-19.06,3.91-38.22.22-57.61-2.66-14-7.75-26.58-8.2-41.1-.79-25.6,9.87-47.28,20.13-69.12,9.6-20.43,21.64-43.6,21.69-67.65.05-26.14-19.18-43.42-35.15-58.86-12.58-12.16-32-26.39-39.76-44.07-7.6-17.28-.25-34.46,6.54-50.34,10.89-25.47,27.69-47.35,45.68-67.59,16.13-18.14,44.33-42.46,40.09-69-5-31.06-36.18-48-43-82.5M247.52,874.78c10-18,12.46-41.24,13.26-62,1.44-37.63-5.62-70.34,7.2-105.26,7.19-19.58,16.27-35.38,31.22-49,13.54-12.33,19.68-26.65,21.82-46.5,2.22-20.63,2.27-41-2.32-61.53-2.95-13.18-7.11-24.87-6.84-38.72.54-27.59,14.42-51.47,25.54-74.83,9.62-20.22,20.13-43.23,17-67.19-3.37-25.62-24-42.36-40.41-57.52-13.09-12.1-33-26.47-40.86-44.56-7.76-17.82.43-34.71,8.15-50.48,12.08-24.69,29.76-45.92,47.79-66.08,15.95-17.82,42.8-42.29,37.42-68.5C360.07,51.4,328.58,35.3,322,.12M262.07,874.78c8.29-17.58,12.05-38.09,14.88-57.58,5-34.32,1-68.38,10.48-101,5.67-19.49,13.28-36,25.56-51.64,11.24-14.31,15.93-29.48,17.23-48.82,1.42-21,.91-41.76-4-62.43-3.2-13.48-7.29-25-6.37-39.24,1.91-29.44,18.9-55.32,30.83-80.21,9.81-20.45,18.72-42.92,12.33-66.62-6.72-24.93-28.32-41.13-45.39-56.29-13.49-12-33.86-26.51-41.76-45s1.08-35,9.64-50.66c13.13-23.95,31.6-44.53,49.65-64.66,15.8-17.6,41.2-42.19,34.8-68.07C362.22,51.33,330.44,36,324.14.12m-47.5,874.67c7-16.88,11.66-35.37,16.51-53.13,8.59-31.46,6.69-65.82,13.49-97,8-36.7,31.27-66.61,32.51-105.59.7-22.12-.2-44.64-6.19-66.15-3.52-12.63-6.85-23.24-5.48-36.74,3.15-31.12,23.67-59,35.9-85.14,9.86-21.08,17.48-42.49,7.88-66-9.85-24.11-32.15-39.86-50-55.19-13.81-11.83-34.59-26.51-42.44-45.39s1.73-35.42,11-50.85c14-23.28,33.16-43.23,51.21-63.38,15.67-17.49,39.55-42.18,32.25-67.72-8.91-31.2-41-46-47-82.42M291.2,874.81c5.8-16.48,11-33,17.75-49,12.5-29.79,11.32-62,16.09-93.4,5.73-37.69,22.18-72.16,22.68-110.41.29-22.06-1.37-45.25-7.61-66.92-3.68-12.8-7-23.23-5.16-36.94,4.31-32.68,27.55-62,40.36-89.48,10.15-21.81,16.17-42.52,3.77-65.34C366.45,340,343.58,324.63,324.81,309c-14-11.68-35.15-26.47-42.86-45.72s2.38-35.83,12.23-51.06c14.69-22.71,34.49-42,52.47-62.26,15.52-17.5,37.84-42.3,29.77-67.46-10-31.12-42.46-45.46-48-82.4m-22.66,874.7c4.41-16.25,9.88-31.47,18.18-45.7,16.5-28.3,15-58.07,18.12-90.46,3.68-38,14.87-75.82,13.81-114.46-.6-21.54-2.24-43.53-7.92-64.4-3.86-14.17-8.13-25.21-5.74-40.15,5.46-34,30-63.87,44-93,10.89-22.71,14.61-42.92.11-64.67-14.92-22.4-38.37-37.66-58-53.55-14.91-12.08-34.8-26.1-43.14-45.95-8-19,3.49-36.81,13.42-51.28,15.26-22.23,35.48-41,53.35-61.36,15.37-17.52,36.09-42.51,27.4-67.28-10.88-31-43.77-45-48.84-82.39M320.31,874.81c2.61-16.24,8-30.65,17.37-43.44,19.68-26.88,17.48-55,19.45-88.34,2.3-38.79,8.34-78.34,6.38-117.28-1.09-21.71-3.05-43.87-8.84-64.88-3.92-14.2-8.37-25-5.72-40,6.18-35,33.33-65.84,47-95.73,10.62-23.19,13.52-42.76-2.87-64.06-16.75-21.77-40.82-36.87-61.21-53.07-14.9-11.82-35.2-25.95-43-46.11-7.46-19.33,4.12-37.21,14.31-51.49,21.83-30.6,95.51-83,79-127.89C371.65,53.89,332.12,36.57,332.7.12m2.14,874.68c.17-16.35,4.91-30.68,14.94-42.68,21.4-25.59,18.5-53.71,19.89-87.23,1.63-39.34,3.55-79.28.91-118.4-1.34-19.86-3.38-39.84-8-59.22-3.93-16.32-10.5-28.46-7.34-45.63,6.56-35.61,35.33-67,49.09-97.36,10.59-23.35,12.2-43.08-5.05-63.54-18.06-21.41-42.81-36.41-63.86-52.88-14.6-11.42-35.5-25.82-42.48-46.17-6.68-19.47,4.77-37.6,15-51.67,22.22-30.53,94.63-81.91,76.88-127.53-10.95-28.15-51.31-45.86-50-82.37m14.55,874.69c-1.73-15.69,2.52-31.32,11.7-43.12,20.58-26.43,18-53.72,18.67-88.1.73-39.16-.38-78.5-3.22-117.25-1.44-19.68-3.52-39.58-7.9-58.9-3.75-16.55-9.52-28.51-5.92-45.69C370.13,486.4,396.21,456,411,424.68c27.54-58.2-37.61-89.76-71.91-116.86-14.43-11.41-35-25.88-41.53-46.28-6.23-19.47,5.9-37.7,16-51.76,23.08-32.12,91.07-81.53,73.41-127.15C376,54.08,337.29,37.14,337,.12m27,874.69a57,57,0,0,1,8.53-44.41c19.46-28,17.65-53.94,17.68-89.17,0-38.59-4.28-76.84-7.4-115-1.59-19.5-3.64-39.18-7.71-58.37-3.53-16.66-8.54-28.45-4.61-45.55,8-34.91,33.05-65,46.81-96.56,10.93-25.08,9.11-44.52-8.63-64-19.3-21.26-44.2-36.63-65.76-53.92-14.23-11.41-34.44-26-40.39-46.5-5.63-19.42,6.91-37.79,16.87-51.73,22.88-32,88-81.54,69.76-126.7-11.44-28.38-49.81-45.79-50-82.75M378.5,874.8a56.38,56.38,0,0,1,5.43-46.33c18.15-29.5,17.63-54.55,16.86-90.41-.82-37.76-8.2-74.38-11.58-111.89-1.74-19.23-3.74-38.64-7.47-57.62-3.29-16.69-7.56-28.34-3.42-45.25,8.43-34.36,31.89-64.12,44.7-95.89,10.36-25.72,7.81-45.16-10.11-64.81-19.57-21.45-44.67-37.09-66.3-54.78-13.66-11.18-34.23-26.5-39-46.85-4.57-19.69,7.42-37.3,17.48-51.57,22.73-32.22,84.56-81.4,65.95-126.19C379.32,54.92,341.26,37,341.27.12M393.05,874.8a57.36,57.36,0,0,1,2.38-48.68c6-11.14,12.42-22.66,15.32-35.69,4-17.82,1.46-37.94.83-56.12-1.29-37.17-12.05-71.39-15.73-108.18-1.9-18.94-3.82-38-7.2-56.7-3-16.61-6.57-28.17-2.29-44.82,8.66-33.72,30.41-63.16,42.06-95.07,9.58-26.27,6.48-46-11.45-65.84-19.66-21.79-45-37.72-66.62-55.84-13.49-11.28-33.51-26.71-37.5-47.28-3.79-19.47,8.31-37.21,18.13-51.32,22.47-32.31,80.74-81.32,62-125.62C381,55.41,343.2,37,343.41.12M407.6,874.79c-8.42-16.15-8.15-34.62-.66-51.23,5.57-12.37,12.17-24.38,15.09-38,3.8-17.74,1.41-37.32.44-55.29-2-36.35-15.83-68-19.83-104.1-3.35-30.32-16-70.08-8.13-99.93,8.74-33,28.7-62.19,39-94.16,19.83-61.46-43.38-93.19-79.43-124.1-13.35-11.45-32.72-27-35.92-47.79-2.95-19.21,9.13-37,18.68-51,22.18-32.45,76.6-81.22,57.86-125C382.61,55.93,345.11,37,345.55.12m76.6,874.67c-10-16.19-10.75-35.86-3.7-53.78,5.23-13.3,11.92-26.13,14.88-40.47,3.64-17.68,1.51-36.91.05-54.5-2.92-35.34-19.51-64.48-23.82-99.91-3.65-30.07-14.81-68.1-6.9-98.11,8.54-32.39,26.89-61.32,35.77-93.22,7.51-27,3.67-47.9-13.88-68.36-19.5-22.73-45.12-39.38-66.69-58.41-13.26-11.7-31.89-27.28-34.22-48.4-2.09-18.87,9.88-36.81,19.14-50.6,21.36-31.79,72.51-81.31,53.61-124.25C383.87,56.34,347,37,347.69.12m89,874.67c-12.41-17-12.6-36.84-6.76-56.1,4.22-13.93,11.66-27.81,14.65-42.84,3.51-17.64,1.31-36.18-.33-53.86-3.27-35.26-23.06-60.94-27.68-95.85-3.93-29.62-13.53-66.45-5.6-96.18,8.46-31.73,24.88-60.4,32.21-92.23,14.74-63.89-44.27-95.62-81.58-129.59-13.19-12-31-27.63-32.42-49.06-1.22-18.5,10.58-36.43,19.54-50.13,21-32,67.74-81.28,49.24-123.48C385.46,56.93,348.87,37,349.84.12M451.05,874.75c-13-16.22-15.86-37.3-9.66-57.94,4.51-15,11.38-29.34,14.4-45,3.42-17.69,1.45-36.21-.76-53.49-4.43-34.57-26.35-57.3-31.38-92.16-4.2-29.15-12.2-64.75-4.32-94.19,8.33-31.13,22.82-59.52,28.58-91.25,11.82-65.09-44.63-96.76-82.54-132.45-13.15-12.38-30.08-28-30.53-49.79-.37-17.74,11.06-36.14,19.86-49.61,21.18-32.43,62.7-81.33,44.77-122.64C387,57.56,350.71,37,352,.12m110.9,874c-12.89-17.53-15-38.23-10.11-58.54,3.59-15,11.11-30.75,14.13-46.81C470.26,751,468,733,465.62,715.28s-7.31-31.09-17.49-44.38c-10.58-13.81-14.55-26.47-17.38-44.69-4.47-28.72-10.85-63.05-3.06-92.19,8.19-30.61,20.79-58.73,25-90.31,8.72-66.13-45.13-97.81-83.52-135.28C356,295.61,340,279.94,340.56,257.87c.44-17.37,11.68-35.59,20.12-49.06,20.46-32.62,57.4-81.48,40.2-121.74-12.33-28.85-48.35-50-46.76-86.95M472.28,873c-11.95-17.3-12.21-37.73-8.22-57.73,3.19-16,10.91-31.55,13.95-48.09,3.31-18,.7-36.29-2.05-54.07s-8.17-31-19.2-43.65c-11.41-13.12-15.87-24.86-18.93-43.2-4.72-28.32-9.49-61.38-1.8-90.22,8.06-30.21,18.87-58.06,21.46-89.47,5.51-66.88-45.91-98.74-84.6-137.95-13.16-13.33-28.13-29-26.55-51.38,1.2-17,12.25-35,20.34-48.46,20.9-34.9,50.1-81.74,35.54-120.78-10.55-28.3-47.89-50.85-46-87.86m124,871.37c-11.64-16.86-10.47-37.59-6.13-56.64,3.62-15.89,11.23-31.57,14.28-48.14,3.37-18.27,1-37.26-2.32-54.66-3.43-18-8.73-31.25-20.85-43.91s-17-23.41-20.32-41.88c-5-28-8.15-59.79-.55-88.36,8-29.91,17.13-57.5,18.18-88.74,2.27-67.32-47.1-99.5-85.86-140.38-13.18-13.9-27.12-29.58-24.49-52.23,1.93-16.65,12.78-34.22,20.52-47.85C392.36,174,417.18,126.51,403.49,89,393.09,60.4,356.11,37.18,358.4.12M487.66,869.89c-12.29-16.18-9.92-37.57-5.3-56,4-15.82,11.57-31.53,14.65-48.14,3.36-18.09,1.21-37-1.83-54.29-3.26-18.47-9-31.89-21.76-44.39-12.12-11.86-18.45-21.81-21.57-40.77-4.7-28.6-6.84-58.33.7-86.65,7.91-29.73,15.66-57.12,15.24-88.19-.9-67.21-48.93-100.21-87.38-142.46-13.2-14.51-26.08-30.2-22.41-53.1,2.62-16.35,13.28-33.4,20.67-47.22,18.31-34.26,38.74-82.83,26-118.67C394.47,61.16,357.87,37.25,360.54.12m135,868.28c-14.1-15.25-11.16-37.43-6.26-55.95,4.19-15.83,11.8-31.63,14.91-48.32,3.32-17.88,1.05-36.06-1.47-53.73-2.71-18.95-8.66-32.14-21.42-44.2C469,654.56,462,645.35,458.71,626.27c-4.89-28.48-5.57-57.06,2-85.17,7.93-29.63,14.54-56.92,12.74-87.83-3.91-67.36-51.19-99.7-89.24-144.1-12.95-15.12-25.41-31.15-20.32-54,3.62-16.24,13.65-32.29,20.81-46.61,16.85-33.67,32.77-83.6,21.18-117.52C395.91,62,359.62,37.32,362.68.12M505,867.24c-17-14.2-14.78-36.71-9.52-56.49,9.66-36.27,19.75-63.46,13.74-101.7-2.9-18.43-7.25-31-20.08-43.21-13.26-12.66-19.36-20.28-23.67-39.6-13-58.24,19.88-112.8,14-171.66-6.59-66.14-54.45-100.13-91.51-145.21-12.89-15.68-24.37-32.31-18.37-54.86,4.32-16.2,14.2-31.23,21.06-46,15.2-32.72,26.79-84.6,16.29-116.33C397.21,62.8,361.34,37.4,364.83.12m151.94,866.5c-19.38-12.53-22.15-35-15.58-57.7,10.59-36.56,19-62.33,13.61-101.44-2.42-17.5-7-30.19-18.56-41.77-12.4-12.41-20.39-20-24.26-39.52-11.85-59.76,23.46-111.88,14-170.94-10.36-64.7-58.69-100.39-94.28-145.67-12.87-16.38-23.25-33.15-16.3-55.74,4.91-16,14.72-30.33,21.18-45.41C410,177,417.33,122.69,408,93.36c-9.48-29.72-44.9-55.87-41-93.24M531.89,866.75c-23.7-12.32-31-32.68-24.9-59.64,8.19-36.15,19.46-63.36,13-101.32-2.74-16-6.46-28.93-17.56-40.28-12-12.28-19.83-21.8-24.08-39.4-13.73-56.79,24.48-111.52,14.59-170.73-10.35-61.92-64.3-101.67-97.44-145.6-12.7-16.83-22.29-34.13-14.29-56.6,5.59-15.7,15.26-29.44,21.32-44.85,4.9-12.48,4.94-25.36,6.13-38.73,2.34-26.21,7.63-51.3.33-75-9.26-30.07-44.2-57-39.85-94.45m181,867.45c-24.46-11-43.53-30-36.76-62.09,7.78-36.92,19-62.55,11.73-101.41-6.22-33.5-33-47.33-40.63-78.09C470.6,570.51,508,514.69,499.06,455.76c-9.15-60.27-68.52-102.32-99.83-145.77-12.64-17.54-21.11-35-12.32-57.43,6-15.45,15.84-28.69,21.47-44.35,4.36-12.13,2.63-24.31,2.86-37.05.45-26.21,5.7-51.61-1.33-75.34-9-30.44-43.46-58.12-38.66-95.7M570.36,868.86c-25.75-10.71-55-28.77-49.76-64.69,5.39-37.27,18.7-62.85,9.8-101.74-7.2-31.5-31.76-46.29-40-76.45-7.5-27.58,0-55,6.74-82.2,7.12-28.59,11.14-57.71,7.18-87.37-4.07-30.58-19.68-48.54-37.51-70.32-20.93-25.56-45.37-49-63.86-75.9C390.45,292,383.06,274.39,392.57,252c6.43-15.19,16.41-28.08,21.65-43.9,4-11.93.42-23.31-.27-35.53-1.49-26.27,3.59-51.69-3.12-75.43-8.7-30.77-42.71-59.29-37.44-97m218.4,870.29c-25.14-10.13-66.75-29.61-62.47-67.07,4.18-36.54,18.62-65.7,7.08-102.38-9.13-29-32.8-45-40.35-74.77-7-27.39,0-54.71,6.31-81.89,6.63-28.55,10.19-57.52,6.61-87C505,425.08,490.49,409,471.06,387c-21.85-24.71-46.29-49.26-64.3-76.66-12.43-18.89-18.76-36.59-8.62-59,6.76-14.94,16.94-27.66,21.88-43.51,3.63-11.66-1.7-22.43-3.32-33.94-3.59-25.47,1.37-52.22-5-75.55C403.24,67.23,369.79,37.94,375.53.12M613.39,872c-26.79-10.42-74.25-30.16-73.46-68.86.36-17.88,6.72-34.53,9.47-52.43,2.8-18.19.06-34.9-6-50.93-10.46-27.69-35.18-42.84-42.4-73.32-6.43-27.17,0-54.37,5.89-81.41,6.19-28.51,9.42-57.34,6.11-86.64-3.7-32.82-16.72-49.25-37.48-70.66-22.88-23.6-47.41-49.27-65-77.17-12.29-19.48-17.55-37.1-6.85-59.66,7-14.71,17.44-27.35,22.09-43.23,3.41-11.63-3.68-21.53-6.22-32.41-5.66-24.28-1.05-52.73-7-75.54C404.28,67.61,371.53,38.64,377.67.12M634.19,873.4c-29.07-11.15-79.29-31.25-82.17-70.09-1.32-17.79,5-34.64,7.69-52.85,2.81-19-.41-35.64-7.94-51.51-13-27.34-39.19-39.86-46.39-72.18-6-26.89,0-54,5.5-80.81,5.81-28.48,8.86-57.15,5.73-86.34-3.45-32.26-14.86-51-36.36-71.45-23.9-22.72-48.75-48.9-66-77.42C402.18,290.7,397.85,273,409,250.46c7.2-14.51,17.91-27.12,22.44-43,3.33-11.72-5.48-20.77-8.95-31-7.73-22.71-3.58-53.42-9.07-75.41C405.31,68.52,373.17,38.78,379.81.12M653.22,874.4c-30.52-11.83-82-32-88.19-70.7-2.86-17.87,2.81-34.67,5.42-53.26,2.72-19.36-.35-36.45-8.73-51.78-15-27.36-45.09-36.5-52.43-71.53C498,573.35,525.83,517.14,519.94,461c-3.28-31.23-13.36-52.88-34.85-72.72-24.66-22.78-49.93-47.71-67-77.32-11.81-20.43-15.49-38.54-3.82-60.84,7.3-13.95,18.38-26.66,22.7-42.14,3.55-12.71-6.79-20.3-11.34-30.37-9.59-21.24-6.16-53.78-11.31-75.13-8-33-39.46-63.5-32.32-102.31M669.51,874.8c-31.47-12.8-79-31.09-90.81-70.55-5.44-18.2.22-35.61,2.64-53.77,2.6-19.47-.63-36.65-9.31-51.82-15.93-27.82-52.69-33.43-59.21-71.13-9.39-54.27,16.28-109.32,10.29-165.2-3.27-30.54-12.55-54-33.49-73.95-24.85-23.72-50.74-46.52-67.82-77.32-11.58-20.88-14.46-39.06-2.52-61.31,7.2-13.42,19.36-25.6,23.28-40.83,3.68-14.31-7.92-20.29-13.75-30.43-11.45-19.91-8.8-53.68-13.72-74.7-7.81-33.44-38.65-64.71-31-103.67"/></g></g></svg>